<svg width="216" height="60" viewBox="0 0 216 60" fill="none" xmlns="http://www.w3.org/2000/svg">
<path fill-rule="evenodd" clip-rule="evenodd" d="M51.9612 10C52.1973 12.0673 51.3469 14.1045 50.1039 15.602C48.8069 17.0761 46.7319 18.2036 44.711 18.0584C44.4465 16.0691 45.4705 13.9538 46.6167 12.6633C47.9123 11.1988 50.1622 10.0767 51.9612 10ZM58.5769 21.9258C58.3514 22.0554 54.6139 24.2044 54.6548 28.5869C54.7018 33.8792 59.4603 35.6287 59.5186 35.6479C59.4902 35.7712 58.7734 38.1728 56.9886 40.6115C55.4982 42.7583 53.9366 44.8571 51.4564 44.8955C50.2772 44.9216 49.481 44.595 48.6514 44.2546C47.786 43.8995 46.8841 43.5296 45.4733 43.5296C43.9776 43.5296 43.0358 43.9114 42.1274 44.2797C41.3421 44.5981 40.5818 44.9063 39.5102 44.9489C37.1479 45.0325 35.3432 42.6569 33.7987 40.5292C30.7112 36.185 28.3078 28.2869 31.5304 22.9123C33.0919 20.2764 35.9391 18.579 38.9825 18.5338C40.3227 18.5074 41.6081 19.0049 42.735 19.4411L42.735 19.4411C43.5967 19.7746 44.3656 20.0723 44.9955 20.0723C45.5487 20.0723 46.2961 19.7865 47.1671 19.4535C48.5399 18.9286 50.2199 18.2863 51.9314 18.4598C53.1018 18.4927 56.4325 18.905 58.5814 21.9232L58.5769 21.9258ZM84.8673 44.6435H88.0971L81.9746 26.4115H78.2116L72.119 44.6435H75.2634L76.9487 39.2882H83.0982L84.8673 44.6435ZM80.9649 32.2806L82.5648 37.0413H77.4834L79.0549 32.2806C79.4674 30.7667 79.7674 29.6214 79.9537 28.846H80.0106C80.4785 30.6489 80.7957 31.7942 80.9649 32.2806ZM103.765 37.9083C103.765 40.1442 103.138 41.9115 101.884 43.2089C100.76 44.3638 99.365 44.9406 97.6997 44.9406C95.902 44.9406 94.6107 44.3186 93.8243 43.0746H93.7674V50H90.7353V35.8245C90.7353 34.4189 90.6969 32.9763 90.623 31.4967H93.2895L93.4588 33.5805H93.5157C94.5268 32.0104 96.0613 31.2268 98.1206 31.2268C99.7305 31.2268 101.074 31.8392 102.15 33.0653C103.228 34.2929 103.765 35.9067 103.765 37.9083ZM100.676 38.0152C100.676 36.7356 100.378 35.6807 99.7775 34.8504C99.1218 33.9846 98.2415 33.5517 97.1379 33.5517C96.3899 33.5517 95.7101 33.7928 95.1028 34.2682C94.4941 34.7477 94.0959 35.3738 93.9096 36.1492C93.8157 36.5109 93.7688 36.8068 93.7688 37.0397V39.2317C93.7688 40.188 94.0731 40.9949 94.6818 41.6539C95.2905 42.3129 96.0812 42.6417 97.054 42.6417C98.196 42.6417 99.0849 42.217 99.7206 41.3703C100.358 40.5223 100.676 39.4044 100.676 38.0152ZM117.579 43.2089C118.834 41.9115 119.462 40.1442 119.462 37.9083C119.462 35.9067 118.923 34.2929 117.849 33.0653C116.771 31.8392 115.427 31.2268 113.818 31.2268C111.758 31.2268 110.223 32.0104 109.213 33.5805H109.157L108.987 31.4967H106.321C106.395 32.9763 106.433 34.4189 106.433 35.8245V50H109.465V43.0746H109.522C110.307 44.3186 111.598 44.9406 113.396 44.9406C115.061 44.9406 116.457 44.3638 117.579 43.2089ZM115.472 34.8504C116.073 35.6807 116.373 36.7356 116.373 38.0152C116.373 39.4044 116.054 40.5223 115.417 41.3703C114.781 42.217 113.892 42.6417 112.75 42.6417C111.775 42.6417 110.984 42.3115 110.375 41.6539C109.77 40.9949 109.465 40.188 109.465 39.2317V37.0397C109.465 36.8068 109.514 36.5109 109.606 36.1492C109.792 35.3738 110.189 34.7477 110.798 34.2682C111.406 33.7928 112.085 33.5517 112.834 33.5517C113.939 33.5517 114.817 33.9846 115.472 34.8504ZM137.012 39.5307C137.012 41.0816 136.453 42.3433 135.331 43.3174C134.098 44.3819 132.381 44.9135 130.175 44.9135C128.139 44.9135 126.506 44.5354 125.27 43.7777L125.973 41.3432C127.304 42.1187 128.765 42.5078 130.356 42.5078C131.498 42.5078 132.387 42.2584 133.025 41.7625C133.661 41.2665 133.978 40.6007 133.978 39.7705C133.978 39.0307 133.717 38.4073 133.192 37.9018C132.67 37.3963 131.798 36.9263 130.581 36.4921C127.267 35.3015 125.612 33.5575 125.612 31.2641C125.612 29.7653 126.192 28.5364 127.354 27.5801C128.511 26.6225 130.056 26.1444 131.987 26.1444C133.709 26.1444 135.14 26.4335 136.282 27.0102L135.524 29.3913C134.458 28.8323 133.252 28.5529 131.902 28.5529C130.835 28.5529 130.002 28.8063 129.405 29.3105C128.9 29.7612 128.647 30.3106 128.647 30.9613C128.647 31.682 128.935 32.2779 129.516 32.7464C130.02 33.1794 130.938 33.6479 132.269 34.1534C133.897 34.785 135.093 35.5235 135.863 36.3701C136.629 37.214 137.012 38.2703 137.012 39.5307ZM143.696 33.6891H147.038V31.4944H143.696V28.2214L140.718 29.0873V31.4944H138.727V33.6864H140.718V40.3131C140.718 41.9722 141.057 43.1531 141.729 43.8573C142.405 44.5601 143.341 44.9122 144.538 44.9122C145.512 44.9122 146.299 44.804 146.896 44.5889L146.812 42.3708C146.457 42.4613 146.007 42.5065 145.465 42.5065C144.285 42.5065 143.696 41.6954 143.696 40.072V33.6891ZM162.117 37.9623C162.117 39.983 161.517 41.6421 160.319 42.9395C159.063 44.2752 157.397 44.9411 155.319 44.9411C153.316 44.9411 151.722 44.3013 150.533 43.0217C149.344 41.7421 148.75 40.1269 148.75 38.1801C148.75 36.1429 149.361 34.4742 150.589 33.1768C151.813 31.8781 153.466 31.2287 155.544 31.2287C157.546 31.2287 159.157 31.8685 160.373 33.1494C161.537 34.392 162.117 35.9963 162.117 37.9623ZM158.971 38.0568C158.971 36.8443 158.702 35.8045 158.158 34.9373C157.522 33.8879 156.613 33.3645 155.435 33.3645C154.217 33.3645 153.291 33.8892 152.655 34.9373C152.11 35.8059 151.842 36.8621 151.842 38.1116C151.842 39.324 152.11 40.3639 152.655 41.2297C153.311 42.2791 154.227 42.8025 155.408 42.8025C156.566 42.8025 157.475 42.2682 158.13 41.2023C158.689 40.3187 158.971 39.2679 158.971 38.0568ZM171.016 33.9846C171.352 33.9846 171.672 34.012 171.972 34.0654V31.2802C171.747 31.246 171.494 31.2268 171.214 31.2268C170.427 31.2268 169.698 31.4611 169.022 31.931C168.331 32.4529 167.826 33.1489 167.506 34.0134H167.422L167.311 31.498H164.67C164.746 32.742 164.784 34.1216 164.784 35.6368L164.756 44.6433H167.786V37.7453C167.786 36.7 168.039 35.8341 168.544 35.1491C169.124 34.3723 169.949 33.9846 171.016 33.9846ZM185.533 37.4481C185.533 37.9714 185.498 38.4126 185.422 38.7729H176.326C176.362 40.0716 176.801 41.0649 177.646 41.7499C178.412 42.3623 179.404 42.6692 180.621 42.6692C181.968 42.6692 183.197 42.4623 184.302 42.0472L184.777 44.0748C183.485 44.6173 181.961 44.8872 180.201 44.8872C178.085 44.8872 176.424 44.2872 175.215 43.0884C174.009 41.8896 173.405 40.2799 173.405 38.2605C173.405 36.2781 173.967 34.6272 175.092 33.3107C176.269 31.905 177.861 31.2022 179.863 31.2022C181.83 31.2022 183.319 31.905 184.33 33.3107C185.131 34.4272 185.533 35.8082 185.533 37.4481ZM182.642 36.6905C182.662 35.8246 182.464 35.0766 182.053 34.445C181.528 33.6326 180.722 33.2271 179.637 33.2271C178.646 33.2271 177.839 33.623 177.223 34.4176C176.719 35.0492 176.418 35.8068 176.326 36.6891H182.642V36.6905ZM80.0589 18.837C81.0615 18.0219 81.5635 16.808 81.5635 15.1955C81.5635 13.7598 81.0985 12.6569 80.1712 11.8856C79.3435 11.2033 78.1162 10.8622 76.4878 10.8622C75.5663 10.8622 74.713 10.9252 73.9208 11.0485V19.859C74.5281 19.9303 75.2534 19.9659 76.101 19.9659C77.8104 19.9659 79.1302 19.5891 80.0589 18.837ZM79.1302 12.8295C79.7048 13.3885 79.992 14.1899 79.992 15.2353C79.992 16.4052 79.6792 17.2958 79.0591 17.9068C78.439 18.5178 77.5587 18.8233 76.4181 18.8233C75.9303 18.8233 75.5947 18.811 75.4112 18.7836V12.0856C75.7426 12.0226 76.1422 11.9925 76.6116 11.9925C77.7166 11.9925 78.5557 12.2719 79.1302 12.8295ZM89.8956 16.6038C89.8956 17.597 89.6012 18.4108 89.0124 19.0492C88.3952 19.7055 87.5774 20.0329 86.5563 20.0329C85.5722 20.0329 84.7886 19.7192 84.2041 19.089C83.621 18.4601 83.3294 17.6669 83.3294 16.7106C83.3294 15.7105 83.6295 14.8899 84.2325 14.2528C84.8355 13.6158 85.6461 13.2966 86.6673 13.2966C87.6514 13.2966 88.4421 13.6103 89.0409 14.2391C89.6097 14.8502 89.8956 15.6393 89.8956 16.6038ZM88.3497 16.6503C88.3497 16.0544 88.216 15.5434 87.95 15.1173C87.6372 14.6022 87.192 14.3446 86.6132 14.3446C86.0145 14.3446 85.5594 14.6022 85.2465 15.1173C84.9791 15.5434 84.8469 16.0626 84.8469 16.6764C84.8469 17.2723 84.9806 17.7833 85.2465 18.2094C85.5693 18.7245 86.0187 18.9821 86.599 18.9821C87.1679 18.9821 87.6144 18.7204 87.9358 18.1957C88.2117 17.7614 88.3497 17.2463 88.3497 16.6503ZM101.067 13.4293L101.068 13.428V13.4293H101.067ZM99.6043 13.4293H101.067L98.97 19.8862H97.6048L96.7358 17.0818C96.5154 16.3817 96.3362 15.6857 96.1968 14.9953H96.1698C96.0404 15.7049 95.8612 16.3995 95.6308 17.0818L94.7078 19.8862H93.3269L91.3543 13.428H92.886L93.644 16.4982C93.8275 17.2243 93.9782 17.9161 94.0991 18.571H94.1261C94.2371 18.0312 94.4205 17.3434 94.6794 16.5119L95.6308 13.4293H96.8453L97.7569 16.4461C97.9774 17.1818 98.1566 17.8901 98.2945 18.5723H98.3358C98.4367 17.9079 98.5889 17.1996 98.7908 16.4461L99.6043 13.4293ZM108.795 19.8862H107.305V16.1872C107.305 15.0473 106.855 14.4774 105.953 14.4774C105.511 14.4774 105.154 14.6336 104.877 14.9473C104.602 15.261 104.463 15.6309 104.463 16.0543V19.8848H102.973V15.2734C102.973 14.7062 102.954 14.091 102.919 13.4252H104.228L104.298 14.4349H104.339C104.513 14.1212 104.772 13.8622 105.112 13.6554C105.515 13.4143 105.968 13.2923 106.463 13.2923C107.088 13.2923 107.609 13.4869 108.023 13.8773C108.538 14.3554 108.795 15.0692 108.795 16.0173V19.8862ZM111.416 19.8862H112.905V10.4647H111.416V19.8862ZM121.681 16.6038C121.681 17.597 121.387 18.4108 120.798 19.0492C120.181 19.7055 119.362 20.0329 118.342 20.0329C117.356 20.0329 116.573 19.7192 115.99 19.089C115.407 18.4601 115.115 17.6669 115.115 16.7106C115.115 15.7105 115.415 14.8899 116.018 14.2528C116.621 13.6158 117.432 13.2966 118.451 13.2966C119.437 13.2966 120.226 13.6103 120.826 14.2391C121.395 14.8502 121.681 15.6393 121.681 16.6038ZM120.134 16.6503C120.134 16.0544 120 15.5434 119.734 15.1173C119.423 14.6022 118.976 14.3446 118.399 14.3446C117.799 14.3446 117.344 14.6022 117.032 15.1173C116.765 15.5434 116.632 16.0626 116.632 16.6764C116.632 17.2723 116.766 17.7833 117.032 18.2094C117.355 18.7245 117.804 18.9821 118.385 18.9821C118.953 18.9821 119.399 18.7204 119.72 18.1957C119.997 17.7614 120.134 17.2463 120.134 16.6503ZM127.556 19.8863H128.895C128.831 19.5054 128.798 18.9917 128.798 18.3464V15.9681C128.798 14.1871 127.919 13.2966 126.167 13.2966C125.26 13.2966 124.49 13.4829 123.867 13.8542L124.17 14.7967C124.674 14.4789 125.257 14.3186 125.918 14.3186C126.847 14.3186 127.31 14.7433 127.31 15.5941V15.7146C126.069 15.705 125.105 15.9092 124.419 16.3257C123.732 16.7421 123.391 17.3436 123.391 18.1327C123.391 18.6547 123.566 19.0944 123.916 19.4479C124.301 19.837 124.813 20.0329 125.446 20.0329C126.293 20.0329 126.946 19.7356 127.404 19.1424H127.445L127.556 19.8863ZM127.347 16.6709V17.6669C127.347 17.7642 127.339 17.8491 127.323 17.919C127.259 18.23 127.087 18.4834 126.807 18.6834C126.528 18.8821 126.222 18.9821 125.895 18.9821C125.604 18.9821 125.359 18.8985 125.167 18.73C124.975 18.5615 124.881 18.3094 124.881 17.9724C124.881 17.0778 125.703 16.6435 127.347 16.6709ZM137.363 19.8862H136.04L135.971 18.8491H135.93C135.507 19.6382 134.788 20.0328 133.776 20.0328C132.969 20.0328 132.296 19.7273 131.763 19.1163C131.229 18.5052 130.963 17.712 130.963 16.7379C130.963 15.6926 131.252 14.8459 131.832 14.1993C132.394 13.5965 133.082 13.2951 133.902 13.2951C134.802 13.2951 135.432 13.5869 135.79 14.1719H135.819V10.4647H137.31V18.1463C137.31 18.7751 137.328 19.3546 137.363 19.8862ZM135.819 17.1626V16.0858C135.819 15.8995 135.804 15.7488 135.777 15.6337C135.693 15.2884 135.513 14.998 135.238 14.7637C134.961 14.5295 134.627 14.4116 134.241 14.4116C133.685 14.4116 133.25 14.624 132.93 15.0501C132.613 15.4761 132.452 16.02 132.452 16.6845C132.452 17.3229 132.605 17.8408 132.91 18.2394C133.233 18.6641 133.668 18.8765 134.213 18.8765C134.702 18.8765 135.093 18.6998 135.391 18.3449C135.678 18.0175 135.819 17.6229 135.819 17.1626ZM149.227 19.0492C149.816 18.4108 150.11 17.597 150.11 16.6038C150.11 15.6393 149.824 14.8502 149.255 14.2391C148.658 13.6103 147.866 13.2966 146.883 13.2966C145.861 13.2966 145.05 13.6158 144.447 14.2528C143.844 14.8899 143.544 15.7105 143.544 16.7106C143.544 17.6669 143.836 18.4601 144.419 19.089C145.005 19.7192 145.788 20.0329 146.771 20.0329C147.793 20.0329 148.61 19.7055 149.227 19.0492ZM148.166 15.1173C148.432 15.5434 148.566 16.0544 148.566 16.6503C148.566 17.2463 148.426 17.7614 148.152 18.1957C147.83 18.7204 147.382 18.9821 146.814 18.9821C146.233 18.9821 145.784 18.7245 145.461 18.2094C145.195 17.7833 145.061 17.2723 145.061 16.6764C145.061 16.0626 145.194 15.5434 145.461 15.1173C145.775 14.6022 146.23 14.3446 146.828 14.3446C147.408 14.3446 147.852 14.6022 148.166 15.1173ZM158.125 19.8862H156.636V16.1872C156.636 15.0473 156.187 14.4774 155.284 14.4774C154.841 14.4774 154.485 14.6336 154.209 14.9473C153.933 15.261 153.795 15.6309 153.795 16.0543V19.8848H152.303V15.2734C152.303 14.7062 152.286 14.091 152.25 13.4252H153.559L153.628 14.4349H153.67C153.845 14.1212 154.103 13.8622 154.442 13.6554C154.847 13.4143 155.298 13.2923 155.794 13.2923C156.419 13.2923 156.939 13.4869 157.353 13.8773C157.869 14.3554 158.125 15.0692 158.125 16.0173V19.8862ZM166.514 14.5037H168.154V13.4269H166.512V11.8199L165.052 12.2446V13.4283H164.072V14.5037H165.052V17.7602C165.052 18.5754 165.217 19.1563 165.55 19.5015C165.881 19.8467 166.339 20.0194 166.928 20.0194C167.404 20.0194 167.791 19.9659 168.085 19.8591L168.047 18.7699C167.872 18.8151 167.65 18.837 167.383 18.837C166.805 18.837 166.514 18.4384 166.514 17.641V14.5037ZM176.046 19.8862H174.554V16.2146C174.554 15.0569 174.104 14.4774 173.204 14.4774C172.513 14.4774 172.041 14.8131 171.782 15.4844C171.738 15.6255 171.712 15.7981 171.712 16.0009V19.8848H170.223V10.4647H171.712V14.3568H171.741C172.21 13.6486 172.883 13.2951 173.754 13.2951C174.372 13.2951 174.882 13.4896 175.288 13.8801C175.792 14.3664 176.046 15.0898 176.046 16.0461V19.8862ZM184.127 17.0025C184.163 16.8257 184.183 16.6093 184.183 16.3517C184.183 15.5462 183.985 14.868 183.586 14.32C183.091 13.6295 182.358 13.2843 181.394 13.2843C180.408 13.2843 179.628 13.6295 179.05 14.32C178.497 14.9666 178.223 15.7777 178.223 16.7518C178.223 17.7436 178.517 18.5341 179.111 19.1232C179.703 19.7123 180.521 20.0069 181.559 20.0069C182.425 20.0069 183.173 19.874 183.809 19.6082L183.576 18.6109C183.032 18.815 182.429 18.9164 181.768 18.9164C181.171 18.9164 180.683 18.7657 180.305 18.4643C179.891 18.1272 179.677 17.6409 179.658 17.0025H184.127ZM182.472 14.8776C182.674 15.1872 182.772 15.5544 182.761 15.9804H179.658C179.706 15.5462 179.852 15.1749 180.1 14.8639C180.403 14.4734 180.8 14.2789 181.286 14.2789C181.819 14.2789 182.213 14.4789 182.472 14.8776Z" fill="white"/>
<rect x="0.5" y="0.5" width="214.533" height="59" rx="13.5" stroke="white"/>
</svg>
