<svg width="94" height="24" viewBox="0 0 94 24" fill="none" xmlns="http://www.w3.org/2000/svg">
<path fill-rule="evenodd" clip-rule="evenodd" d="M13.1767 0C13.3184 1.2404 12.8081 2.46273 12.0623 3.36118C11.2841 4.24565 10.0392 4.92216 8.82662 4.83503C8.66791 3.64148 9.28228 2.37231 9.97004 1.59798C10.7474 0.719254 12.0973 0.0460323 13.1767 0ZM17.1462 7.15546C17.0108 7.23327 14.7683 8.52263 14.7929 11.1521C14.8211 14.3275 17.6762 15.3772 17.7112 15.3887C17.6941 15.4627 17.2641 16.9037 16.1932 18.3669C15.2989 19.655 14.362 20.9143 12.8738 20.9373C12.1663 20.953 11.6886 20.757 11.1908 20.5528C10.6716 20.3397 10.1305 20.1177 9.28399 20.1177C8.38656 20.1177 7.82145 20.3468 7.27644 20.5678C6.80524 20.7588 6.34905 20.9438 5.7061 20.9693C4.28877 21.0195 3.20593 19.5941 2.27925 18.3175C0.426732 15.711 -1.01535 10.9721 0.918233 7.74739C1.85516 6.16586 3.56346 5.14739 5.38953 5.12027C6.19364 5.10443 6.96488 5.40296 7.64097 5.66466C8.15799 5.86479 8.61938 6.04338 8.99728 6.04338C9.3292 6.04338 9.77763 5.87193 10.3003 5.6721C11.124 5.35718 12.132 4.97178 13.1588 5.07588C13.8611 5.09561 15.8595 5.34303 17.1489 7.1539L17.1462 7.15546ZM32.9203 20.7861H34.8582L31.1847 9.84687H28.9269L25.2713 20.7861H27.158L28.1692 17.5729H31.8588L32.9203 20.7861ZM30.5789 13.3683L31.5388 16.2248H28.49L29.4329 13.3683C29.6803 12.46 29.8604 11.7728 29.9722 11.3076H30.0063C30.287 12.3893 30.4773 13.0765 30.5789 13.3683ZM44.2591 16.745C44.2591 18.0865 43.8828 19.1469 43.1302 19.9253C42.4561 20.6183 41.619 20.9643 40.6198 20.9643C39.5412 20.9643 38.7664 20.5912 38.2945 19.8448H38.2604V24H36.4412V15.4947C36.4412 14.6513 36.4181 13.7858 36.3737 12.898H37.9737L38.0752 14.1483H38.1094C38.7161 13.2063 39.6368 12.7361 40.8723 12.7361C41.8383 12.7361 42.6446 13.1035 43.2897 13.8392C43.9365 14.5757 44.2591 15.544 44.2591 16.745ZM42.4057 16.8091C42.4057 16.0414 42.2265 15.4084 41.8664 14.9103C41.4731 14.3908 40.9449 14.131 40.2827 14.131C39.8339 14.131 39.426 14.2757 39.0616 14.5609C38.6964 14.8486 38.4575 15.2243 38.3457 15.6895C38.2894 15.9065 38.2612 16.0841 38.2612 16.2238V17.539C38.2612 18.1128 38.4439 18.597 38.8091 18.9924C39.1743 19.3877 39.6487 19.585 40.2324 19.585C40.9176 19.585 41.4509 19.3302 41.8323 18.8222C42.2146 18.3134 42.4057 17.6426 42.4057 16.8091ZM52.5471 19.9253C53.3006 19.1469 53.6769 18.0865 53.6769 16.745C53.6769 15.544 53.3535 14.5757 52.7093 13.8392C52.0625 13.1035 51.2561 12.7361 50.291 12.7361C49.0546 12.7361 48.1339 13.2063 47.528 14.1483H47.4939L47.3923 12.898H45.7924C45.8368 13.7858 45.8598 14.6513 45.8598 15.4947V24H47.6791V19.8448H47.7132C48.1842 20.5912 48.959 20.9643 50.0376 20.9643C51.0368 20.9643 51.8739 20.6183 52.5471 19.9253ZM51.2834 14.9103C51.6435 15.4084 51.8235 16.0414 51.8235 16.8091C51.8235 17.6426 51.6324 18.3134 51.2501 18.8222C50.8687 19.3302 50.3354 19.585 49.6502 19.585C49.0648 19.585 48.5904 19.3869 48.2252 18.9924C47.8617 18.597 47.6791 18.1128 47.6791 17.539V16.2238C47.6791 16.0841 47.7081 15.9065 47.7635 15.6895C47.8753 15.2243 48.1134 14.8486 48.4786 14.5609C48.8438 14.2757 49.2508 14.131 49.7005 14.131C50.3635 14.131 50.89 14.3908 51.2834 14.9103ZM64.2071 17.7184C64.2071 18.6489 63.8718 19.406 63.1985 19.9905C62.4587 20.6292 61.4288 20.9481 60.1053 20.9481C58.8834 20.9481 57.9038 20.7212 57.1622 20.2666L57.5838 18.8059C58.3825 19.2712 59.2588 19.5047 60.2137 19.5047C60.8989 19.5047 61.4322 19.355 61.8153 19.0575C62.1967 18.7599 62.387 18.3604 62.387 17.8623C62.387 17.4184 62.23 17.0444 61.9151 16.7411C61.602 16.4378 61.0789 16.1558 60.3485 15.8952C58.3603 15.1809 57.367 14.1345 57.367 12.7585C57.367 11.8592 57.7152 11.1218 58.4123 10.5481C59.1069 9.97351 60.0336 9.68663 61.1924 9.68663C62.2257 9.68663 63.0842 9.86007 63.7694 10.2061L63.3145 11.6348C62.6746 11.2994 61.951 11.1317 61.1412 11.1317C60.5012 11.1317 60.0012 11.2838 59.6428 11.5863C59.3399 11.8567 59.188 12.1863 59.188 12.5768C59.188 13.0092 59.3612 13.3667 59.7093 13.6479C60.0123 13.9076 60.5627 14.1887 61.3613 14.4921C62.3384 14.871 63.056 15.3141 63.5176 15.8221C63.9776 16.3284 64.2071 16.9622 64.2071 17.7184ZM68.2178 14.2135H70.223V12.8966H68.2178V10.9328L66.4309 11.4524V12.8966H65.2363V14.2118H66.4309V18.1879C66.4309 19.1833 66.634 19.8919 67.0376 20.3144C67.443 20.7361 68.0044 20.9473 68.7229 20.9473C69.3074 20.9473 69.7793 20.8824 70.1377 20.7533L70.0873 19.4225C69.874 19.4768 69.6044 19.5039 69.2793 19.5039C68.571 19.5039 68.2178 19.0173 68.2178 18.0432V14.2135ZM79.2702 16.7774C79.2702 17.9898 78.9101 18.9853 78.1916 19.7637C77.4381 20.5652 76.4381 20.9647 75.1914 20.9647C73.9899 20.9647 73.0334 20.5808 72.32 19.813C71.6067 19.0453 71.25 18.0761 71.25 16.9081C71.25 15.6857 71.6169 14.6845 72.3533 13.9061C73.088 13.1268 74.0795 12.7372 75.3262 12.7372C76.5277 12.7372 77.4944 13.1211 78.224 13.8897C78.922 14.6352 79.2702 15.5978 79.2702 16.7774ZM77.3827 16.8341C77.3827 16.1066 77.2214 15.4827 76.8946 14.9624C76.5132 14.3327 75.9679 14.0187 75.2614 14.0187C74.5301 14.0187 73.9746 14.3335 73.5932 14.9624C73.2663 15.4835 73.1051 16.1173 73.1051 16.867C73.1051 17.5944 73.2663 18.2183 73.5932 18.7378C73.9865 19.3675 74.5361 19.6815 75.2451 19.6815C75.9397 19.6815 76.485 19.3609 76.8784 18.7214C77.2137 18.1912 77.3827 17.5607 77.3827 16.8341ZM84.6096 14.3908C84.811 14.3908 85.003 14.4072 85.183 14.4393V12.7681C85.0482 12.7476 84.8963 12.7361 84.7282 12.7361C84.2564 12.7361 83.8186 12.8766 83.4133 13.1586C82.9986 13.4718 82.6957 13.8893 82.5037 14.408H82.4533L82.3868 12.8988H80.8022C80.8474 13.6452 80.8704 14.473 80.8704 15.3821L80.8534 20.786H82.6718V16.6472C82.6718 16.02 82.8237 15.5005 83.1266 15.0895C83.4747 14.6234 83.9696 14.3908 84.6096 14.3908ZM93.3199 16.4688C93.3199 16.7828 93.2986 17.0475 93.2534 17.2637H87.7957C87.817 18.043 88.0807 18.6389 88.5875 19.0499C89.0474 19.4174 89.6422 19.6015 90.3726 19.6015C91.1807 19.6015 91.9179 19.4774 92.581 19.2283L92.866 20.4449C92.0912 20.7704 91.1764 20.9323 90.1209 20.9323C88.8512 20.9323 87.8545 20.5723 87.1292 19.853C86.4056 19.1338 86.043 18.1679 86.043 16.9563C86.043 15.7668 86.38 14.7763 87.055 13.9864C87.7615 13.143 88.7164 12.7213 89.9178 12.7213C91.0979 12.7213 91.9913 13.143 92.598 13.9864C93.0784 14.6563 93.3199 15.4849 93.3199 16.4688ZM91.5852 16.0143C91.5971 15.4948 91.4785 15.0459 91.2319 14.667C90.917 14.1796 90.4332 13.9362 89.7821 13.9362C89.1874 13.9362 88.7036 14.1738 88.3341 14.6506C88.0312 15.0295 87.8511 15.4841 87.7957 16.0135H91.5852V16.0143ZM30.0354 5.30221C30.637 4.81311 30.9382 4.08482 30.9382 3.11732C30.9382 2.25586 30.6592 1.59414 30.1028 1.13135C29.6062 0.721996 28.8698 0.517317 27.8927 0.517317C27.3398 0.517317 26.8278 0.555129 26.3525 0.629109V5.91542C26.7169 5.95817 27.1521 5.97954 27.6607 5.97954C28.6863 5.97954 29.4782 5.75349 30.0354 5.30221ZM29.4782 1.69771C29.8229 2.03309 29.9953 2.51397 29.9953 3.14116C29.9953 3.84315 29.8076 4.37745 29.4355 4.74406C29.0635 5.11068 28.5353 5.29399 27.8509 5.29399C27.5583 5.29399 27.3569 5.28659 27.2468 5.27015V1.25137C27.4456 1.21355 27.6854 1.19547 27.967 1.19547C28.63 1.19547 29.1334 1.36316 29.4782 1.69771ZM35.9373 3.96226C35.9373 4.55821 35.7607 5.04648 35.4074 5.42954C35.0371 5.82328 34.5464 6.01974 33.9338 6.01974C33.3433 6.01974 32.8731 5.8315 32.5224 5.45337C32.1726 5.07607 31.9976 4.60013 31.9976 4.02637C31.9976 3.42631 32.1777 2.93393 32.5395 2.5517C32.9013 2.16947 33.3877 1.97794 34.0003 1.97794C34.5908 1.97794 35.0652 2.16618 35.4245 2.54348C35.7658 2.91009 35.9373 3.38357 35.9373 3.96226ZM35.0098 3.99021C35.0098 3.63263 34.9296 3.32603 34.77 3.07038C34.5823 2.76131 34.3152 2.60677 33.9679 2.60677C33.6087 2.60677 33.3356 2.76131 33.1479 3.07038C32.9875 3.32603 32.9081 3.63757 32.9081 4.00583C32.9081 4.3634 32.9883 4.67 33.1479 4.92565C33.3416 5.23472 33.6112 5.38926 33.9594 5.38926C34.3007 5.38926 34.5686 5.23226 34.7615 4.91743C34.927 4.65685 35.0098 4.34778 35.0098 3.99021ZM42.6404 2.0576L42.6407 2.05678V2.0576H42.6404ZM41.7626 2.0576H42.6404L41.3821 5.93171H40.5629L40.0415 4.24907C39.9093 3.82902 39.8017 3.41144 39.7181 2.99715H39.7019C39.6243 3.42295 39.5167 3.83971 39.3785 4.24907L38.8247 5.93171H37.9962L36.8126 2.05678H37.7316L38.1865 3.89889C38.2965 4.33456 38.387 4.74967 38.4595 5.14259H38.4757C38.5423 4.81872 38.6524 4.40607 38.8077 3.90711L39.3785 2.0576H40.1072L40.6542 3.86766C40.7865 4.30907 40.894 4.73405 40.9767 5.14341H41.0015C41.0621 4.74474 41.1534 4.31976 41.2745 3.86766L41.7626 2.0576ZM47.2769 5.9317H46.3827V3.71229C46.3827 3.02838 46.113 2.68643 45.5721 2.68643C45.3067 2.68643 45.0925 2.78014 44.9261 2.96838C44.7614 3.15662 44.6778 3.37856 44.6778 3.63256V5.93088H43.7835V3.16401C43.7835 2.8237 43.7724 2.45462 43.7511 2.05513H44.537L44.5788 2.66095H44.6036C44.7077 2.47271 44.863 2.31735 45.0669 2.19323C45.3092 2.04855 45.5806 1.97539 45.8775 1.97539C46.253 1.97539 46.5653 2.09212 46.8136 2.32639C47.1225 2.61327 47.2769 3.04153 47.2769 3.61036V5.9317ZM48.8495 5.93172H49.7429V0.278791H48.8495V5.93172ZM55.0088 3.96226C55.0088 4.55821 54.8321 5.04648 54.4788 5.42954C54.1085 5.82328 53.617 6.01974 53.0052 6.01974C52.4139 6.01974 51.9437 5.8315 51.5938 5.45337C51.244 5.07607 51.0691 4.60013 51.0691 4.02637C51.0691 3.42631 51.2491 2.93393 51.6109 2.5517C51.9727 2.16947 52.4591 1.97794 53.0709 1.97794C53.6622 1.97794 54.1358 2.16618 54.4959 2.54348C54.8372 2.91009 55.0088 3.38357 55.0088 3.96226ZM54.0804 3.99021C54.0804 3.63263 54.0001 3.32603 53.8406 3.07038C53.6537 2.76131 53.3858 2.60677 53.0393 2.60677C52.6792 2.60677 52.4062 2.76131 52.2193 3.07038C52.0589 3.32603 51.9795 3.63757 51.9795 4.00583C51.9795 4.3634 52.0597 4.67 52.2193 4.92565C52.413 5.23472 52.6827 5.38926 53.0308 5.38926C53.3721 5.38926 53.6392 5.23226 53.832 4.91743C53.9984 4.65685 54.0804 4.34778 54.0804 3.99021ZM58.5338 5.93178H59.3367C59.2983 5.70326 59.2787 5.39501 59.2787 5.00785V3.58085C59.2787 2.51224 58.7514 1.97794 57.7001 1.97794C57.1557 1.97794 56.6941 2.08973 56.3203 2.3125L56.5021 2.87804C56.8041 2.68733 57.154 2.59116 57.5508 2.59116C58.108 2.59116 58.3862 2.84598 58.3862 3.35644V3.42878C57.6412 3.42302 57.0627 3.5455 56.6514 3.79539C56.2393 4.04528 56.0345 4.40614 56.0345 4.87962C56.0345 5.1928 56.1394 5.45666 56.3493 5.66874C56.5806 5.90219 56.8878 6.01974 57.2675 6.01974C57.776 6.01974 58.1677 5.84136 58.4425 5.48543H58.4672L58.5338 5.93178ZM58.4083 4.00254V4.60013C58.4083 4.6585 58.4032 4.70946 58.3938 4.75138C58.3554 4.93798 58.2522 5.09005 58.0841 5.21006C57.9168 5.32925 57.7334 5.38926 57.5371 5.38926C57.3622 5.38926 57.2154 5.33912 57.1002 5.23801C56.985 5.1369 56.9287 4.98565 56.9287 4.78344C56.9287 4.24667 57.4219 3.9861 58.4083 4.00254ZM64.4178 5.93172H63.6243L63.5824 5.30946H63.5577C63.3043 5.78293 62.8725 6.01967 62.2658 6.01967C61.7811 6.01967 61.3775 5.83636 61.0575 5.46975C60.7376 5.10314 60.578 4.6272 60.578 4.04275C60.578 3.41556 60.7512 2.90756 61.0994 2.51958C61.4364 2.15789 61.8494 1.97705 62.3409 1.97705C62.881 1.97705 63.259 2.15214 63.4741 2.50314H63.4911V0.278791H64.3863V4.88777C64.3863 5.26507 64.3965 5.61278 64.4178 5.93172ZM63.4911 4.29757V3.65148C63.4911 3.53968 63.4826 3.44926 63.4664 3.38021C63.4161 3.17307 63.3077 2.9988 63.143 2.85824C62.9766 2.71768 62.7761 2.64699 62.5448 2.64699C62.2112 2.64699 61.9501 2.7744 61.7581 3.03004C61.5678 3.28568 61.4714 3.61202 61.4714 4.01069C61.4714 4.39375 61.5627 4.70446 61.7462 4.94367C61.9398 5.19849 62.201 5.3259 62.5278 5.3259C62.8213 5.3259 63.056 5.21986 63.2343 5.00696C63.4067 4.8105 63.4911 4.57377 63.4911 4.29757ZM71.5362 5.42954C71.8894 5.04648 72.0661 4.55821 72.0661 3.96226C72.0661 3.38357 71.8946 2.91009 71.5532 2.54348C71.1949 2.16618 70.7196 1.97794 70.1299 1.97794C69.5164 1.97794 69.03 2.16947 68.6682 2.5517C68.3064 2.93393 68.1264 3.42631 68.1264 4.02637C68.1264 4.60013 68.3013 5.07607 68.6512 5.45337C69.0027 5.8315 69.4729 6.01974 70.0625 6.01974C70.6761 6.01974 71.1658 5.82328 71.5362 5.42954ZM70.8996 3.07038C71.0592 3.32603 71.1394 3.63263 71.1394 3.99021C71.1394 4.34778 71.0558 4.65685 70.8911 4.91743C70.6982 5.23226 70.4295 5.38926 70.0881 5.38926C69.74 5.38926 69.4703 5.23472 69.2766 4.92565C69.1171 4.67 69.0369 4.3634 69.0369 4.00583C69.0369 3.63757 69.1162 3.32603 69.2766 3.07038C69.4652 2.76131 69.7383 2.60677 70.0967 2.60677C70.4448 2.60677 70.711 2.76131 70.8996 3.07038ZM76.8752 5.9317H75.9817V3.71229C75.9817 3.02838 75.7121 2.68643 75.1703 2.68643C74.9049 2.68643 74.6907 2.78014 74.5252 2.96838C74.3596 3.15662 74.2769 3.37856 74.2769 3.63256V5.93088H73.3818V3.16401C73.3818 2.8237 73.3715 2.45462 73.3502 2.05513H74.1352L74.177 2.66095H74.2018C74.3067 2.47271 74.462 2.31735 74.6651 2.19323C74.9083 2.04855 75.1788 1.97539 75.4766 1.97539C75.8512 1.97539 76.1635 2.09212 76.4118 2.32639C76.7216 2.61327 76.8752 3.04153 76.8752 3.61036V5.9317ZM81.9083 2.70223H82.8922V2.05613H81.9075V1.09192L81.0311 1.34674V2.05695H80.4432V2.70223H81.0311V4.65613C81.0311 5.14522 81.1301 5.49375 81.3298 5.7009C81.5286 5.90805 81.8034 6.01162 82.1566 6.01162C82.4425 6.01162 82.6746 5.97956 82.8512 5.91544L82.8282 5.26195C82.7232 5.28908 82.5901 5.30223 82.4297 5.30223C82.0833 5.30223 81.9083 5.06302 81.9083 4.58462V2.70223ZM87.6274 5.93172H86.7322V3.72874C86.7322 3.03415 86.4626 2.68644 85.9225 2.68644C85.5078 2.68644 85.2245 2.88783 85.0692 3.29062C85.0427 3.37528 85.0273 3.47886 85.0273 3.60051V5.9309H84.1339V0.278791H85.0273V2.61411H85.0444C85.326 2.18913 85.7296 1.97705 86.2527 1.97705C86.623 1.97705 86.9294 2.09378 87.1726 2.32805C87.4755 2.61986 87.6274 3.05388 87.6274 3.62764V5.93172ZM92.4765 4.20148C92.4978 4.09544 92.5098 3.96557 92.5098 3.81103C92.5098 3.32769 92.3912 2.9208 92.1514 2.592C91.8544 2.17771 91.415 1.97056 90.8365 1.97056C90.2451 1.97056 89.7767 2.17771 89.4302 2.592C89.0983 2.97998 88.9336 3.46661 88.9336 4.05106C88.9336 4.64619 89.1102 5.12048 89.4669 5.47395C89.8219 5.82741 90.3125 6.00414 90.9354 6.00414C91.4551 6.00414 91.9039 5.9244 92.2854 5.76494L92.1454 5.16652C91.8195 5.28899 91.4577 5.34982 91.0609 5.34982C90.7025 5.34982 90.4098 5.2594 90.1828 5.07856C89.9345 4.87635 89.8065 4.58454 89.7946 4.20148H92.4765ZM91.4833 2.92655C91.6044 3.11233 91.6633 3.33262 91.6565 3.58827H89.7946C89.8236 3.32769 89.9115 3.10493 90.06 2.91833C90.2417 2.68406 90.4798 2.56734 90.7716 2.56734C91.0916 2.56734 91.328 2.68735 91.4833 2.92655Z" fill="white"/>
</svg>
