<svg width="80" height="67" viewBox="0 0 80 67" fill="none" xmlns="http://www.w3.org/2000/svg">
<path d="M77.7908 34.4317H77.0538L77.2951 33.559C77.4787 32.8986 77.3397 32.1806 76.9253 31.6355C76.5109 31.0904 75.8525 30.7655 75.168 30.7655H73.1746L75.5955 22.0468C75.7791 21.3865 75.6401 20.6684 75.2257 20.1233C75.1785 20.0605 75.126 20.0002 75.0736 19.9451C75.8027 19.7407 76.3955 19.1668 76.6053 18.4121L79.9205 6.47018C80.1041 5.8098 79.9651 5.09176 79.5507 4.54669C79.1363 4.00161 78.478 3.67666 77.7934 3.67666H77.0564L77.2977 2.80401C77.4813 2.14363 77.3423 1.42559 76.9279 0.880511C76.5109 0.324951 75.8525 0 75.168 0H69.0332C68.0444 0 67.171 0.665624 66.9061 1.61689L66.3344 3.67404L63.2342 3.69238L63.4807 2.80401C63.6643 2.14363 63.5253 1.42559 63.1109 0.880511C62.6965 0.335433 62.0382 0.0104823 61.3536 0.0104823H61.309L55.1428 0.131028C54.6943 0.13889 54.2694 0.288263 53.9153 0.537217C53.5193 0.196543 53.0052 0 52.4754 0H35.9832C34.9996 0 34.1236 0.660383 33.8587 1.60903L33.4915 2.91407L31.6922 2.93504C31.207 2.94028 30.748 3.10799 30.3782 3.39364C29.9874 3.07655 29.4943 2.89835 28.9855 2.89835H28.1121L28.141 2.79877C28.3246 2.13838 28.1855 1.42035 27.7711 0.87527C27.3567 0.330192 26.6984 0.00524114 26.0139 0.00524114H9.84684C8.85804 0.00524114 7.98464 0.670866 7.71974 1.62213L0.0794877 29.1381C-0.104109 29.7985 0.0348999 30.5165 0.449304 31.0616C0.863709 31.6067 1.52203 31.9316 2.20659 31.9316H2.9436L2.7023 32.8043C2.5187 33.4647 2.65771 34.1827 3.07212 34.7278C3.48652 35.2729 4.14485 35.5978 4.8294 35.5978H6.82274L0.0794877 59.901C-0.104109 60.5613 0.0348999 61.2794 0.449304 61.8245C0.863709 62.3695 1.52203 62.6945 2.20659 62.6945H2.9436L2.7023 63.5671C2.5187 64.2275 2.65771 64.9456 3.07212 65.4906C3.48652 66.0357 4.14485 66.3607 4.8294 66.3607H20.999C21.9878 66.3607 22.8612 65.695 23.1261 64.7438L23.4802 63.4649H25.4185L25.3896 63.5645C25.206 64.2249 25.345 64.9429 25.7594 65.488C26.1738 66.0331 26.8322 66.358 27.5167 66.358H44.1322C45.1237 66.358 45.9971 65.6924 46.262 64.7359L46.6134 63.4623H48.1084L48.0796 63.5619C47.896 64.2223 48.035 64.9403 48.4494 65.4854C48.8638 66.0305 49.5221 66.3554 50.2067 66.3554H56.3414C57.3302 66.3554 58.2036 65.6898 58.4685 64.7385L59.0351 62.6971H62.13L61.8913 63.5593C61.7077 64.2197 61.8467 64.9377 62.2611 65.4828C62.6755 66.0278 63.3339 66.3528 64.0184 66.3528H70.1532C71.142 66.3528 72.0154 65.6872 72.2803 64.7359L75.5955 52.794C75.7791 52.1336 75.6401 51.4156 75.2257 50.8705C75.1785 50.8076 75.126 50.7473 75.0736 50.6923C75.8027 50.4879 76.3955 49.914 76.6053 49.1592L79.9205 37.2173C80.1041 36.5569 79.9651 35.8389 79.5507 35.2938C79.1363 34.7487 78.478 34.4238 77.7934 34.4238L77.7908 34.4317Z" fill="black"/>
<path d="M51.9118 14.5311H57.8475C58.0915 14.5311 58.2672 14.7593 58.2069 14.9954L57.6508 17.1488C57.6089 17.3141 57.4594 17.4269 57.2915 17.4269H50.8994C50.7315 17.4269 50.5846 17.537 50.54 17.6997L47.2246 29.6525C47.159 29.8885 47.3374 30.1246 47.5839 30.1246H53.719C53.8869 30.1246 54.0338 30.0144 54.0784 29.8518L56.6698 20.5062C56.7144 20.3462 56.8613 20.2334 57.0292 20.2334H63.1643C63.4108 20.2334 63.5892 20.4669 63.5236 20.7056L61.0423 29.6525C60.9767 29.8885 61.1551 30.1246 61.4016 30.1246H67.5367C67.7046 30.1246 67.8515 30.0144 67.8961 29.8518L71.2115 17.899C71.2771 17.6629 71.0987 17.4269 70.8521 17.4269H64.9715C64.7275 17.4269 64.5518 17.1987 64.6121 16.9626L65.1682 14.8092C65.2102 14.6439 65.3597 14.5311 65.5276 14.5311H71.862C72.0298 14.5311 72.1767 14.421 72.2213 14.2584L75.5367 2.30557C75.6023 2.0695 75.4239 1.83344 75.1774 1.83344H69.0423C68.8744 1.83344 68.7276 1.9436 68.683 2.10622L66.0915 11.4518C66.0469 11.6118 65.9 11.7246 65.7321 11.7246H59.5971C59.3505 11.7246 59.1721 11.4911 59.2377 11.2525L61.7164 2.31344C61.782 2.07737 61.6036 1.8413 61.3597 1.8413C61.3597 1.8413 61.3544 1.8413 61.3518 1.8413L55.1853 1.96196C55.02 1.96458 54.8784 2.07475 54.8338 2.23475L51.5551 14.0564C51.4895 14.2925 51.6679 14.5285 51.9144 14.5285L51.9118 14.5311Z" fill="white"/>
<path d="M19.5865 48.2203C19.3426 48.2203 19.1668 47.9921 19.2272 47.7561L19.7832 45.6026C19.8252 45.4374 19.9747 45.3246 20.1426 45.3246H26.477C26.6449 45.3246 26.7917 45.2144 26.8363 45.0518L29.3465 35.9974C29.4121 35.7613 29.2337 35.5252 28.9872 35.5252H26.1885C25.9419 35.5252 25.7636 35.2918 25.8291 35.0531L26.3721 33.0964C26.4376 32.8603 26.2593 32.6243 26.0127 32.6243H9.84749C9.67962 32.6243 9.53273 32.7344 9.48814 32.897L1.85011 60.4459C1.78453 60.682 1.96289 60.918 2.20945 60.918H18.3799C18.5478 60.918 18.6947 60.8079 18.7393 60.6453L19.3924 58.2925C19.437 58.1325 19.5839 58.0197 19.7517 58.0197H22.9622C23.1301 58.0197 23.277 57.9095 23.3216 57.7469L25.8317 48.6925C25.8973 48.4564 25.719 48.2203 25.4724 48.2203H19.5865ZM18.5767 49.8649L17.5458 53.6525C17.5013 53.8125 17.3544 53.9252 17.1865 53.9252H11.0514C10.8049 53.9252 10.6265 53.6918 10.6921 53.4531L11.7229 49.6656C11.7675 49.5056 11.9144 49.3928 12.0822 49.3928H18.2173C18.4639 49.3928 18.6422 49.6262 18.5767 49.8649ZM14.2173 42.5154C13.9708 42.5154 13.7924 42.282 13.858 42.0433L14.456 39.8898C14.5006 39.7298 14.6475 39.617 14.8154 39.617H20.9504C21.197 39.617 21.3754 39.8505 21.3098 40.0892L20.7117 42.2426C20.6672 42.4026 20.5203 42.5154 20.3524 42.5154H14.2173Z" fill="white"/>
<path d="M35.9878 32.6269C35.8226 32.6269 35.6757 32.7371 35.6311 32.8971L34.9675 35.2577C34.9229 35.4151 34.7786 35.5279 34.6134 35.5279L31.7176 35.5646C31.5524 35.5646 31.4081 35.6774 31.3636 35.8374L24.5386 60.4459C24.4731 60.682 24.6514 60.918 24.898 60.918H41.5144C41.6822 60.918 41.8291 60.8053 41.8737 60.6453L42.5216 58.2925C42.5662 58.1298 42.7131 58.0197 42.8809 58.0197H45.6508C45.8186 58.0197 45.9655 57.9095 46.0101 57.7469L52.8455 33.099C52.9111 32.863 52.7327 32.6269 52.4862 32.6269H35.9878ZM43.9931 40.0971L40.2344 53.6525C40.1898 53.8125 40.0429 53.9252 39.875 53.9252H33.7399C33.4934 53.9252 33.315 53.6918 33.3806 53.4531L37.1104 40.0026C37.155 39.8426 37.2967 39.7325 37.4619 39.7298L43.6258 39.6249C43.6258 39.6249 43.6311 39.6249 43.6337 39.6249C43.8776 39.6249 44.0586 39.8584 43.9904 40.0971H43.9931Z" fill="white"/>
<path d="M75.1722 32.6269H69.0371C68.8693 32.6269 68.7224 32.737 68.6778 32.8997L66.0863 42.2452C66.0417 42.4052 65.8948 42.518 65.727 42.518H59.5919C59.3453 42.518 59.167 42.2846 59.2325 42.0459L61.7112 33.1069C61.7768 32.8708 61.5984 32.6348 61.3545 32.6348C61.3545 32.6348 61.3493 32.6348 61.3466 32.6348L55.1801 32.7554C55.0148 32.758 54.8732 32.8682 54.8286 33.0282L51.5499 44.8498C51.4843 45.0859 51.6627 45.322 51.9092 45.322H57.845C58.0889 45.322 58.2647 45.5502 58.2043 45.7862L57.6483 47.9397C57.6063 48.1049 57.4568 48.2177 57.2889 48.2177H50.8968C50.7289 48.2177 50.582 48.3279 50.5374 48.4905L47.222 60.4433C47.1565 60.6793 47.3348 60.9154 47.5814 60.9154H53.7165C53.8843 60.9154 54.0312 60.8026 54.0758 60.6426L56.6673 51.297C56.7119 51.137 56.8588 51.0243 57.0266 51.0243H63.1617C63.4083 51.0243 63.5866 51.2577 63.5211 51.4964L61.0397 60.4433C60.9742 60.6793 61.1525 60.9154 61.3991 60.9154H67.5342C67.702 60.9154 67.8489 60.8026 67.8935 60.6426L71.2089 48.6898C71.2745 48.4538 71.0961 48.2177 70.8496 48.2177H64.9689C64.725 48.2177 64.5493 47.9895 64.6096 47.7534L65.1656 45.6C65.2076 45.4348 65.3571 45.322 65.525 45.322H71.8594C72.0273 45.322 72.1742 45.2118 72.2188 45.0492L75.5342 33.0964C75.5997 32.8603 75.4214 32.6243 75.1748 32.6243L75.1722 32.6269Z" fill="white"/>
<path d="M24.898 30.1246H41.5144C41.6822 30.1246 41.8291 30.0118 41.8737 29.8518L42.5216 27.499C42.5662 27.3364 42.7131 27.2262 42.8809 27.2262H45.6508C45.8186 27.2262 45.9655 27.1161 46.0101 26.9534L52.8403 2.30819C52.9058 2.07213 52.7275 1.83606 52.4809 1.83606H35.9878C35.8226 1.83606 35.6757 1.94623 35.6311 2.10623L34.9675 4.46688C34.9229 4.62426 34.7786 4.73705 34.6134 4.73705L31.7176 4.77377C31.5524 4.77377 31.4081 4.88655 31.3636 5.04655L24.5386 29.6551C24.4731 29.8911 24.6514 30.1272 24.898 30.1272V30.1246ZM33.3832 22.6623L37.1131 9.2118C37.1576 9.0518 37.2993 8.94164 37.4645 8.93901L43.6285 8.83409C43.6285 8.83409 43.6337 8.83409 43.6363 8.83409C43.8803 8.83409 44.0613 9.06754 43.9931 9.30623L40.2344 22.8616C40.1898 23.0216 40.0429 23.1344 39.875 23.1344H33.7399C33.4934 23.1344 33.315 22.901 33.3806 22.6623H33.3832Z" fill="white"/>
<path d="M2.20683 30.1246H18.3773C18.5452 30.1246 18.6921 30.0144 18.7367 29.8518L19.3898 27.499C19.4344 27.339 19.5813 27.2262 19.7491 27.2262H22.9596C23.1275 27.2262 23.2744 27.1161 23.319 26.9534L25.8291 17.899C25.8947 17.6629 25.7163 17.4269 25.4698 17.4269H19.5891C19.3452 17.4269 19.1695 17.1987 19.2298 16.9626L19.7858 14.8092C19.8278 14.6439 19.9773 14.5311 20.1452 14.5311H26.4796C26.6475 14.5311 26.7944 14.421 26.839 14.2584L29.3491 5.20393C29.4147 4.96786 29.2363 4.73179 28.9898 4.73179H26.1911C25.9445 4.73179 25.7662 4.49835 25.8317 4.25966L26.3747 2.30294C26.4403 2.06688 26.2619 1.83081 26.0154 1.83081H9.84749C9.67962 1.83081 9.53273 1.94097 9.48814 2.1036L1.85011 29.6551C1.78453 29.8911 1.96289 30.1272 2.20945 30.1272L2.20683 30.1246ZM13.858 11.2551L14.456 9.10163C14.5006 8.94163 14.6475 8.82884 14.8154 8.82884H20.9504C21.197 8.82884 21.3754 9.06229 21.3098 9.30097L20.7117 11.4544C20.6672 11.6144 20.5203 11.7272 20.3524 11.7272H14.2173C13.9708 11.7272 13.7924 11.4938 13.858 11.2551ZM10.6947 22.6649L11.7281 18.8826C11.7727 18.7226 11.9196 18.6098 12.0875 18.6098H18.2226C18.4691 18.6098 18.6475 18.8433 18.5819 19.082L17.5485 22.8643C17.5039 23.0243 17.357 23.137 17.1891 23.137H11.054C10.8075 23.137 10.6291 22.9036 10.6947 22.6649Z" fill="white"/>
</svg>
