<svg width="403" height="100" viewBox="0 0 403 100" fill="none" xmlns="http://www.w3.org/2000/svg">
<path d="M47.5011 99.9998C38.3834 99.9998 30.1971 98.2351 22.9422 94.7057C15.7853 91.1763 10.1481 86.2253 6.0304 79.8527C2.01078 73.4802 0.000976562 66.2743 0.000976562 58.2351C0.000976562 50.1959 2.01078 43.039 6.0304 36.7645C10.1481 30.3919 15.7853 25.441 22.9422 21.9116C30.1971 18.3821 38.3834 16.6174 47.5011 16.6174C57.305 16.6174 65.6874 18.7253 72.6481 22.941C79.6089 27.1567 84.4129 32.99 87.0599 40.441L61.3246 53.088C58.1873 46.0292 53.5305 42.4998 47.354 42.4998C43.4324 42.4998 40.1481 43.8723 37.501 46.6174C34.952 49.3625 33.6775 53.2351 33.6775 58.2351C33.6775 63.3331 34.952 67.2547 37.501 69.9998C40.1481 72.7449 43.4324 74.1174 47.354 74.1174C53.5305 74.1174 58.1873 70.588 61.3246 63.5292L87.0599 76.1763C84.4129 83.6272 79.6089 89.4606 72.6481 93.6763C65.6874 97.892 57.305 99.9998 47.5011 99.9998Z" fill="url(#paint0_linear_2044_52032)"/>
<path d="M108.341 26.7645C114.224 19.9998 122.9 16.6174 134.371 16.6174V46.0292C131.724 45.637 129.273 45.441 127.018 45.441C115.645 45.441 109.959 51.2253 109.959 62.7939V98.5292H76.7236V18.088H108.341V26.7645Z" fill="url(#paint1_linear_2044_52032)"/>
<path d="M209.815 58.2351C209.815 58.7253 209.668 61.3233 209.374 66.0292H153.491C154.668 69.0684 156.629 71.4214 159.374 73.088C162.119 74.6567 165.55 75.441 169.668 75.441C173.197 75.441 176.138 74.9998 178.491 74.1174C180.942 73.2351 183.589 71.7155 186.433 69.5586L203.786 87.0586C195.942 95.6861 184.227 99.9998 168.638 99.9998C158.933 99.9998 150.403 98.2351 143.05 94.7057C135.697 91.0782 130.011 86.0782 125.991 79.7057C121.972 73.3331 119.962 66.1763 119.962 58.2351C119.962 50.1959 121.923 43.039 125.844 36.7645C129.864 30.3919 135.305 25.441 142.168 21.9116C149.129 18.3821 156.923 16.6174 165.55 16.6174C173.687 16.6174 181.089 18.2351 187.756 21.4704C194.521 24.7057 199.864 29.4606 203.786 35.7351C207.805 42.0096 209.815 49.5096 209.815 58.2351ZM165.844 39.2645C162.413 39.2645 159.57 40.1959 157.315 42.0586C155.06 43.9214 153.589 46.5684 152.903 49.9998H178.786C178.099 46.6665 176.629 44.0684 174.374 42.2057C172.119 40.2449 169.276 39.2645 165.844 39.2645Z" fill="url(#paint2_linear_2044_52032)"/>
<path d="M230.226 16.6174C244.343 16.6174 255.128 19.8037 262.579 26.1763C270.03 32.4508 273.755 42.1566 273.755 55.2939V98.5292H242.873V87.941C239.049 95.9802 231.451 99.9998 220.079 99.9998C213.706 99.9998 208.265 98.9214 203.755 96.7645C199.343 94.5096 195.961 91.5194 193.608 87.7939C191.353 83.9704 190.226 79.7057 190.226 74.9998C190.226 67.0586 193.265 61.0292 199.343 56.9116C205.422 52.7939 214.637 50.7351 226.99 50.7351H240.373C239.294 44.4606 234.245 41.3233 225.226 41.3233C221.598 41.3233 217.922 41.9116 214.196 43.088C210.471 44.1665 207.284 45.6861 204.637 47.6468L194.049 25.7351C198.657 22.8919 204.196 20.6861 210.667 19.1174C217.235 17.4508 223.755 16.6174 230.226 16.6174ZM230.079 79.9998C232.432 79.9998 234.539 79.3625 236.402 78.088C238.265 76.8135 239.637 74.9017 240.52 72.3527V66.7645H232.284C225.52 66.7645 222.137 69.0194 222.137 73.5292C222.137 75.3919 222.824 76.9606 224.196 78.2351C225.667 79.4116 227.628 79.9998 230.079 79.9998Z" fill="url(#paint3_linear_2044_52032)"/>
<path d="M328.188 95.7353C323.188 98.5784 316.374 100 307.747 100C296.472 100 287.796 97.3039 281.717 91.9118C275.639 86.4216 272.6 78.2353 272.6 67.3529V46.7647H261.57V22.5H272.6V0H305.835V22.5H322.306V46.7647H305.835V67.0588C305.835 69.5098 306.472 71.4216 307.747 72.7941C309.021 74.1667 310.688 74.8529 312.747 74.8529C315.59 74.8529 318.09 74.1176 320.247 72.6471L328.188 95.7353Z" fill="url(#paint4_linear_2044_52032)"/>
<path d="M402.23 58.2351C402.23 58.7253 402.083 61.3233 401.789 66.0292H345.906C347.083 69.0684 349.044 71.4214 351.789 73.088C354.534 74.6567 357.965 75.441 362.083 75.441C365.612 75.441 368.554 74.9998 370.906 74.1174C373.357 73.2351 376.005 71.7155 378.848 69.5586L396.201 87.0586C388.357 95.6861 376.642 99.9998 361.054 99.9998C351.348 99.9998 342.818 98.2351 335.465 94.7057C328.112 91.0782 322.426 86.0782 318.406 79.7057C314.387 73.3331 312.377 66.1763 312.377 58.2351C312.377 50.1959 314.338 43.039 318.259 36.7645C322.279 30.3919 327.72 25.441 334.583 21.9116C341.544 18.3821 349.338 16.6174 357.965 16.6174C366.103 16.6174 373.505 18.2351 380.171 21.4704C386.936 24.7057 392.279 29.4606 396.201 35.7351C400.22 42.0096 402.23 49.5096 402.23 58.2351ZM358.259 39.2645C354.828 39.2645 351.985 40.1959 349.73 42.0586C347.475 43.9214 346.004 46.5684 345.318 49.9998H371.201C370.514 46.6665 369.044 44.0684 366.789 42.2057C364.534 40.2449 361.691 39.2645 358.259 39.2645Z" fill="url(#paint5_linear_2044_52032)"/>
<defs>
<linearGradient id="paint0_linear_2044_52032" x1="56.2034" y1="58.5333" x2="76.2015" y2="58.5333" gradientUnits="userSpaceOnUse">
<stop stop-color="white"/>
<stop offset="1" stop-color="#FF6A6A"/>
</linearGradient>
<linearGradient id="paint1_linear_2044_52032" x1="113.939" y1="57.794" x2="127.181" y2="57.794" gradientUnits="userSpaceOnUse">
<stop stop-color="white"/>
<stop offset="1" stop-color="#FF6A6A"/>
</linearGradient>
<linearGradient id="paint2_linear_2044_52032" x1="177.968" y1="58.5333" x2="198.608" y2="58.5333" gradientUnits="userSpaceOnUse">
<stop stop-color="white"/>
<stop offset="1" stop-color="#FF6A6A"/>
</linearGradient>
<linearGradient id="paint3_linear_2044_52032" x1="244.15" y1="58.5333" x2="263.337" y2="58.5333" gradientUnits="userSpaceOnUse">
<stop stop-color="white"/>
<stop offset="1" stop-color="#FF6A6A"/>
</linearGradient>
<linearGradient id="paint4_linear_2044_52032" x1="304.577" y1="50.2694" x2="319.879" y2="50.2694" gradientUnits="userSpaceOnUse">
<stop stop-color="white"/>
<stop offset="1" stop-color="#FF6A6A"/>
</linearGradient>
<linearGradient id="paint5_linear_2044_52032" x1="370.383" y1="58.5333" x2="391.023" y2="58.5333" gradientUnits="userSpaceOnUse">
<stop stop-color="white"/>
<stop offset="1" stop-color="#FBC8C8"/>
</linearGradient>
</defs>
</svg>
