<svg width="111" height="40" viewBox="0 0 111 40" fill="none" xmlns="http://www.w3.org/2000/svg">
<path fill-rule="evenodd" clip-rule="evenodd" d="M45.7696 9.23075H26.1543V0H45.7696C52.7794 0 58.4619 5.68253 58.4619 12.6923C58.4619 19.0526 53.7836 24.3202 47.6804 25.2417L55.0351 34.8948L58.2869 39.9999H47.5176L36.1978 25.3846H30.7696V16.1538H45.7696C47.6814 16.1538 49.2311 14.604 49.2311 12.6923C49.2311 10.7805 47.6814 9.23075 45.7696 9.23075ZM22.7731 1.12433e-05L23.0769 2.22473e-05V9.23077C18.595 9.23077 15.6979 9.24057 13.5632 9.52757C11.5614 9.79671 10.9339 10.2312 10.5826 10.5826C10.2312 10.9339 9.79671 11.5614 9.52757 13.5632C9.42596 14.319 9.35909 15.1704 9.31511 16.1538H20V25.3846H9.23077V39.9999H2.22397e-05V25.3846H0V22.4734V22.4731V16.1538H0.0774888C0.131586 14.7683 0.223388 13.4917 0.379132 12.3333C0.785893 9.30781 1.70318 6.40774 4.05546 4.05546C6.40774 1.70318 9.30781 0.785893 12.3333 0.379132C15.1563 -0.000416445 18.6816 -0.000218372 22.7731 1.12433e-05ZM84.6152 1.00526e-05L81.34 4.91745e-06C78.6336 -9.70526e-05 76.2992 -0.000184998 74.3835 0.173436C72.3578 0.357035 70.3519 0.763537 68.4614 1.85504C66.3565 3.07029 64.6086 4.8182 63.3934 6.92307C62.3019 8.81361 61.8954 10.8195 61.7118 12.8452C61.5382 14.7608 61.5382 17.0952 61.5383 19.8015V19.8016V20.1983V20.1984C61.5382 22.9047 61.5382 25.2391 61.7118 27.1547C61.8954 29.1805 62.3019 31.1863 63.3934 33.0769C64.6086 35.1817 66.3565 36.9296 68.4614 38.1449C70.3519 39.2364 72.3578 39.6429 74.3835 39.8265C76.2992 40.0001 78.6336 40 81.34 39.9999L84.6152 39.9999V30.7692H81.5383C78.5776 30.7692 76.6657 30.7648 75.2167 30.6334C73.8312 30.5079 73.3282 30.296 73.0768 30.1508C72.3752 29.7457 71.7925 29.1631 71.3874 28.4615C71.2422 28.21 71.0304 27.707 70.9048 26.3215C70.8591 25.8171 70.8288 25.2565 70.8087 24.6151H84.6158V15.3844H70.8087C70.8288 14.7432 70.8591 14.1828 70.9048 13.6784C71.0304 12.2929 71.2422 11.7899 71.3874 11.5384C71.7925 10.8368 72.3752 10.2542 73.0768 9.8491C73.3282 9.70392 73.8312 9.49208 75.2167 9.3665C76.6657 9.23518 78.5776 9.23076 81.5383 9.23076H84.6152V1.00526e-05ZM107.494 4.91747e-06L110.769 1.00526e-05V9.23076H107.692C104.731 9.23076 102.819 9.23518 101.37 9.3665C99.9848 9.49208 99.4818 9.70392 99.2303 9.8491C98.5287 10.2542 97.946 10.8368 97.541 11.5384C97.3958 11.7899 97.1839 12.2929 97.0583 13.6784C97.0126 14.1828 96.9823 14.7433 96.9622 15.3846H110.769V24.6153H96.9622C96.9823 25.2566 97.0126 25.8171 97.0583 26.3215C97.1839 27.707 97.3958 28.21 97.541 28.4615C97.946 29.1631 98.5287 29.7457 99.2303 30.1508C99.4818 30.296 99.9848 30.5079 101.37 30.6334C102.819 30.7648 104.731 30.7692 107.692 30.7692H110.769V39.9999L107.493 39.9999C104.787 40 102.453 40.0001 100.537 39.8265C98.5113 39.6429 96.5055 39.2364 94.6149 38.1449C92.51 36.9296 90.7621 35.1817 89.5469 33.0769C88.4554 31.1863 88.0489 29.1805 87.8653 27.1547C87.6917 25.2391 87.6917 22.9047 87.6919 20.1983V19.8017C87.6917 17.0953 87.6917 14.7609 87.8653 12.8452C88.0489 10.8195 88.4554 8.81361 89.5469 6.92307C90.7621 4.8182 92.51 3.07029 94.6149 1.85504C96.5055 0.763537 98.5113 0.357035 100.537 0.173436C102.453 -0.000184998 104.787 -9.70526e-05 107.494 4.91747e-06Z" fill="url(#paint0_linear_4282_66321)"/>
<defs>
<linearGradient id="paint0_linear_4282_66321" x1="97.4304" y1="20" x2="17.8301" y2="14.3624" gradientUnits="userSpaceOnUse">
<stop stop-color="#ECF44A"/>
<stop offset="1" stop-color="#92DA50"/>
</linearGradient>
</defs>
</svg>
