<svg width="100" height="24" viewBox="0 0 100 24" fill="none" xmlns="http://www.w3.org/2000/svg">
<path fill-rule="evenodd" clip-rule="evenodd" d="M26.8369 2.43887H29.3621C29.3765 2.49643 29.3885 2.56597 29.3981 2.64751C29.4077 2.72904 29.4125 2.81058 29.4125 2.89211C29.4125 3.22305 29.3621 3.5348 29.2614 3.82737C29.1606 4.11994 29.0024 4.38133 28.7865 4.61155C28.5563 4.85616 28.2805 5.04561 27.9592 5.1799C27.6379 5.3142 27.2709 5.38134 26.8585 5.38134C26.4844 5.38134 26.1318 5.3142 25.8009 5.1799C25.47 5.04561 25.1822 4.85856 24.9376 4.61875C24.693 4.37894 24.4987 4.09596 24.3549 3.76982C24.211 3.43888 24.139 3.07916 24.139 2.69067C24.139 2.30218 24.211 1.94486 24.3549 1.61872C24.4987 1.28778 24.693 1.00241 24.9376 0.762597C25.1822 0.522787 25.47 0.335735 25.8009 0.201441C26.1318 0.067147 26.4844 0 26.8585 0C27.2757 0 27.6474 0.0719431 27.9736 0.215829C28.3045 0.359715 28.5875 0.558758 28.8225 0.812957L28.1534 1.46764C27.9856 1.29018 27.7985 1.15589 27.5923 1.06476C27.3861 0.968834 27.139 0.920872 26.8513 0.920872C26.6163 0.920872 26.3932 0.964037 26.1822 1.05037C25.9712 1.1319 25.7865 1.24941 25.6282 1.40289C25.47 1.55637 25.3429 1.74342 25.2469 1.96405C25.1558 2.17988 25.1103 2.42208 25.1103 2.69067C25.1103 2.95926 25.1558 3.20387 25.2469 3.42449C25.3429 3.64032 25.47 3.82497 25.6282 3.97845C25.7913 4.13193 25.9784 4.25184 26.1894 4.33817C26.4004 4.4197 26.6259 4.46047 26.8657 4.46047C27.139 4.46047 27.3693 4.4221 27.5563 4.34536C27.7482 4.26383 27.9112 4.16071 28.0455 4.03601C28.1415 3.94968 28.223 3.84176 28.2901 3.71226C28.3621 3.57797 28.4172 3.42929 28.4556 3.26622H26.8369V2.43887ZM31.1864 1.03598V2.23024H33.2511V3.15111H31.1864V4.34536H33.4813V5.26623H30.2151V0.115109H33.4813V1.03598H31.1864ZM35.4679 1.03598V5.26623H36.4391V1.03598H37.878V0.115109H34.029V1.03598H35.4679ZM40.1494 0.115109H41.1207V5.26623H40.1494V0.115109ZM43.2523 1.03598V5.26623H44.2236V1.03598H45.6624V0.115109H41.8135V1.03598H43.2523ZM50.2323 5.38134C49.8486 5.38134 49.4913 5.3118 49.1603 5.17271C48.8342 5.03362 48.5512 4.84417 48.3114 4.60436C48.0716 4.35975 47.8821 4.07438 47.743 3.74824C47.6088 3.4173 47.5416 3.06478 47.5416 2.69067C47.5416 2.31657 47.6088 1.96644 47.743 1.6403C47.8821 1.30936 48.0716 1.02399 48.3114 0.78418C48.5512 0.539573 48.8342 0.347725 49.1603 0.208635C49.4913 0.0695451 49.8486 0 50.2323 0C50.616 0 50.9709 0.0695451 51.297 0.208635C51.628 0.347725 51.9133 0.539573 52.1532 0.78418C52.393 1.02399 52.58 1.30936 52.7143 1.6403C52.8534 1.96644 52.9229 2.31657 52.9229 2.69067C52.9229 3.06478 52.8534 3.4173 52.7143 3.74824C52.58 4.07438 52.393 4.35975 52.1532 4.60436C51.9133 4.84417 51.628 5.03362 51.297 5.17271C50.9709 5.3118 50.616 5.38134 50.2323 5.38134ZM50.2323 4.46047C50.4721 4.46047 50.6951 4.41731 50.9013 4.33097C51.1124 4.24464 51.2946 4.12474 51.4481 3.97126C51.6064 3.81778 51.7287 3.63313 51.815 3.4173C51.9062 3.19667 51.9517 2.95446 51.9517 2.69067C51.9517 2.42688 51.9062 2.18707 51.815 1.97124C51.7287 1.75062 51.6064 1.56356 51.4481 1.41008C51.2946 1.25661 51.1124 1.1367 50.9013 1.05037C50.6951 0.964037 50.4721 0.920872 50.2323 0.920872C49.9925 0.920872 49.767 0.964037 49.556 1.05037C49.3498 1.1367 49.1675 1.25661 49.0092 1.41008C48.8558 1.56356 48.7335 1.75062 48.6423 1.97124C48.556 2.18707 48.5128 2.42688 48.5128 2.69067C48.5128 2.95446 48.556 3.19667 48.6423 3.4173C48.7335 3.63313 48.8558 3.81778 49.0092 3.97126C49.1675 4.12474 49.3498 4.24464 49.556 4.33097C49.767 4.41731 49.9925 4.46047 50.2323 4.46047ZM54.8385 0.115109H53.709V5.26623H54.6659V2.61153L54.6083 1.61872H54.6659L56.853 5.26623H57.8745V0.115109H56.9105V2.57556L56.9681 3.56838H56.9105L54.8385 0.115109ZM0.819824 7.36526V12.5613H0.824476V14.7197C0.824476 15.2856 0.823442 15.8516 0.822409 16.4176C0.820341 17.5495 0.818274 18.6814 0.824476 19.8133L0.824483 19.8146C0.829132 20.6375 0.833808 21.4651 0.8896 22.2834C0.917511 22.6974 1.09893 23.0835 1.45711 23.3394C2.01532 23.7394 3.10848 23.5208 3.57366 22.944C4.99244 21.1856 6.41588 19.4319 7.83931 17.6782L11.5933 13.059C11.6302 13.0141 11.6751 12.9684 11.7204 12.9224C11.8346 12.8061 11.9515 12.6872 11.9515 12.5706C11.9515 12.4526 11.8384 12.337 11.7261 12.2221C11.6789 12.1738 11.6318 12.1256 11.5933 12.0775C10.235 10.3982 8.87665 8.71891 7.51369 7.03963C6.9186 6.30739 6.32351 5.57632 5.72842 4.84524L5.72752 4.84413L5.72707 4.84358L5.72672 4.84315C5.13153 4.11195 4.53634 3.38075 3.94115 2.64838C3.89098 2.58665 3.84296 2.521 3.7948 2.45517L3.7948 2.45517L3.7948 2.45517L3.79479 2.45516L3.79479 2.45515C3.66878 2.28292 3.5419 2.10949 3.37363 2.00179C3.08522 1.81107 2.73634 1.68082 2.39677 1.60639C1.74087 1.46219 1.26174 1.74595 1.01985 2.37858C0.926814 2.62978 0.838431 2.90423 0.838431 3.16938C0.819824 4.56956 0.819824 5.96973 0.819824 7.36526ZM16.2948 15.9319L16.2963 15.9337H16.2917L16.2948 15.9319ZM16.2948 15.9319L15.9693 15.5316C15.1674 14.5454 14.3673 13.5616 13.5564 12.5705C13.989 12.0355 14.417 11.5052 14.845 10.9749C14.9531 10.8424 15.0616 10.7101 15.17 10.5778C15.4954 10.1809 15.8207 9.78409 16.1382 9.3794C16.2544 9.23054 16.3428 9.20263 16.5103 9.30032C16.8999 9.53047 17.2924 9.7578 17.6852 9.98534L17.6853 9.98541L17.6854 9.98548L17.6855 9.98549C18.3008 10.3419 18.9171 10.6989 19.5246 11.068C19.7944 11.2308 20.0456 11.4541 20.241 11.7053C20.7108 12.296 20.6317 13.0031 20.1107 13.5613C19.7833 13.9092 19.3803 14.1383 18.9745 14.3689C18.9191 14.4004 18.8636 14.4319 18.8083 14.4638C17.9766 14.9516 17.1496 15.4348 16.2948 15.9319ZM13.6725 7.95452L13.6786 7.95809L15.0775 8.76987L12.5191 11.9191C11.6716 10.8764 10.8259 9.83556 9.98114 8.79584L9.97157 8.78406C8.46405 6.9286 6.95951 5.07679 5.45306 3.22499L5.48562 3.19708V3.20173C8.20498 4.78174 10.9277 6.36175 13.6654 7.95044L13.6725 7.95452ZM8.74576 17.8449L8.74369 17.8475L8.73737 17.8553C7.63965 19.205 6.5434 20.553 5.44817 21.902V21.9066L5.48074 21.9345L15.0633 16.3478L12.5142 13.2079C11.2556 14.7588 9.99973 16.303 8.74576 17.8449ZM48.0834 13.1295C46.0063 13.1295 44.3092 14.7089 44.3092 16.8794C44.3092 19.05 46.0063 20.6294 48.0834 20.6294C50.1605 20.6294 51.8576 19.0412 51.8576 16.8794C51.8576 14.7177 50.1605 13.1295 48.0834 13.1295ZM48.0834 19.1559C46.9432 19.1559 45.9621 18.2206 45.9621 16.8794C45.9621 15.5383 46.9432 14.603 48.0834 14.603C49.2236 14.603 50.2047 15.5294 50.2047 16.8794C50.2047 18.2294 49.2236 19.1559 48.0834 19.1559ZM39.8545 13.1295C37.7773 13.1295 36.0803 14.7089 36.0803 16.8794C36.0803 19.05 37.7773 20.6294 39.8545 20.6294C41.9316 20.6294 43.6286 19.0412 43.6286 16.8794C43.6286 14.7177 41.9316 13.1295 39.8545 13.1295ZM39.8545 19.1559C38.7142 19.1559 37.7331 18.2206 37.7331 16.8794C37.7331 15.5383 38.7142 14.603 39.8545 14.603C40.9947 14.603 41.9758 15.5294 41.9758 16.8794C41.9758 18.2294 40.9947 19.1559 39.8545 19.1559ZM30.061 14.2853V15.8647H33.8794C33.7645 16.7647 33.464 17.4177 33.0132 17.8677C32.4564 18.4236 31.5902 19.0324 30.0699 19.0324C27.7187 19.0324 25.8803 17.1441 25.8803 14.7971C25.8803 12.45 27.7187 10.5618 30.0699 10.5618C31.3338 10.5618 32.2619 11.0559 32.9425 11.7L34.065 10.5795C33.1104 9.67064 31.8465 8.97358 30.061 8.97358C26.8437 8.97358 24.139 11.5853 24.139 14.8059C24.139 18.0265 26.8437 20.6383 30.061 20.6383C31.8023 20.6383 33.1104 20.0735 34.1357 19.0059C35.1876 17.9559 35.5146 16.4736 35.5146 15.2824C35.5146 14.9118 35.4881 14.5677 35.4262 14.2853H30.061ZM70.1098 15.5118C69.8004 14.6736 68.8458 13.1206 66.8924 13.1206C64.939 13.1206 63.3481 14.6383 63.3481 16.8706C63.3481 18.9706 64.939 20.6206 67.078 20.6206C68.8016 20.6206 69.8004 19.5706 70.207 18.9618L68.9254 18.1059C68.5011 18.7324 67.9177 19.1471 67.078 19.1471C66.2383 19.1471 65.6373 18.7588 65.2572 18.0088L70.2865 15.9353L70.1186 15.5118H70.1098ZM64.9832 16.7647C64.939 15.3177 66.1058 14.5765 66.9455 14.5765C67.5995 14.5765 68.1564 14.903 68.342 15.3706L64.9832 16.7647ZM60.8997 20.4H62.5526V9.37064H60.8997V20.4ZM58.195 13.9589H58.142C57.7708 13.5177 57.0637 13.1206 56.1621 13.1206C54.2794 13.1206 52.5559 14.7706 52.5559 16.8883C52.5559 19.0059 54.2794 20.6294 56.1621 20.6294C57.0637 20.6294 57.7708 20.2324 58.142 19.7736H58.195V20.3118C58.195 21.75 57.426 22.5177 56.1886 22.5177C55.181 22.5177 54.5534 21.7941 54.2971 21.1853L52.8564 21.7853C53.2718 22.7824 54.3678 24 56.1886 24C58.1243 24 59.7595 22.8618 59.7595 20.0912V13.35H58.195V13.9589ZM56.3035 19.1471C55.1633 19.1471 54.2087 18.1941 54.2087 16.8883C54.2087 15.5824 55.1633 14.603 56.3035 14.603C57.4437 14.603 58.3099 15.5736 58.3099 16.8883C58.3099 18.203 57.426 19.1471 56.3035 19.1471ZM77.8526 9.37064H73.9016V20.4H75.5545V16.2177H77.8614C79.691 16.2177 81.4853 14.8942 81.4853 12.7942C81.4853 10.6942 79.691 9.37064 77.8614 9.37064H77.8526ZM77.8968 14.6912H75.5545V10.9059H77.8968C79.1342 10.9059 79.8325 11.9295 79.8325 12.7942C79.8325 13.6589 79.1342 14.6824 77.8968 14.6824V14.6912ZM88.0795 13.103C86.8889 13.1055 85.656 13.6351 85.1446 14.7883L86.6118 15.3971C86.9212 14.7883 87.5046 14.5853 88.1144 14.5853C88.963 14.5853 89.838 15.0971 89.8469 16.0059V16.1206C89.5463 15.953 88.9099 15.6971 88.1233 15.6971C86.5411 15.6971 84.9413 16.5618 84.9413 18.1765C84.9413 19.65 86.2318 20.603 87.6813 20.603C88.7862 20.603 89.4049 20.1088 89.785 19.5265H89.838V20.3824H91.429V16.1559C91.429 14.2003 89.9666 13.1066 88.0795 13.103ZM88.0795 13.103L88.0703 13.103H88.0879L88.0795 13.103ZM87.8846 19.1471C87.3455 19.1471 86.5942 18.8736 86.5942 18.2118C86.5942 17.3647 87.5311 17.0383 88.3443 17.0383C89.069 17.0383 89.4138 17.1971 89.8469 17.4088C89.7231 18.4324 88.8392 19.1559 87.8846 19.1559V19.1471ZM97.2361 13.3412L95.3446 18.1236H95.2916L93.3294 13.3412H91.5527L94.4961 20.0294L92.8167 23.7441H94.5403L99.0746 13.3412H97.245H97.2361ZM82.378 20.4H84.0309V9.37064H82.378V20.4Z" fill="white"/>
</svg>
