<svg width="178" height="24" viewBox="0 0 178 24" fill="none" xmlns="http://www.w3.org/2000/svg">
<path d="M9.0294 12.6434C9.99134 12.6434 10.608 12.5131 10.8793 12.2526C11.1506 11.9859 11.2863 11.4835 11.2863 10.7455V3.40506C11.2863 2.93368 11.2308 2.59876 11.1198 2.40029C11.0149 2.20181 10.8176 2.10258 10.5278 2.10258C10.3737 2.10258 10.1362 2.1553 9.8156 2.26073C9.61212 2.32276 9.33463 2.42199 8.98315 2.55844V2.07467L13.7651 0H14.0981V10.8571C14.0981 11.5518 14.2091 12.0231 14.4311 12.2712C14.6531 12.5193 15.2203 12.6434 16.133 12.6434V13.0992H9.0294V12.6434Z" fill="white"/>
<path d="M2.44294 0.458008C1.03293 1.92079 0.846855 3.07456 1.24812 4.50825C1.87136 3.91014 2.39358 2.18517 2.44294 0.458008Z" fill="white"/>
<path d="M3.42706 10.8726C3.08863 11.2332 2.57976 12.6849 3.71176 13.8677C4.06147 13.0164 4.13995 11.7082 3.42706 10.8726Z" fill="white"/>
<path d="M5.27195 15.5186C5.54099 14.7615 5.43558 13.4375 4.52327 12.5639C3.87091 13.6951 4.55906 14.9877 5.27195 15.5186Z" fill="white"/>
<path d="M3.86861 17.9223L4.31027 19.0604L5.52972 19.1275L4.58369 19.8981L4.89531 21.0787L3.86861 20.4179L2.84421 21.0787L3.15583 19.8981L2.2098 19.1275L3.42925 19.0604L3.86861 17.9223Z" fill="white"/>
<path d="M21.6361 19.0604L21.1967 17.9223L20.7551 19.0604L19.5356 19.1275L20.4816 19.8981L20.17 21.0787L21.1967 20.4179L22.2211 21.0787L21.9095 19.8981L22.8555 19.1275L21.6361 19.0604Z" fill="white"/>
<path d="M7.65032 19.5061L8.09197 20.6441L9.31142 20.7113L8.36539 21.4819L8.67702 22.6625L7.65032 21.9994L6.62362 22.6625L6.93754 21.4819L5.99151 20.7113L7.20877 20.6441L7.65032 19.5061Z" fill="white"/>
<path d="M17.415 19.5061L17.8544 20.6441L19.0738 20.7113L18.1278 21.4819L18.4394 22.6625L17.415 21.9994L16.3883 22.6625L16.6999 21.4819L15.7539 20.7113L16.9734 20.6441L17.415 19.5061Z" fill="white"/>
<path d="M13.1244 21.2871L12.5327 19.7593L11.9409 21.2871L10.3022 21.379L11.5732 22.4139L11.154 24L12.5327 23.1106L13.9113 24L13.4921 22.4139L14.7631 21.379L13.1244 21.2871Z" fill="white"/>
<path d="M2.62453 9.11404C1.86458 9.56656 1.94984 11.016 2.39818 11.7708C2.90693 11.0675 3.27689 10.1938 2.62453 9.11404Z" fill="white"/>
<path d="M2.48333 7.35319C2.02373 7.51005 1.17862 8.40382 1.56204 9.69191C2.14708 9.21927 2.851 8.22016 2.48333 7.35319Z" fill="white"/>
<path d="M2.44973 5.3774C2.11118 5.47377 1.14053 6.27566 1.31544 7.70716C1.95203 7.34422 2.71418 6.65883 2.44973 5.3774Z" fill="white"/>
<path d="M1.28851 5.8098C1.88932 5.53426 2.79047 4.38278 2.62453 3.44417C2.01935 3.62563 1.25261 4.74342 1.28851 5.8098Z" fill="white"/>
<path d="M5.41315 15.7561C4.50521 14.9004 3.0571 14.58 2.37344 14.86C3.30152 16.4349 4.76757 16.1437 5.41315 15.7561Z" fill="white"/>
<path d="M7.10566 16.7866C7.18852 15.9936 6.87022 14.636 5.93547 14.3806C5.70911 14.8152 5.66643 16.0451 7.10566 16.7866Z" fill="white"/>
<path d="M7.42845 17.0419C6.77609 16.7104 5.21142 16.2557 4.21613 16.7574C5.59703 18.0231 7.09439 17.3354 7.42845 17.0419Z" fill="white"/>
<path d="M9.11178 17.667C9.04238 16.8627 8.61638 15.8144 7.44848 15.5635C7.32075 16.0004 7.48438 17.1921 9.11178 17.667Z" fill="white"/>
<path d="M9.43916 17.8618C8.71511 17.6603 6.738 17.4205 5.87943 18.115C7.58081 19.3113 9.17023 18.2045 9.43916 17.8618Z" fill="white"/>
<path d="M11.5598 18.1979C11.3512 17.1652 10.2909 16.7037 9.4593 16.5111C9.3875 17.5371 10.4344 18.1151 11.5598 18.1979Z" fill="white"/>
<path d="M8.57391 18.7893C10.6945 19.6137 11.5508 18.8319 11.5576 18.3391C10.8066 18.2763 9.00878 18.1688 8.57391 18.7893Z" fill="white"/>
<path d="M1.17643 12.5147C1.10473 14.1672 2.71615 14.1795 3.6219 14.1864C3.6787 14.1868 3.73278 14.1872 3.78345 14.188C3.51452 13.8184 2.01935 12.481 1.17643 12.5147Z" fill="white"/>
<path d="M0.216935 10.0818C0.158595 11.5133 1.34893 12.2323 2.49439 12.2099C2.14927 11.5177 1.22787 10.2072 0.216935 10.0818Z" fill="white"/>
<path d="M1.55077 10.0347L1.52242 9.92337C1.36316 9.29409 1.10977 8.29268 0.16768 7.79236C-0.208958 9.07827 0.89622 9.95192 1.55077 10.0347Z" fill="white"/>
<path d="M1.24144 8.00293C1.18989 7.33307 0.766186 6.00023 0.127291 5.79186C-0.388247 7.36446 0.799789 7.87747 1.24144 8.00293Z" fill="white"/>
<path d="M1.1831 6.29141C1.23236 5.67985 1.29519 4.25284 0.479192 3.41277C-0.0991738 5.33934 0.866995 6.13455 1.1831 6.29141Z" fill="white"/>
<path d="M19.7934 15.5186C19.5243 14.7615 19.6297 13.4375 20.5421 12.5639C21.1944 13.6951 20.5063 14.9877 19.7934 15.5186Z" fill="white"/>
<path d="M21.6384 10.8726C21.9768 11.2332 22.4857 12.6849 21.3537 13.8677C21.004 13.0164 20.9255 11.7082 21.6384 10.8726Z" fill="white"/>
<path d="M22.6224 0.458008C24.0324 1.92079 24.2185 3.07456 23.8172 4.50825C23.194 3.90784 22.6694 2.18298 22.6224 0.458008Z" fill="white"/>
<path d="M22.4408 9.11404C23.2007 9.56656 23.1156 11.016 22.6673 11.7708C22.1584 11.0675 21.7885 10.1938 22.4408 9.11404Z" fill="white"/>
<path d="M22.5821 7.35319C23.0416 7.51005 23.8867 8.40382 23.5034 9.69191C22.9183 9.21927 22.2144 8.22016 22.5821 7.35319Z" fill="white"/>
<path d="M22.6156 5.3774C22.9541 5.47377 23.9248 6.27566 23.7499 7.70716C23.1133 7.34422 22.3511 6.65883 22.6156 5.3774Z" fill="white"/>
<path d="M23.7768 5.8098C23.176 5.53426 22.275 4.38278 22.4408 3.44417C23.0461 3.62563 23.8127 4.74342 23.7768 5.8098Z" fill="white"/>
<path d="M19.6522 15.7561C20.56 14.9004 22.0081 14.58 22.6919 14.86C21.7638 16.4349 20.2978 16.1437 19.6522 15.7561Z" fill="white"/>
<path d="M17.9597 16.7866C17.8768 15.9936 18.1951 14.636 19.1299 14.3806C19.3562 14.8152 19.3989 16.0451 17.9597 16.7866Z" fill="white"/>
<path d="M17.637 17.0419C18.2893 16.7104 19.854 16.2557 20.8493 16.7574C19.4684 18.0231 17.971 17.3354 17.637 17.0419Z" fill="white"/>
<path d="M15.9534 17.667C16.0229 16.8627 16.4488 15.8144 17.6167 15.5635C17.7446 16.0004 17.5808 17.1921 15.9534 17.667Z" fill="white"/>
<path d="M15.6262 17.8618C16.3502 17.6603 18.3273 17.4205 19.1859 18.115C17.4845 19.3113 15.8952 18.2045 15.6262 17.8618Z" fill="white"/>
<path d="M13.5056 18.1979C13.7141 17.1652 14.7744 16.7037 15.606 16.5111C15.6777 17.5371 14.6309 18.1151 13.5056 18.1979Z" fill="white"/>
<path d="M16.4914 18.7893C14.3708 19.6137 13.5144 18.8319 13.5078 18.3391C14.2587 18.2763 16.0565 18.1688 16.4914 18.7893Z" fill="white"/>
<path d="M21.4434 14.1864C22.3493 14.1795 23.9607 14.1672 23.8889 12.5147C23.0461 12.481 21.5509 13.8184 21.2819 14.188C21.3325 14.1872 21.3866 14.1868 21.4434 14.1864Z" fill="white"/>
<path d="M24.8484 10.0818C24.9066 11.5133 23.7163 12.2323 22.5708 12.2099C22.9161 11.5177 23.8373 10.2072 24.8484 10.0818Z" fill="white"/>
<path d="M23.5146 10.0347C23.6737 9.41867 23.8979 8.32331 24.8976 7.79236C25.2743 9.07827 24.1691 9.95192 23.5146 10.0347Z" fill="white"/>
<path d="M23.8239 8.00293C23.8754 7.33307 24.2991 6.00023 24.938 5.79186C25.4536 7.36446 24.2655 7.87747 23.8239 8.00293Z" fill="white"/>
<path d="M23.8822 6.29141C23.8329 5.67985 23.7701 4.25284 24.586 3.41277C25.1644 5.33934 24.1982 6.13455 23.8822 6.29141Z" fill="white"/>
<path d="M41.3206 8.81826H43.1046V10.3131H41.1421L40.8677 12.5074H39.3169L39.5914 10.3131H37.5741L37.2996 12.5074H35.7626L36.037 10.3131H34.2393V8.81826H36.2154L36.5036 6.59655H34.7059V5.10169H36.682L36.9565 2.90741H38.4935L38.2191 5.10169H40.2364L40.5109 2.90741H42.0479L41.7734 5.10169H43.5575L43.5712 6.59655H41.595L41.3206 8.81826ZM39.7698 8.81826L40.058 6.59655H38.0406L37.7525 8.81826H39.7698Z" fill="white"/>
<path d="M48.0825 2.90741V12.5074H45.8593V4.69026H43.938V2.90741H48.0825Z" fill="white"/>
<path d="M57.0686 5.01941C58.2122 5.01941 59.0905 5.29369 59.7035 5.84226C60.3165 6.38169 60.623 7.19998 60.623 8.29712V12.5074H58.6194V11.5885C58.2168 12.2743 57.4666 12.6171 56.3687 12.6171C55.8015 12.6171 55.3074 12.5211 54.8866 12.3291C54.4749 12.1371 54.1593 11.872 53.9397 11.5337C53.7201 11.1954 53.6103 10.8114 53.6103 10.3817C53.6103 9.69598 53.8665 9.15655 54.3788 8.76341C54.9003 8.37026 55.7008 8.17369 56.7804 8.17369H58.4821C58.4821 7.70741 58.3403 7.35084 58.0567 7.10398C57.7731 6.84798 57.3477 6.71998 56.7804 6.71998C56.387 6.71998 55.9982 6.78398 55.6139 6.91198C55.2388 7.03083 54.9186 7.19541 54.6533 7.40569L53.8848 5.91083C54.2873 5.62741 54.7677 5.40798 55.3257 5.25255C55.893 5.09712 56.4739 5.01941 57.0686 5.01941ZM56.9039 11.1771C57.2699 11.1771 57.5947 11.0948 57.8783 10.9303C58.1619 10.7565 58.3632 10.5051 58.4821 10.176V9.42169H57.0137C56.1354 9.42169 55.6963 9.70969 55.6963 10.2857C55.6963 10.56 55.8015 10.7794 56.0119 10.944C56.2315 11.0994 56.5288 11.1771 56.9039 11.1771Z" fill="white"/>
<path d="M66.9246 5.01941C67.6108 5.01941 68.2329 5.17941 68.791 5.49941C69.3582 5.81026 69.802 6.25369 70.1222 6.82969C70.4424 7.39655 70.6025 8.05941 70.6025 8.81826C70.6025 9.57712 70.4424 10.2445 70.1222 10.8205C69.802 11.3874 69.3582 11.8308 68.791 12.1508C68.2329 12.4617 67.6108 12.6171 66.9246 12.6171C65.9823 12.6171 65.2412 12.32 64.7014 11.7257V15.168H62.5606V5.12912H64.6054V5.97941C65.136 5.33941 65.9091 5.01941 66.9246 5.01941ZM66.5541 10.8617C67.103 10.8617 67.5513 10.6788 67.899 10.3131C68.2558 9.93826 68.4342 9.43998 68.4342 8.81826C68.4342 8.19655 68.2558 7.70283 67.899 7.33712C67.5513 6.96226 67.103 6.77484 66.5541 6.77484C66.0051 6.77484 65.5523 6.96226 65.1955 7.33712C64.8478 7.70283 64.674 8.19655 64.674 8.81826C64.674 9.43998 64.8478 9.93826 65.1955 10.3131C65.5523 10.6788 66.0051 10.8617 66.5541 10.8617Z" fill="white"/>
<path d="M76.3997 5.01941C77.0859 5.01941 77.708 5.17941 78.2661 5.49941C78.8333 5.81026 79.277 6.25369 79.5972 6.82969C79.9175 7.39655 80.0776 8.05941 80.0776 8.81826C80.0776 9.57712 79.9175 10.2445 79.5972 10.8205C79.277 11.3874 78.8333 11.8308 78.2661 12.1508C77.708 12.4617 77.0859 12.6171 76.3997 12.6171C75.4573 12.6171 74.7163 12.32 74.1765 11.7257V15.168H72.0356V5.12912H74.0804V5.97941C74.6111 5.33941 75.3841 5.01941 76.3997 5.01941ZM76.0291 10.8617C76.5781 10.8617 77.0264 10.6788 77.374 10.3131C77.7309 9.93826 77.9093 9.43998 77.9093 8.81826C77.9093 8.19655 77.7309 7.70283 77.374 7.33712C77.0264 6.96226 76.5781 6.77484 76.0291 6.77484C75.4802 6.77484 75.0273 6.96226 74.6705 7.33712C74.3229 7.70283 74.149 8.19655 74.149 8.81826C74.149 9.43998 74.3229 9.93826 74.6705 10.3131C75.0273 10.6788 75.4802 10.8617 76.0291 10.8617Z" fill="white"/>
<path d="M85.3972 5.12912H87.5381V12.5074H85.3972V5.12912ZM86.4676 4.10055C86.0742 4.10055 85.754 3.98626 85.507 3.75769C85.26 3.52912 85.1365 3.24569 85.1365 2.90741C85.1365 2.56912 85.26 2.28569 85.507 2.05712C85.754 1.82855 86.0742 1.71426 86.4676 1.71426C86.8611 1.71426 87.1813 1.82398 87.4283 2.04341C87.6753 2.26284 87.7988 2.53712 87.7988 2.86626C87.7988 3.22284 87.6753 3.51998 87.4283 3.75769C87.1813 3.98626 86.8611 4.10055 86.4676 4.10055Z" fill="white"/>
<path d="M94.0125 5.01941C94.9274 5.01941 95.6639 5.29369 96.222 5.84226C96.7892 6.39084 97.0729 7.20455 97.0729 8.28341V12.5074H94.932V8.61255C94.932 8.02741 94.8039 7.59312 94.5477 7.30969C94.2916 7.01712 93.921 6.87084 93.4361 6.87084C92.8964 6.87084 92.4664 7.03998 92.1461 7.37826C91.8259 7.70741 91.6658 8.20112 91.6658 8.85941V12.5074H89.525V5.12912H91.5698V5.99312C91.8534 5.68226 92.2056 5.44455 92.6265 5.27998C93.0473 5.10626 93.5093 5.01941 94.0125 5.01941Z" fill="white"/>
<path d="M109.377 10.4503H104.917L104.066 12.5074H101.788L106.07 2.90741H108.266L112.561 12.5074H110.228L109.377 10.4503ZM108.678 8.76341L107.154 5.08798L105.631 8.76341H108.678Z" fill="white"/>
<path d="M117.771 5.01941C118.457 5.01941 119.079 5.17941 119.637 5.49941C120.205 5.81026 120.648 6.25369 120.969 6.82969C121.289 7.39655 121.449 8.05941 121.449 8.81826C121.449 9.57712 121.289 10.2445 120.969 10.8205C120.648 11.3874 120.205 11.8308 119.637 12.1508C119.079 12.4617 118.457 12.6171 117.771 12.6171C116.829 12.6171 116.088 12.32 115.548 11.7257V15.168H113.407V5.12912H115.452V5.97941C115.982 5.33941 116.755 5.01941 117.771 5.01941ZM117.4 10.8617C117.949 10.8617 118.398 10.6788 118.745 10.3131C119.102 9.93826 119.281 9.43998 119.281 8.81826C119.281 8.19655 119.102 7.70283 118.745 7.33712C118.398 6.96226 117.949 6.77484 117.4 6.77484C116.852 6.77484 116.399 6.96226 116.042 7.33712C115.694 7.70283 115.52 8.19655 115.52 8.81826C115.52 9.43998 115.694 9.93826 116.042 10.3131C116.399 10.6788 116.852 10.8617 117.4 10.8617Z" fill="white"/>
<path d="M127.246 5.01941C127.932 5.01941 128.554 5.17941 129.112 5.49941C129.68 5.81026 130.123 6.25369 130.444 6.82969C130.764 7.39655 130.924 8.05941 130.924 8.81826C130.924 9.57712 130.764 10.2445 130.444 10.8205C130.123 11.3874 129.68 11.8308 129.112 12.1508C128.554 12.4617 127.932 12.6171 127.246 12.6171C126.304 12.6171 125.563 12.32 125.023 11.7257V15.168H122.882V5.12912H124.927V5.97941C125.457 5.33941 126.231 5.01941 127.246 5.01941ZM126.876 10.8617C127.424 10.8617 127.873 10.6788 128.22 10.3131C128.577 9.93826 128.756 9.43998 128.756 8.81826C128.756 8.19655 128.577 7.70283 128.22 7.33712C127.873 6.96226 127.424 6.77484 126.876 6.77484C126.327 6.77484 125.874 6.96226 125.517 7.33712C125.169 7.70283 124.995 8.19655 124.995 8.81826C124.995 9.43998 125.169 9.93826 125.517 10.3131C125.874 10.6788 126.327 10.8617 126.876 10.8617Z" fill="white"/>
<path d="M139.551 12.672C138.792 12.672 138.055 12.5714 137.341 12.3703C136.637 12.16 136.07 11.8903 135.64 11.5611L136.395 9.88798C136.806 10.1897 137.296 10.432 137.863 10.6148C138.43 10.7977 138.997 10.8891 139.565 10.8891C140.196 10.8891 140.663 10.7977 140.964 10.6148C141.266 10.4228 141.417 10.1714 141.417 9.86055C141.417 9.63198 141.326 9.44455 141.143 9.29826C140.969 9.14284 140.74 9.01941 140.457 8.92798C140.182 8.83655 139.807 8.73598 139.331 8.62626C138.599 8.45255 138 8.27884 137.534 8.10512C137.067 7.93141 136.664 7.65255 136.326 7.26855C135.997 6.88455 135.832 6.37255 135.832 5.73255C135.832 5.17484 135.983 4.67198 136.285 4.22398C136.587 3.76684 137.04 3.40569 137.643 3.14055C138.256 2.87541 139.002 2.74284 139.88 2.74284C140.493 2.74284 141.093 2.81598 141.678 2.96226C142.264 3.10855 142.776 3.31884 143.215 3.59312L142.529 5.27998C141.642 4.77712 140.754 4.52569 139.867 4.52569C139.244 4.52569 138.782 4.62626 138.481 4.82741C138.188 5.02855 138.041 5.29369 138.041 5.62283C138.041 5.95198 138.211 6.19884 138.549 6.36341C138.897 6.51884 139.423 6.67426 140.127 6.82969C140.859 7.00341 141.459 7.17712 141.925 7.35084C142.392 7.52455 142.79 7.79883 143.119 8.17369C143.458 8.54855 143.627 9.05598 143.627 9.69598C143.627 10.2445 143.471 10.7474 143.16 11.2045C142.858 11.6525 142.401 12.0091 141.788 12.2743C141.175 12.5394 140.429 12.672 139.551 12.672Z" fill="white"/>
<path d="M149.757 12.1508C149.547 12.3063 149.286 12.4251 148.975 12.5074C148.673 12.5805 148.353 12.6171 148.014 12.6171C147.136 12.6171 146.454 12.3931 145.969 11.9451C145.494 11.4971 145.256 10.8388 145.256 9.97026V6.93941H144.117V5.29369H145.256V3.49712H147.397V5.29369H149.236V6.93941H147.397V9.94284C147.397 10.2537 147.474 10.496 147.63 10.6697C147.795 10.8343 148.023 10.9165 148.316 10.9165C148.655 10.9165 148.943 10.8251 149.181 10.6423L149.757 12.1508Z" fill="white"/>
<path d="M154.244 12.6171C153.466 12.6171 152.767 12.4571 152.144 12.1371C151.531 11.808 151.051 11.3554 150.704 10.7794C150.356 10.2034 150.182 9.54969 150.182 8.81826C150.182 8.08683 150.356 7.43312 150.704 6.85712C151.051 6.28112 151.531 5.83312 152.144 5.51312C152.767 5.18398 153.466 5.01941 154.244 5.01941C155.022 5.01941 155.717 5.18398 156.33 5.51312C156.943 5.83312 157.423 6.28112 157.771 6.85712C158.119 7.43312 158.293 8.08683 158.293 8.81826C158.293 9.54969 158.119 10.2034 157.771 10.7794C157.423 11.3554 156.943 11.808 156.33 12.1371C155.717 12.4571 155.022 12.6171 154.244 12.6171ZM154.244 10.8617C154.793 10.8617 155.241 10.6788 155.589 10.3131C155.946 9.93826 156.124 9.43998 156.124 8.81826C156.124 8.19655 155.946 7.70283 155.589 7.33712C155.241 6.96226 154.793 6.77484 154.244 6.77484C153.695 6.77484 153.242 6.96226 152.886 7.33712C152.529 7.70283 152.35 8.19655 152.35 8.81826C152.35 9.43998 152.529 9.93826 152.886 10.3131C153.242 10.6788 153.695 10.8617 154.244 10.8617Z" fill="white"/>
<path d="M161.768 6.10284C162.025 5.74626 162.368 5.47655 162.798 5.29369C163.237 5.11084 163.74 5.01941 164.307 5.01941V6.99426C164.069 6.97598 163.909 6.96684 163.827 6.96684C163.214 6.96684 162.734 7.14055 162.386 7.48798C162.038 7.82626 161.864 8.33826 161.864 9.02398V12.5074H159.724V5.12912H161.768V6.10284Z" fill="white"/>
<path d="M172.745 8.84569C172.745 8.87312 172.732 9.06512 172.704 9.42169H167.119C167.219 9.87884 167.457 10.24 167.832 10.5051C168.208 10.7703 168.674 10.9028 169.232 10.9028C169.616 10.9028 169.955 10.848 170.248 10.7383C170.55 10.6194 170.829 10.4365 171.085 10.1897L172.224 11.424C171.529 12.2194 170.513 12.6171 169.177 12.6171C168.345 12.6171 167.608 12.4571 166.968 12.1371C166.327 11.808 165.833 11.3554 165.486 10.7794C165.138 10.2034 164.964 9.54969 164.964 8.81826C164.964 8.09598 165.133 7.44684 165.472 6.87084C165.82 6.28569 166.291 5.83312 166.885 5.51312C167.489 5.18398 168.162 5.01941 168.903 5.01941C169.626 5.01941 170.28 5.17484 170.865 5.48569C171.451 5.79655 171.908 6.24455 172.238 6.82969C172.576 7.40569 172.745 8.07769 172.745 8.84569ZM168.917 6.63769C168.432 6.63769 168.025 6.77483 167.695 7.04912C167.366 7.32341 167.165 7.69826 167.091 8.17369H170.728C170.655 7.70741 170.454 7.33712 170.124 7.06284C169.795 6.77941 169.392 6.63769 168.917 6.63769Z" fill="white"/>
<path d="M35.4369 18.5931L36.0235 18.9171L35.8228 19.2668L35.2259 18.9171L35.231 19.5805H34.8399L34.845 18.9222L34.2532 19.2668L34.0474 18.9171L34.6392 18.5931L34.0474 18.2691L34.2532 17.9142L34.845 18.264L34.8399 17.6057H35.231L35.2259 18.2691L35.8228 17.9142L36.0235 18.2691L35.4369 18.5931Z" fill="white"/>
<path d="M40.2043 20.0794H40.899V20.5474H40.1477L40.0396 21.4217H39.5713L39.6794 20.5474H38.8097L38.7016 21.4217H38.2333L38.3413 20.5474H37.6466V20.0794H38.3979L38.5163 19.164H37.8216V18.696H38.5729L38.681 17.8217H39.1493L39.0412 18.696H39.9058L40.0139 17.8217H40.4822L40.3741 18.696H41.0637L41.0689 19.164H40.3175L40.2043 20.0794ZM39.736 20.0794L39.8492 19.164H38.9846L38.8663 20.0794H39.736Z" fill="white"/>
<path d="M42.6588 17.8217V21.4217H41.9897V18.3822H41.2281V17.8217H42.6588Z" fill="white"/>
<path d="M44.9912 18.6754H45.6345V21.4217H44.9912V18.6754ZM45.3154 18.2228C45.1988 18.2228 45.101 18.1868 45.0221 18.1148C44.9432 18.0394 44.9037 17.9468 44.9037 17.8371C44.9037 17.7274 44.9432 17.6365 45.0221 17.5645C45.101 17.4891 45.1988 17.4514 45.3154 17.4514C45.4321 17.4514 45.5298 17.4874 45.6087 17.5594C45.6876 17.628 45.7271 17.7154 45.7271 17.8217C45.7271 17.9348 45.6876 18.0308 45.6087 18.1097C45.5333 18.1851 45.4355 18.2228 45.3154 18.2228Z" fill="white"/>
<path d="M48.0381 18.6445C48.3846 18.6445 48.6625 18.7457 48.8718 18.948C49.0811 19.1502 49.1857 19.4502 49.1857 19.848V21.4217H48.5424V19.9302C48.5424 19.6902 48.4858 19.5102 48.3726 19.3902C48.2594 19.2668 48.0982 19.2051 47.8889 19.2051C47.6521 19.2051 47.4652 19.2771 47.3279 19.4211C47.1907 19.5617 47.1221 19.7657 47.1221 20.0331V21.4217H46.4788V18.6754H47.0912V19.0302C47.1975 18.9034 47.3314 18.8074 47.4926 18.7422C47.6539 18.6771 47.8357 18.6445 48.0381 18.6445Z" fill="white"/>
<path d="M52.2166 18.3874H51.0226V17.8217H54.0795V18.3874H52.8856V21.4217H52.2166V18.3874Z" fill="white"/>
<path d="M55.4735 21.4577C55.1956 21.4577 54.9452 21.3977 54.7222 21.2777C54.4992 21.1577 54.3242 20.9914 54.1973 20.7788C54.0737 20.5628 54.012 20.3194 54.012 20.0485C54.012 19.7777 54.0737 19.536 54.1973 19.3234C54.3242 19.1108 54.4992 18.9445 54.7222 18.8245C54.9452 18.7045 55.1956 18.6445 55.4735 18.6445C55.7549 18.6445 56.007 18.7045 56.23 18.8245C56.453 18.9445 56.6263 19.1108 56.7498 19.3234C56.8768 19.536 56.9402 19.7777 56.9402 20.0485C56.9402 20.3194 56.8768 20.5628 56.7498 20.7788C56.6263 20.9914 56.453 21.1577 56.23 21.2777C56.007 21.3977 55.7549 21.4577 55.4735 21.4577ZM55.4735 20.9074C55.7103 20.9074 55.9058 20.8285 56.0602 20.6708C56.2146 20.5131 56.2918 20.3057 56.2918 20.0485C56.2918 19.7914 56.2146 19.584 56.0602 19.4262C55.9058 19.2685 55.7103 19.1897 55.4735 19.1897C55.2368 19.1897 55.0412 19.2685 54.8869 19.4262C54.7359 19.584 54.6604 19.7914 54.6604 20.0485C54.6604 20.3057 54.7359 20.5131 54.8869 20.6708C55.0412 20.8285 55.2368 20.9074 55.4735 20.9074Z" fill="white"/>
<path d="M59.0787 18.6445C59.3463 18.6445 59.5847 18.7028 59.794 18.8194C60.0067 18.936 60.1731 19.1005 60.2932 19.3131C60.4133 19.5257 60.4733 19.7708 60.4733 20.0485C60.4733 20.3262 60.4133 20.5731 60.2932 20.7891C60.1731 21.0017 60.0067 21.1662 59.794 21.2828C59.5847 21.3994 59.3463 21.4577 59.0787 21.4577C58.7081 21.4577 58.4148 21.3342 58.1987 21.0874V22.4194H57.5554V18.6754H58.1678V19.0354C58.2741 18.9051 58.4045 18.8074 58.5589 18.7422C58.7167 18.6771 58.89 18.6445 59.0787 18.6445ZM59.0066 20.9074C59.2433 20.9074 59.4372 20.8285 59.5882 20.6708C59.7425 20.5131 59.8197 20.3057 59.8197 20.0485C59.8197 19.7914 59.7425 19.584 59.5882 19.4262C59.4372 19.2685 59.2433 19.1897 59.0066 19.1897C58.8522 19.1897 58.7133 19.2257 58.5898 19.2977C58.4663 19.3662 58.3685 19.4657 58.2964 19.596C58.2244 19.7262 58.1884 19.8771 58.1884 20.0485C58.1884 20.22 58.2244 20.3708 58.2964 20.5011C58.3685 20.6314 58.4663 20.7325 58.5898 20.8045C58.7133 20.8731 58.8522 20.9074 59.0066 20.9074Z" fill="white"/>
<path d="M64.9038 20.5885H63.1026L62.7475 21.4217H62.0579L63.679 17.8217H64.3377L65.964 21.4217H65.2641L64.9038 20.5885ZM64.6825 20.064L64.0032 18.4902L63.3291 20.064H64.6825Z" fill="white"/>
<path d="M67.8836 18.6445C68.1513 18.6445 68.3897 18.7028 68.599 18.8194C68.8117 18.936 68.9781 19.1005 69.0982 19.3131C69.2183 19.5257 69.2783 19.7708 69.2783 20.0485C69.2783 20.3262 69.2183 20.5731 69.0982 20.7891C68.9781 21.0017 68.8117 21.1662 68.599 21.2828C68.3897 21.3994 68.1513 21.4577 67.8836 21.4577C67.5131 21.4577 67.2198 21.3342 67.0036 21.0874V22.4194H66.3603V18.6754H66.9728V19.0354C67.0791 18.9051 67.2095 18.8074 67.3639 18.7422C67.5217 18.6771 67.6949 18.6445 67.8836 18.6445ZM67.8116 20.9074C68.0483 20.9074 68.2422 20.8285 68.3931 20.6708C68.5475 20.5131 68.6247 20.3057 68.6247 20.0485C68.6247 19.7914 68.5475 19.584 68.3931 19.4262C68.2422 19.2685 68.0483 19.1897 67.8116 19.1897C67.6572 19.1897 67.5183 19.2257 67.3948 19.2977C67.2712 19.3662 67.1735 19.4657 67.1014 19.596C67.0294 19.7262 66.9933 19.8771 66.9933 20.0485C66.9933 20.22 67.0294 20.3708 67.1014 20.5011C67.1735 20.6314 67.2712 20.7325 67.3948 20.8045C67.5183 20.8731 67.6572 20.9074 67.8116 20.9074Z" fill="white"/>
<path d="M71.4117 18.6445C71.6793 18.6445 71.9177 18.7028 72.127 18.8194C72.3397 18.936 72.5061 19.1005 72.6262 19.3131C72.7463 19.5257 72.8063 19.7708 72.8063 20.0485C72.8063 20.3262 72.7463 20.5731 72.6262 20.7891C72.5061 21.0017 72.3397 21.1662 72.127 21.2828C71.9177 21.3994 71.6793 21.4577 71.4117 21.4577C71.0411 21.4577 70.7478 21.3342 70.5317 21.0874V22.4194H69.8884V18.6754H70.5008V19.0354C70.6071 18.9051 70.7375 18.8074 70.8919 18.7422C71.0497 18.6771 71.223 18.6445 71.4117 18.6445ZM71.3396 20.9074C71.5763 20.9074 71.7702 20.8285 71.9212 20.6708C72.0755 20.5131 72.1527 20.3057 72.1527 20.0485C72.1527 19.7914 72.0755 19.584 71.9212 19.4262C71.7702 19.2685 71.5763 19.1897 71.3396 19.1897C71.1852 19.1897 71.0463 19.2257 70.9228 19.2977C70.7993 19.3662 70.7015 19.4657 70.6294 19.596C70.5574 19.7262 70.5214 19.8771 70.5214 20.0485C70.5214 20.22 70.5574 20.3708 70.6294 20.5011C70.7015 20.6314 70.7993 20.7325 70.9228 20.8045C71.0463 20.8731 71.1852 20.9074 71.3396 20.9074Z" fill="white"/>
<path d="M74.2655 21.4577C74.0425 21.4577 73.8247 21.4285 73.6119 21.3702C73.3992 21.312 73.2294 21.2382 73.1025 21.1491L73.3495 20.6605C73.473 20.7428 73.6205 20.8097 73.7921 20.8611C73.967 20.9091 74.1386 20.9331 74.3067 20.9331C74.691 20.9331 74.8831 20.832 74.8831 20.6297C74.8831 20.5337 74.8333 20.4668 74.7338 20.4291C74.6378 20.3914 74.4817 20.3554 74.2655 20.3211C74.0391 20.2868 73.8538 20.2474 73.7097 20.2028C73.5691 20.1582 73.4456 20.0811 73.3392 19.9714C73.2363 19.8582 73.1848 19.7022 73.1848 19.5034C73.1848 19.2428 73.2929 19.0354 73.509 18.8811C73.7286 18.7234 74.0237 18.6445 74.3942 18.6445C74.5829 18.6445 74.7716 18.6668 74.9603 18.7114C75.149 18.7525 75.3034 18.8091 75.4234 18.8811L75.1764 19.3697C74.9431 19.2325 74.6807 19.164 74.389 19.164C74.2003 19.164 74.0562 19.1931 73.9567 19.2514C73.8607 19.3062 73.8127 19.38 73.8127 19.4725C73.8127 19.5754 73.8641 19.6491 73.967 19.6937C74.0734 19.7348 74.2364 19.7742 74.4559 19.812C74.6755 19.8462 74.8556 19.8857 74.9963 19.9302C75.137 19.9748 75.257 20.0502 75.3565 20.1565C75.4595 20.2628 75.5109 20.4137 75.5109 20.6091C75.5109 20.8662 75.3994 21.072 75.1764 21.2262C74.9534 21.3805 74.6498 21.4577 74.2655 21.4577Z" fill="white"/>
<path d="M78.7223 21.4577C78.4444 21.4577 78.1939 21.3977 77.9709 21.2777C77.7479 21.1577 77.573 20.9914 77.446 20.7788C77.3225 20.5628 77.2607 20.3194 77.2607 20.0485C77.2607 19.7777 77.3225 19.536 77.446 19.3234C77.573 19.1108 77.7479 18.9445 77.9709 18.8245C78.1939 18.7045 78.4444 18.6445 78.7223 18.6445C79.0036 18.6445 79.2558 18.7045 79.4788 18.8245C79.7018 18.9445 79.8751 19.1108 79.9986 19.3234C80.1255 19.536 80.189 19.7777 80.189 20.0485C80.189 20.3194 80.1255 20.5628 79.9986 20.7788C79.8751 20.9914 79.7018 21.1577 79.4788 21.2777C79.2558 21.3977 79.0036 21.4577 78.7223 21.4577ZM78.7223 20.9074C78.959 20.9074 79.1546 20.8285 79.309 20.6708C79.4634 20.5131 79.5405 20.3057 79.5405 20.0485C79.5405 19.7914 79.4634 19.584 79.309 19.4262C79.1546 19.2685 78.959 19.1897 78.7223 19.1897C78.4856 19.1897 78.29 19.2685 78.1356 19.4262C77.9847 19.584 77.9092 19.7914 77.9092 20.0485C77.9092 20.3057 77.9847 20.5131 78.1356 20.6708C78.29 20.8285 78.4856 20.9074 78.7223 20.9074Z" fill="white"/>
<path d="M81.9209 18.0891C81.6498 18.0891 81.5143 18.2365 81.5143 18.5314V18.696H82.2708V19.2102H81.5349V21.4217H80.8916V19.2102H80.4387V18.696H80.8916V18.5211C80.8916 18.2262 80.9774 17.9948 81.1489 17.8268C81.3205 17.6554 81.5623 17.5697 81.8746 17.5697C82.1216 17.5697 82.3154 17.6194 82.4561 17.7188L82.276 18.2022C82.1662 18.1268 82.0478 18.0891 81.9209 18.0891Z" fill="white"/>
<path d="M85.3046 21.4731C85.0267 21.4731 84.7574 21.4337 84.4966 21.3548C84.2393 21.276 84.0352 21.1714 83.8842 21.0411L84.1158 20.5217C84.2633 20.6382 84.4434 20.7342 84.6562 20.8097C84.8723 20.8817 85.0884 20.9177 85.3046 20.9177C85.5722 20.9177 85.7712 20.8748 85.9016 20.7891C86.0354 20.7034 86.1023 20.5902 86.1023 20.4497C86.1023 20.3468 86.0645 20.2628 85.9891 20.1977C85.917 20.1291 85.8244 20.076 85.7112 20.0382C85.5979 20.0005 85.4435 19.9577 85.248 19.9097C84.9735 19.8445 84.7505 19.7794 84.579 19.7142C84.4109 19.6491 84.265 19.548 84.1415 19.4108C84.0215 19.2702 83.9614 19.0817 83.9614 18.8451C83.9614 18.6462 84.0146 18.4662 84.1209 18.3051C84.2307 18.1405 84.3937 18.0102 84.6098 17.9142C84.8294 17.8182 85.097 17.7702 85.4127 17.7702C85.6322 17.7702 85.8484 17.7977 86.0611 17.8525C86.2738 17.9074 86.4574 17.9862 86.6118 18.0891L86.4008 18.6085C86.2429 18.516 86.0783 18.4457 85.9067 18.3977C85.7352 18.3497 85.5688 18.3257 85.4075 18.3257C85.1433 18.3257 84.9461 18.3702 84.8157 18.4594C84.6888 18.5485 84.6253 18.6668 84.6253 18.8142C84.6253 18.9171 84.6613 19.0011 84.7334 19.0662C84.8088 19.1314 84.9032 19.1828 85.0164 19.2205C85.1296 19.2582 85.284 19.3011 85.4796 19.3491C85.7472 19.4108 85.9667 19.476 86.1383 19.5445C86.3098 19.6097 86.4556 19.7108 86.5757 19.848C86.6992 19.9851 86.761 20.1702 86.761 20.4034C86.761 20.6022 86.7061 20.7822 86.5963 20.9434C86.49 21.1045 86.327 21.2331 86.1074 21.3291C85.8878 21.4251 85.6202 21.4731 85.3046 21.4731Z" fill="white"/>
<path d="M88.8859 18.6445C89.1535 18.6445 89.392 18.7028 89.6013 18.8194C89.814 18.936 89.9804 19.1005 90.1005 19.3131C90.2205 19.5257 90.2806 19.7708 90.2806 20.0485C90.2806 20.3262 90.2205 20.5731 90.1005 20.7891C89.9804 21.0017 89.814 21.1662 89.6013 21.2828C89.392 21.3994 89.1535 21.4577 88.8859 21.4577C88.5154 21.4577 88.2221 21.3342 88.0059 21.0874V22.4194H87.3626V18.6754H87.975V19.0354C88.0814 18.9051 88.2118 18.8074 88.3662 18.7422C88.524 18.6771 88.6972 18.6445 88.8859 18.6445ZM88.8139 20.9074C89.0506 20.9074 89.2445 20.8285 89.3954 20.6708C89.5498 20.5131 89.627 20.3057 89.627 20.0485C89.627 19.7914 89.5498 19.584 89.3954 19.4262C89.2445 19.2685 89.0506 19.1897 88.8139 19.1897C88.6595 19.1897 88.5205 19.2257 88.397 19.2977C88.2735 19.3662 88.1757 19.4657 88.1037 19.596C88.0316 19.7262 87.9956 19.8771 87.9956 20.0485C87.9956 20.22 88.0316 20.3708 88.1037 20.5011C88.1757 20.6314 88.2735 20.7325 88.397 20.8045C88.5205 20.8731 88.6595 20.9074 88.8139 20.9074Z" fill="white"/>
<path d="M92.1258 21.4577C91.8479 21.4577 91.5974 21.3977 91.3744 21.2777C91.1514 21.1577 90.9764 20.9914 90.8495 20.7788C90.726 20.5628 90.6642 20.3194 90.6642 20.0485C90.6642 19.7777 90.726 19.536 90.8495 19.3234C90.9764 19.1108 91.1514 18.9445 91.3744 18.8245C91.5974 18.7045 91.8479 18.6445 92.1258 18.6445C92.4071 18.6445 92.6593 18.7045 92.8823 18.8245C93.1053 18.9445 93.2785 19.1108 93.402 19.3234C93.529 19.536 93.5924 19.7777 93.5924 20.0485C93.5924 20.3194 93.529 20.5628 93.402 20.7788C93.2785 20.9914 93.1053 21.1577 92.8823 21.2777C92.6593 21.3977 92.4071 21.4577 92.1258 21.4577ZM92.1258 20.9074C92.3625 20.9074 92.558 20.8285 92.7124 20.6708C92.8668 20.5131 92.944 20.3057 92.944 20.0485C92.944 19.7914 92.8668 19.584 92.7124 19.4262C92.558 19.2685 92.3625 19.1897 92.1258 19.1897C91.889 19.1897 91.6935 19.2685 91.5391 19.4262C91.3881 19.584 91.3126 19.7914 91.3126 20.0485C91.3126 20.3057 91.3881 20.5131 91.5391 20.6708C91.6935 20.8285 91.889 20.9074 92.1258 20.9074Z" fill="white"/>
<path d="M94.82 19.0765C95.0053 18.7885 95.3312 18.6445 95.7978 18.6445V19.2565C95.7429 19.2462 95.6932 19.2411 95.6486 19.2411C95.3981 19.2411 95.2025 19.3148 95.0619 19.4622C94.9212 19.6062 94.8509 19.8154 94.8509 20.0897V21.4217H94.2076V18.6754H94.82V19.0765Z" fill="white"/>
<path d="M98.096 21.2725C98.0205 21.3342 97.9279 21.3805 97.8181 21.4114C97.7117 21.4422 97.5985 21.4577 97.4784 21.4577C97.1765 21.4577 96.9432 21.3788 96.7785 21.2211C96.6138 21.0634 96.5315 20.8337 96.5315 20.532V19.2102H96.0786V18.696H96.5315V18.0685H97.1748V18.696H97.9107V19.2102H97.1748V20.5165C97.1748 20.6502 97.2074 20.7531 97.2726 20.8251C97.3378 20.8937 97.4321 20.928 97.5556 20.928C97.6997 20.928 97.8198 20.8902 97.9159 20.8148L98.096 21.2725Z" fill="white"/>
<path d="M99.4743 21.4577C99.2513 21.4577 99.0334 21.4285 98.8207 21.3702C98.608 21.312 98.4382 21.2382 98.3112 21.1491L98.5583 20.6605C98.6818 20.7428 98.8293 20.8097 99.0008 20.8611C99.1758 20.9091 99.3474 20.9331 99.5155 20.9331C99.8997 20.9331 100.092 20.832 100.092 20.6297C100.092 20.5337 100.042 20.4668 99.9426 20.4291C99.8465 20.3914 99.6904 20.3554 99.4743 20.3211C99.2479 20.2868 99.0626 20.2474 98.9185 20.2028C98.7778 20.1582 98.6543 20.0811 98.548 19.9714C98.445 19.8582 98.3936 19.7022 98.3936 19.5034C98.3936 19.2428 98.5016 19.0354 98.7178 18.8811C98.9374 18.7234 99.2324 18.6445 99.603 18.6445C99.7917 18.6445 99.9803 18.6668 100.169 18.7114C100.358 18.7525 100.512 18.8091 100.632 18.8811L100.385 19.3697C100.152 19.2325 99.8894 19.164 99.5978 19.164C99.4091 19.164 99.265 19.1931 99.1655 19.2514C99.0695 19.3062 99.0214 19.38 99.0214 19.4725C99.0214 19.5754 99.0729 19.6491 99.1758 19.6937C99.2822 19.7348 99.4451 19.7742 99.6647 19.812C99.8843 19.8462 100.064 19.8857 100.205 19.9302C100.346 19.9748 100.466 20.0502 100.565 20.1565C100.668 20.2628 100.72 20.4137 100.72 20.6091C100.72 20.8662 100.608 21.072 100.385 21.2262C100.162 21.3805 99.8586 21.4577 99.4743 21.4577Z" fill="white"/>
<path d="M104.425 21.4731C104.061 21.4731 103.732 21.3942 103.437 21.2365C103.145 21.0754 102.916 20.8542 102.747 20.5731C102.583 20.292 102.5 19.9748 102.5 19.6217C102.5 19.2685 102.584 18.9514 102.753 18.6702C102.921 18.3891 103.151 18.1697 103.442 18.012C103.737 17.8508 104.067 17.7702 104.43 17.7702C104.725 17.7702 104.995 17.8217 105.238 17.9245C105.482 18.0274 105.688 18.1765 105.856 18.372L105.423 18.7782C105.163 18.4971 104.842 18.3565 104.461 18.3565C104.214 18.3565 103.993 18.4114 103.797 18.5211C103.602 18.6274 103.449 18.7765 103.339 18.9685C103.229 19.1605 103.175 19.3782 103.175 19.6217C103.175 19.8651 103.229 20.0828 103.339 20.2748C103.449 20.4668 103.602 20.6177 103.797 20.7274C103.993 20.8337 104.214 20.8868 104.461 20.8868C104.842 20.8868 105.163 20.7445 105.423 20.46L105.856 20.8714C105.688 21.0668 105.48 21.216 105.233 21.3188C104.989 21.4217 104.72 21.4731 104.425 21.4731Z" fill="white"/>
<path d="M107.46 18.6445C107.865 18.6445 108.173 18.7422 108.386 18.9377C108.602 19.1297 108.71 19.4211 108.71 19.812V21.4217H108.103V21.0874C108.024 21.2074 107.911 21.3 107.763 21.3651C107.619 21.4268 107.444 21.4577 107.238 21.4577C107.033 21.4577 106.853 21.4234 106.698 21.3548C106.544 21.2828 106.424 21.1851 106.338 21.0617C106.256 20.9348 106.214 20.7925 106.214 20.6348C106.214 20.388 106.305 20.1908 106.487 20.0434C106.672 19.8925 106.962 19.8171 107.357 19.8171H108.067V19.776C108.067 19.584 108.009 19.4365 107.892 19.3337C107.779 19.2308 107.609 19.1794 107.383 19.1794C107.228 19.1794 107.076 19.2034 106.925 19.2514C106.777 19.2994 106.652 19.3662 106.549 19.452L106.297 18.984C106.441 18.8742 106.614 18.7902 106.816 18.732C107.019 18.6737 107.233 18.6445 107.46 18.6445ZM107.372 20.9897C107.534 20.9897 107.676 20.9537 107.799 20.8817C107.926 20.8062 108.016 20.7 108.067 20.5628V20.244H107.403C107.033 20.244 106.847 20.3657 106.847 20.6091C106.847 20.7257 106.894 20.8182 106.986 20.8868C107.079 20.9554 107.208 20.9897 107.372 20.9897Z" fill="white"/>
<path d="M111.188 21.2725C111.112 21.3342 111.02 21.3805 110.91 21.4114C110.804 21.4422 110.69 21.4577 110.57 21.4577C110.268 21.4577 110.035 21.3788 109.87 21.2211C109.706 21.0634 109.623 20.8337 109.623 20.532V19.2102H109.171V18.696H109.623V18.0685H110.267V18.696H111.003V19.2102H110.267V20.5165C110.267 20.6502 110.299 20.7531 110.364 20.8251C110.43 20.8937 110.524 20.928 110.647 20.928C110.792 20.928 110.912 20.8902 111.008 20.8148L111.188 21.2725Z" fill="white"/>
<path d="M114.21 20.064C114.21 20.1085 114.207 20.172 114.2 20.2542H112.043C112.081 20.4565 112.179 20.6177 112.337 20.7377C112.498 20.8542 112.697 20.9125 112.934 20.9125C113.236 20.9125 113.484 20.8131 113.68 20.6142L114.025 21.0102C113.901 21.1577 113.745 21.2691 113.556 21.3445C113.368 21.42 113.155 21.4577 112.918 21.4577C112.616 21.4577 112.35 21.3977 112.121 21.2777C111.891 21.1577 111.712 20.9914 111.585 20.7788C111.462 20.5628 111.4 20.3194 111.4 20.0485C111.4 19.7811 111.46 19.5411 111.58 19.3285C111.704 19.1125 111.874 18.9445 112.09 18.8245C112.306 18.7045 112.549 18.6445 112.821 18.6445C113.088 18.6445 113.327 18.7045 113.536 18.8245C113.749 18.9411 113.913 19.1074 114.03 19.3234C114.15 19.536 114.21 19.7828 114.21 20.064ZM112.821 19.1588C112.615 19.1588 112.44 19.2205 112.296 19.344C112.155 19.464 112.069 19.6251 112.038 19.8274H113.598C113.57 19.6285 113.486 19.4674 113.345 19.344C113.205 19.2205 113.03 19.1588 112.821 19.1588Z" fill="white"/>
<path d="M117.555 18.6754V21.0051C117.555 21.972 117.061 22.4554 116.073 22.4554C115.809 22.4554 115.559 22.4211 115.322 22.3525C115.085 22.2874 114.89 22.1914 114.735 22.0645L115.023 21.5811C115.144 21.6805 115.295 21.7594 115.476 21.8177C115.662 21.8794 115.849 21.9102 116.037 21.9102C116.339 21.9102 116.561 21.8417 116.701 21.7045C116.842 21.5674 116.912 21.3582 116.912 21.0771V20.9331C116.802 21.0531 116.669 21.144 116.511 21.2057C116.353 21.2674 116.18 21.2982 115.991 21.2982C115.73 21.2982 115.494 21.2434 115.281 21.1337C115.072 21.0205 114.905 20.8628 114.782 20.6605C114.662 20.4582 114.601 20.2268 114.601 19.9662C114.601 19.7057 114.662 19.476 114.782 19.2771C114.905 19.0748 115.072 18.9188 115.281 18.8091C115.494 18.6994 115.73 18.6445 115.991 18.6445C116.19 18.6445 116.37 18.6771 116.531 18.7422C116.696 18.8074 116.833 18.9068 116.943 19.0405V18.6754H117.555ZM116.089 20.7531C116.332 20.7531 116.531 20.6811 116.686 20.5371C116.844 20.3897 116.922 20.1994 116.922 19.9662C116.922 19.7365 116.844 19.5497 116.686 19.4057C116.531 19.2617 116.332 19.1897 116.089 19.1897C115.842 19.1897 115.639 19.2617 115.482 19.4057C115.327 19.5497 115.25 19.7365 115.25 19.9662C115.25 20.1994 115.327 20.3897 115.482 20.5371C115.639 20.6811 115.842 20.7531 116.089 20.7531Z" fill="white"/>
<path d="M119.636 21.4577C119.358 21.4577 119.108 21.3977 118.885 21.2777C118.662 21.1577 118.487 20.9914 118.36 20.7788C118.236 20.5628 118.175 20.3194 118.175 20.0485C118.175 19.7777 118.236 19.536 118.36 19.3234C118.487 19.1108 118.662 18.9445 118.885 18.8245C119.108 18.7045 119.358 18.6445 119.636 18.6445C119.918 18.6445 120.17 18.7045 120.393 18.8245C120.616 18.9445 120.789 19.1108 120.913 19.3234C121.04 19.536 121.103 19.7777 121.103 20.0485C121.103 20.3194 121.04 20.5628 120.913 20.7788C120.789 20.9914 120.616 21.1577 120.393 21.2777C120.17 21.3977 119.918 21.4577 119.636 21.4577ZM119.636 20.9074C119.873 20.9074 120.069 20.8285 120.223 20.6708C120.377 20.5131 120.455 20.3057 120.455 20.0485C120.455 19.7914 120.377 19.584 120.223 19.4262C120.069 19.2685 119.873 19.1897 119.636 19.1897C119.4 19.1897 119.204 19.2685 119.05 19.4262C118.899 19.584 118.823 19.7914 118.823 20.0485C118.823 20.3057 118.899 20.5131 119.05 20.6708C119.204 20.8285 119.4 20.9074 119.636 20.9074Z" fill="white"/>
<path d="M122.331 19.0765C122.516 18.7885 122.842 18.6445 123.308 18.6445V19.2565C123.253 19.2462 123.204 19.2411 123.159 19.2411C122.909 19.2411 122.713 19.3148 122.572 19.4622C122.432 19.6062 122.361 19.8154 122.361 20.0897V21.4217H121.718V18.6754H122.331V19.0765Z" fill="white"/>
<path d="M126.528 18.6754L125.241 21.6428C125.121 21.9411 124.975 22.1502 124.804 22.2702C124.632 22.3937 124.425 22.4554 124.181 22.4554C124.044 22.4554 123.908 22.4331 123.774 22.3885C123.641 22.344 123.531 22.2822 123.445 22.2034L123.702 21.7302C123.764 21.7885 123.836 21.8348 123.919 21.8691C124.004 21.9034 124.09 21.9205 124.176 21.9205C124.289 21.9205 124.382 21.8914 124.454 21.8331C124.529 21.7748 124.598 21.6771 124.66 21.54L124.706 21.432L123.507 18.6754H124.176L125.04 20.7068L125.91 18.6754H126.528Z" fill="white"/>
<path d="M128.352 18.6754H128.995V21.4217H128.352V18.6754ZM128.676 18.2228C128.56 18.2228 128.462 18.1868 128.383 18.1148C128.304 18.0394 128.265 17.9468 128.265 17.8371C128.265 17.7274 128.304 17.6365 128.383 17.5645C128.462 17.4891 128.56 17.4514 128.676 17.4514C128.793 17.4514 128.891 17.4874 128.97 17.5594C129.048 17.628 129.088 17.7154 129.088 17.8217C129.088 17.9348 129.048 18.0308 128.97 18.1097C128.894 18.1851 128.796 18.2228 128.676 18.2228Z" fill="white"/>
<path d="M131.399 18.6445C131.745 18.6445 132.023 18.7457 132.233 18.948C132.442 19.1502 132.547 19.4502 132.547 19.848V21.4217H131.903V19.9302C131.903 19.6902 131.847 19.5102 131.733 19.3902C131.62 19.2668 131.459 19.2051 131.25 19.2051C131.013 19.2051 130.826 19.2771 130.689 19.4211C130.552 19.5617 130.483 19.7657 130.483 20.0331V21.4217H129.84V18.6754H130.452V19.0302C130.558 18.9034 130.692 18.8074 130.853 18.7422C131.015 18.6771 131.197 18.6445 131.399 18.6445Z" fill="white"/>
<path d="M135.963 21.4731C135.685 21.4731 135.416 21.4337 135.155 21.3548C134.898 21.276 134.694 21.1714 134.543 21.0411L134.775 20.5217C134.922 20.6382 135.102 20.7342 135.315 20.8097C135.531 20.8817 135.747 20.9177 135.963 20.9177C136.231 20.9177 136.43 20.8748 136.56 20.7891C136.694 20.7034 136.761 20.5902 136.761 20.4497C136.761 20.3468 136.723 20.2628 136.648 20.1977C136.576 20.1291 136.483 20.076 136.37 20.0382C136.257 20.0005 136.102 19.9577 135.907 19.9097C135.632 19.8445 135.409 19.7794 135.238 19.7142C135.07 19.6491 134.924 19.548 134.8 19.4108C134.68 19.2702 134.62 19.0817 134.62 18.8451C134.62 18.6462 134.673 18.4662 134.78 18.3051C134.89 18.1405 135.052 18.0102 135.269 17.9142C135.488 17.8182 135.756 17.7702 136.071 17.7702C136.291 17.7702 136.507 17.7977 136.72 17.8525C136.933 17.9074 137.116 17.9862 137.271 18.0891L137.06 18.6085C136.902 18.516 136.737 18.4457 136.565 18.3977C136.394 18.3497 136.228 18.3257 136.066 18.3257C135.802 18.3257 135.605 18.3702 135.474 18.4594C135.348 18.5485 135.284 18.6668 135.284 18.8142C135.284 18.9171 135.32 19.0011 135.392 19.0662C135.468 19.1314 135.562 19.1828 135.675 19.2205C135.788 19.2582 135.943 19.3011 136.138 19.3491C136.406 19.4108 136.626 19.476 136.797 19.5445C136.969 19.6097 137.114 19.7108 137.235 19.848C137.358 19.9851 137.42 20.1702 137.42 20.4034C137.42 20.6022 137.365 20.7822 137.255 20.9434C137.149 21.1045 136.986 21.2331 136.766 21.3291C136.547 21.4251 136.279 21.4731 135.963 21.4731Z" fill="white"/>
<path d="M140.605 20.064C140.605 20.1085 140.601 20.172 140.595 20.2542H138.438C138.476 20.4565 138.574 20.6177 138.732 20.7377C138.893 20.8542 139.092 20.9125 139.329 20.9125C139.63 20.9125 139.879 20.8131 140.075 20.6142L140.42 21.0102C140.296 21.1577 140.14 21.2691 139.951 21.3445C139.763 21.42 139.55 21.4577 139.313 21.4577C139.011 21.4577 138.745 21.3977 138.515 21.2777C138.286 21.1577 138.107 20.9914 137.98 20.7788C137.857 20.5628 137.795 20.3194 137.795 20.0485C137.795 19.7811 137.855 19.5411 137.975 19.3285C138.099 19.1125 138.268 18.9445 138.485 18.8245C138.701 18.7045 138.944 18.6445 139.215 18.6445C139.483 18.6445 139.721 18.7045 139.931 18.8245C140.143 18.9411 140.308 19.1074 140.425 19.3234C140.545 19.536 140.605 19.7828 140.605 20.064ZM139.215 19.1588C139.009 19.1588 138.835 19.2205 138.69 19.344C138.55 19.464 138.464 19.6251 138.433 19.8274H139.992C139.965 19.6285 139.881 19.4674 139.74 19.344C139.6 19.2205 139.425 19.1588 139.215 19.1588Z" fill="white"/>
<path d="M142.746 18.6445C143.014 18.6445 143.252 18.7028 143.461 18.8194C143.674 18.936 143.841 19.1005 143.961 19.3131C144.081 19.5257 144.141 19.7708 144.141 20.0485C144.141 20.3262 144.081 20.5731 143.961 20.7891C143.841 21.0017 143.674 21.1662 143.461 21.2828C143.252 21.3994 143.014 21.4577 142.746 21.4577C142.376 21.4577 142.082 21.3342 141.866 21.0874V22.4194H141.223V18.6754H141.835V19.0354C141.942 18.9051 142.072 18.8074 142.226 18.7422C142.384 18.6771 142.557 18.6445 142.746 18.6445ZM142.674 20.9074C142.911 20.9074 143.105 20.8285 143.256 20.6708C143.41 20.5131 143.487 20.3057 143.487 20.0485C143.487 19.7914 143.41 19.584 143.256 19.4262C143.105 19.2685 142.911 19.1897 142.674 19.1897C142.52 19.1897 142.381 19.2257 142.257 19.2977C142.134 19.3662 142.036 19.4657 141.964 19.596C141.892 19.7262 141.856 19.8771 141.856 20.0485C141.856 20.22 141.892 20.3708 141.964 20.5011C142.036 20.6314 142.134 20.7325 142.257 20.8045C142.381 20.8731 142.52 20.9074 142.674 20.9074Z" fill="white"/>
<path d="M146.403 21.2725C146.327 21.3342 146.235 21.3805 146.125 21.4114C146.018 21.4422 145.905 21.4577 145.785 21.4577C145.483 21.4577 145.25 21.3788 145.085 21.2211C144.921 21.0634 144.838 20.8337 144.838 20.532V19.2102H144.385V18.696H144.838V18.0685H145.482V18.696H146.217V19.2102H145.482V20.5165C145.482 20.6502 145.514 20.7531 145.579 20.8251C145.645 20.8937 145.739 20.928 145.862 20.928C146.006 20.928 146.127 20.8902 146.223 20.8148L146.403 21.2725Z" fill="white"/>
<path d="M149.425 20.064C149.425 20.1085 149.421 20.172 149.415 20.2542H147.258C147.296 20.4565 147.394 20.6177 147.552 20.7377C147.713 20.8542 147.912 20.9125 148.149 20.9125C148.451 20.9125 148.699 20.8131 148.895 20.6142L149.24 21.0102C149.116 21.1577 148.96 21.2691 148.771 21.3445C148.583 21.42 148.37 21.4577 148.133 21.4577C147.831 21.4577 147.565 21.3977 147.336 21.2777C147.106 21.1577 146.927 20.9914 146.8 20.7788C146.677 20.5628 146.615 20.3194 146.615 20.0485C146.615 19.7811 146.675 19.5411 146.795 19.3285C146.919 19.1125 147.088 18.9445 147.305 18.8245C147.521 18.7045 147.764 18.6445 148.035 18.6445C148.303 18.6445 148.541 18.7045 148.751 18.8245C148.963 18.9411 149.128 19.1074 149.245 19.3234C149.365 19.536 149.425 19.7828 149.425 20.064ZM148.035 19.1588C147.83 19.1588 147.655 19.2205 147.51 19.344C147.37 19.464 147.284 19.6251 147.253 19.8274H148.812C148.785 19.6285 148.701 19.4674 148.56 19.344C148.42 19.2205 148.245 19.1588 148.035 19.1588Z" fill="white"/>
<path d="M153.511 18.6445C153.858 18.6445 154.132 18.7457 154.335 18.948C154.537 19.1468 154.638 19.4468 154.638 19.848V21.4217H153.995V19.9302C153.995 19.6902 153.942 19.5102 153.836 19.3902C153.729 19.2668 153.577 19.2051 153.378 19.2051C153.161 19.2051 152.988 19.2771 152.858 19.4211C152.727 19.5617 152.662 19.764 152.662 20.028V21.4217H152.019V19.9302C152.019 19.6902 151.966 19.5102 151.859 19.3902C151.753 19.2668 151.6 19.2051 151.401 19.2051C151.182 19.2051 151.007 19.2754 150.877 19.416C150.75 19.5565 150.686 19.7605 150.686 20.028V21.4217H150.043V18.6754H150.655V19.0251C150.758 18.9017 150.887 18.8074 151.041 18.7422C151.196 18.6771 151.367 18.6445 151.556 18.6445C151.762 18.6445 151.944 18.684 152.101 18.7628C152.263 18.8382 152.39 18.9514 152.482 19.1022C152.595 18.9582 152.741 18.8468 152.92 18.768C153.098 18.6857 153.295 18.6445 153.511 18.6445Z" fill="white"/>
<path d="M156.984 18.6445C157.251 18.6445 157.49 18.7028 157.699 18.8194C157.912 18.936 158.078 19.1005 158.198 19.3131C158.318 19.5257 158.378 19.7708 158.378 20.0485C158.378 20.3262 158.318 20.5731 158.198 20.7891C158.078 21.0017 157.912 21.1662 157.699 21.2828C157.49 21.3994 157.251 21.4577 156.984 21.4577C156.795 21.4577 156.622 21.4251 156.464 21.36C156.31 21.2948 156.179 21.1971 156.073 21.0668V21.4217H155.46V17.6057H156.104V19.0097C156.214 18.8897 156.342 18.7988 156.49 18.7371C156.641 18.6754 156.805 18.6445 156.984 18.6445ZM156.912 20.9074C157.148 20.9074 157.342 20.8285 157.493 20.6708C157.648 20.5131 157.725 20.3057 157.725 20.0485C157.725 19.7914 157.648 19.584 157.493 19.4262C157.342 19.2685 157.148 19.1897 156.912 19.1897C156.757 19.1897 156.618 19.2257 156.495 19.2977C156.371 19.3662 156.274 19.4657 156.202 19.596C156.13 19.7262 156.093 19.8771 156.093 20.0485C156.093 20.22 156.13 20.3708 156.202 20.5011C156.274 20.6314 156.371 20.7325 156.495 20.8045C156.618 20.8731 156.757 20.9074 156.912 20.9074Z" fill="white"/>
<path d="M161.572 20.064C161.572 20.1085 161.569 20.172 161.562 20.2542H159.405C159.443 20.4565 159.541 20.6177 159.699 20.7377C159.86 20.8542 160.059 20.9125 160.296 20.9125C160.598 20.9125 160.846 20.8131 161.042 20.6142L161.387 21.0102C161.263 21.1577 161.107 21.2691 160.918 21.3445C160.73 21.42 160.517 21.4577 160.28 21.4577C159.978 21.4577 159.712 21.3977 159.483 21.2777C159.253 21.1577 159.074 20.9914 158.947 20.7788C158.824 20.5628 158.762 20.3194 158.762 20.0485C158.762 19.7811 158.822 19.5411 158.942 19.3285C159.066 19.1125 159.236 18.9445 159.452 18.8245C159.668 18.7045 159.911 18.6445 160.182 18.6445C160.45 18.6445 160.689 18.7045 160.898 18.8245C161.111 18.9411 161.275 19.1074 161.392 19.3234C161.512 19.536 161.572 19.7828 161.572 20.064ZM160.182 19.1588C159.977 19.1588 159.802 19.2205 159.658 19.344C159.517 19.464 159.431 19.6251 159.4 19.8274H160.96C160.932 19.6285 160.848 19.4674 160.707 19.344C160.567 19.2205 160.392 19.1588 160.182 19.1588Z" fill="white"/>
<path d="M162.802 19.0765C162.988 18.7885 163.313 18.6445 163.78 18.6445V19.2565C163.725 19.2462 163.675 19.2411 163.631 19.2411C163.38 19.2411 163.185 19.3148 163.044 19.4622C162.903 19.6062 162.833 19.8154 162.833 20.0897V21.4217H162.19V18.6754H162.802V19.0765Z" fill="white"/>
<path d="M168.187 20.856V21.4217H165.531V20.9742L166.962 19.6165C167.123 19.4622 167.231 19.3285 167.286 19.2154C167.345 19.0988 167.374 18.984 167.374 18.8708C167.374 18.7028 167.317 18.5742 167.204 18.4851C167.091 18.396 166.924 18.3514 166.705 18.3514C166.338 18.3514 166.056 18.4765 165.861 18.7268L165.392 18.3668C165.533 18.1782 165.722 18.0325 165.958 17.9297C166.199 17.8234 166.466 17.7702 166.761 17.7702C167.152 17.7702 167.465 17.8628 167.698 18.048C167.931 18.2331 168.048 18.4851 168.048 18.804C168.048 18.9994 168.007 19.1828 167.924 19.3542C167.842 19.5257 167.684 19.7211 167.451 19.9405L166.489 20.856H168.187Z" fill="white"/>
<path d="M170.061 21.4731C169.772 21.4731 169.515 21.4011 169.289 21.2571C169.062 21.1097 168.884 20.8971 168.753 20.6194C168.623 20.3382 168.558 20.0057 168.558 19.6217C168.558 19.2377 168.623 18.9068 168.753 18.6291C168.884 18.348 169.062 18.1354 169.289 17.9914C169.515 17.844 169.772 17.7702 170.061 17.7702C170.349 17.7702 170.606 17.844 170.832 17.9914C171.062 18.1354 171.242 18.348 171.373 18.6291C171.503 18.9068 171.568 19.2377 171.568 19.6217C171.568 20.0057 171.503 20.3382 171.373 20.6194C171.242 20.8971 171.062 21.1097 170.832 21.2571C170.606 21.4011 170.349 21.4731 170.061 21.4731ZM170.061 20.892C170.318 20.892 170.52 20.7857 170.668 20.5731C170.819 20.3605 170.894 20.0434 170.894 19.6217C170.894 19.2 170.819 18.8828 170.668 18.6702C170.52 18.4577 170.318 18.3514 170.061 18.3514C169.807 18.3514 169.604 18.4577 169.453 18.6702C169.306 18.8828 169.232 19.2 169.232 19.6217C169.232 20.0434 169.306 20.3605 169.453 20.5731C169.604 20.7857 169.807 20.892 170.061 20.892Z" fill="white"/>
<path d="M174.605 20.856V21.4217H171.949V20.9742L173.38 19.6165C173.541 19.4622 173.649 19.3285 173.704 19.2154C173.762 19.0988 173.791 18.984 173.791 18.8708C173.791 18.7028 173.735 18.5742 173.622 18.4851C173.508 18.396 173.342 18.3514 173.122 18.3514C172.755 18.3514 172.474 18.4765 172.278 18.7268L171.81 18.3668C171.951 18.1782 172.139 18.0325 172.376 17.9297C172.616 17.8234 172.884 17.7702 173.179 17.7702C173.57 17.7702 173.882 17.8628 174.116 18.048C174.349 18.2331 174.466 18.4851 174.466 18.804C174.466 18.9994 174.424 19.1828 174.342 19.3542C174.26 19.5257 174.102 19.7211 173.869 19.9405L172.906 20.856H174.605Z" fill="white"/>
<path d="M177.6 20.856V21.4217H174.944V20.9742L176.375 19.6165C176.536 19.4622 176.644 19.3285 176.699 19.2154C176.758 19.0988 176.787 18.984 176.787 18.8708C176.787 18.7028 176.73 18.5742 176.617 18.4851C176.504 18.396 176.337 18.3514 176.118 18.3514C175.751 18.3514 175.469 18.4765 175.274 18.7268L174.805 18.3668C174.946 18.1782 175.135 18.0325 175.372 17.9297C175.612 17.8234 175.879 17.7702 176.174 17.7702C176.565 17.7702 176.878 17.8628 177.111 18.048C177.344 18.2331 177.461 18.4851 177.461 18.804C177.461 18.9994 177.42 19.1828 177.337 19.3542C177.255 19.5257 177.097 19.7211 176.864 19.9405L175.902 20.856H177.6Z" fill="white"/>
<path d="M174.844 4.45716L175.659 4.90717L175.381 5.3929L174.551 4.90717L174.559 5.82863H174.015L174.022 4.91432L173.2 5.3929L172.915 4.90717L173.737 4.45716L172.915 4.00715L173.2 3.51428L174.022 4.00001L174.015 3.08569H174.559L174.551 4.00715L175.381 3.51428L175.659 4.00715L174.844 4.45716Z" fill="white"/>
</svg>
