<svg width="225" height="60" viewBox="0 0 225 60" fill="none" xmlns="http://www.w3.org/2000/svg">
<path fill-rule="evenodd" clip-rule="evenodd" d="M73.8948 14.0648H78.1035C78.1275 14.1607 78.1475 14.2766 78.1634 14.4125C78.1794 14.5484 78.1874 14.6843 78.1874 14.8202C78.1874 15.3718 78.1035 15.8913 77.9356 16.379C77.7678 16.8666 77.504 17.3022 77.1443 17.6859C76.7606 18.0936 76.3009 18.4093 75.7653 18.6332C75.2298 18.857 74.6183 18.9689 73.9308 18.9689C73.3073 18.9689 72.7198 18.857 72.1682 18.6332C71.6166 18.4093 71.137 18.0976 70.7293 17.6979C70.3217 17.2982 69.9979 16.8266 69.7581 16.283C69.5183 15.7315 69.3984 15.1319 69.3984 14.4845C69.3984 13.837 69.5183 13.2414 69.7581 12.6979C69.9979 12.1463 70.3217 11.6707 70.7293 11.271C71.137 10.8713 71.6166 10.5596 72.1682 10.3357C72.7198 10.1119 73.3073 10 73.9308 10C74.6262 10 75.2458 10.1199 75.7893 10.3597C76.3409 10.5995 76.8125 10.9313 77.2042 11.3549L76.0891 12.4461C75.8093 12.1503 75.4976 11.9265 75.1538 11.7746C74.8101 11.6147 74.3984 11.5348 73.9188 11.5348C73.5271 11.5348 73.1554 11.6067 72.8037 11.7506C72.452 11.8865 72.1442 12.0824 71.8804 12.3382C71.6166 12.5939 71.4048 12.9057 71.2449 13.2734C71.093 13.6331 71.0171 14.0368 71.0171 14.4845C71.0171 14.9321 71.093 15.3398 71.2449 15.7075C71.4048 16.0672 71.6166 16.375 71.8804 16.6308C72.1522 16.8866 72.464 17.0864 72.8157 17.2303C73.1674 17.3662 73.5431 17.4341 73.9428 17.4341C74.3984 17.4341 74.7821 17.3702 75.0939 17.2423C75.4136 17.1064 75.6854 16.9345 75.9092 16.7267C76.0691 16.5828 76.205 16.4029 76.3169 16.1871C76.4368 15.9633 76.5287 15.7155 76.5927 15.4437H73.8948V14.0648ZM81.1439 11.7266V13.7171H84.5852V15.2518H81.1439V17.2423H84.9689V18.7771H79.5252V10.1918H84.9689V11.7266H81.1439ZM88.2798 11.7266V18.7771H89.8985V11.7266H92.2966V10.1918H85.8817V11.7266H88.2798ZM96.0824 10.1918H97.7011V18.7771H96.0824V10.1918ZM101.254 11.7266V18.7771H102.873V11.7266H105.271V10.1918H98.8558V11.7266H101.254ZM112.887 18.9689C112.248 18.9689 111.652 18.853 111.101 18.6212C110.557 18.3894 110.085 18.0736 109.686 17.6739C109.286 17.2663 108.97 16.7906 108.738 16.2471C108.515 15.6955 108.403 15.108 108.403 14.4845C108.403 13.8609 108.515 13.2774 108.738 12.7338C108.97 12.1823 109.286 11.7067 109.686 11.307C110.085 10.8993 110.557 10.5795 111.101 10.3477C111.652 10.1159 112.248 10 112.887 10C113.527 10 114.118 10.1159 114.662 10.3477C115.213 10.5795 115.689 10.8993 116.089 11.307C116.488 11.7067 116.8 12.1823 117.024 12.7338C117.256 13.2774 117.372 13.8609 117.372 14.4845C117.372 15.108 117.256 15.6955 117.024 16.2471C116.8 16.7906 116.488 17.2663 116.089 17.6739C115.689 18.0736 115.213 18.3894 114.662 18.6212C114.118 18.853 113.527 18.9689 112.887 18.9689ZM112.887 17.4341C113.287 17.4341 113.659 17.3622 114.002 17.2183C114.354 17.0744 114.658 16.8746 114.914 16.6188C115.177 16.363 115.381 16.0552 115.525 15.6955C115.677 15.3278 115.753 14.9241 115.753 14.4845C115.753 14.0448 115.677 13.6451 115.525 13.2854C115.381 12.9177 115.177 12.6059 114.914 12.3501C114.658 12.0943 114.354 11.8945 114.002 11.7506C113.659 11.6067 113.287 11.5348 112.887 11.5348C112.487 11.5348 112.112 11.6067 111.76 11.7506C111.416 11.8945 111.113 12.0943 110.849 12.3501C110.593 12.6059 110.389 12.9177 110.237 13.2854C110.093 13.6451 110.021 14.0448 110.021 14.4845C110.021 14.9241 110.093 15.3278 110.237 15.6955C110.389 16.0552 110.593 16.363 110.849 16.6188C111.113 16.8746 111.416 17.0744 111.76 17.2183C112.112 17.3622 112.487 17.4341 112.887 17.4341ZM120.564 10.1918H118.682V18.7771H120.276V14.3526L120.181 12.6979H120.276L123.922 18.7771H125.624V10.1918H124.018V14.2926L124.113 15.9473H124.018L120.564 10.1918ZM30.5331 22.2754V30.9354H30.5409V34.5328C30.5409 35.476 30.5391 36.4193 30.5374 37.3626C30.534 39.2491 30.5305 41.1357 30.5409 43.0222L30.5409 43.0243C30.5486 44.3959 30.5564 45.7752 30.6494 47.139C30.6959 47.829 30.9983 48.4725 31.5953 48.8989C32.5256 49.5657 34.3475 49.2013 35.1228 48.2399C37.4875 45.3093 39.8599 42.3865 42.2323 39.4636L48.4889 31.765C48.5505 31.6902 48.6252 31.6141 48.7007 31.5373L48.7007 31.5373C48.891 31.3435 49.0858 31.1453 49.0858 30.9509C49.0858 30.7544 48.8975 30.5617 48.7102 30.3702L48.7102 30.3702L48.7102 30.3701L48.7102 30.3701L48.7102 30.3701C48.6315 30.2896 48.5531 30.2094 48.4889 30.1291C46.225 27.3303 43.9612 24.5315 41.6896 21.7327C40.6984 20.5131 39.7072 19.2954 38.716 18.0777L38.7156 18.0773L38.7153 18.0769L38.715 18.0765L38.7124 18.0733L38.7121 18.0729C37.7198 16.8539 36.7276 15.6349 35.7353 14.414C35.6517 14.3111 35.5717 14.2016 35.4914 14.0919C35.2814 13.8049 35.0699 13.5158 34.7895 13.3363C34.3088 13.0184 33.7273 12.8014 33.1613 12.6773C32.0682 12.437 31.2696 12.9099 30.8665 13.9643C30.7114 14.383 30.5641 14.8404 30.5641 15.2823C30.5331 17.6159 30.5331 19.9496 30.5331 22.2754ZM56.3246 36.5531L56.3271 36.5562H56.3194L56.3246 36.5531ZM56.3246 36.5531L55.7811 35.8847L55.7804 35.8838L55.7783 35.8813L55.7773 35.88C54.4423 34.2384 53.1105 32.6006 51.7607 30.9508C52.4801 30.0611 53.1919 29.1792 53.9036 28.2973L53.9038 28.2971L53.9071 28.2929L53.9082 28.2916C54.0885 28.0706 54.2692 27.8502 54.4499 27.6297L54.45 27.6296L54.45 27.6296L54.4501 27.6294C54.9923 26.9681 55.5345 26.3067 56.0635 25.6323C56.2574 25.3842 56.4047 25.3377 56.6838 25.5005C57.3329 25.884 57.9868 26.2627 58.6413 26.6418L58.6415 26.6419L58.6417 26.6421L58.6419 26.6422L58.6421 26.6423L58.6423 26.6424L58.6423 26.6424L58.6424 26.6425L58.6424 26.6425C59.668 27.2366 60.6951 27.8315 61.7077 28.4466C62.1573 28.718 62.576 29.0901 62.9016 29.5088C63.6847 30.4934 63.5529 31.6718 62.6845 32.6022C62.1388 33.182 61.4671 33.5637 60.7908 33.9481L60.7903 33.9484L60.7899 33.9486C60.6978 34.0009 60.6056 34.0533 60.5137 34.1062C59.1276 34.9193 57.7493 35.7246 56.3246 36.5531ZM38.3094 15.3362C42.8497 17.9742 47.3956 20.6122 51.9666 23.2647L54.2959 24.6164L50.0318 29.8652C48.6142 28.1211 47.1996 26.38 45.7866 24.6408L45.7861 24.6402C43.2736 21.5477 40.766 18.4614 38.2552 15.375L38.3094 15.3285V15.3362ZM43.7427 39.742L43.7415 39.7434C41.9078 41.9982 40.0766 44.2499 38.2471 46.5033V46.511L38.3013 46.5575L54.2723 37.2463L50.0237 32.0131C47.9264 34.5976 45.8335 37.1711 43.7438 39.7406L43.7427 39.742ZM109.306 31.8824C105.844 31.8824 103.015 34.5148 103.015 38.1324C103.015 41.75 105.844 44.3824 109.306 44.3824C112.768 44.3824 115.596 41.7353 115.596 38.1324C115.596 34.5295 112.768 31.8824 109.306 31.8824ZM109.306 41.9265C107.405 41.9265 105.77 40.3677 105.77 38.1324C105.77 35.8971 107.405 34.3383 109.306 34.3383C111.206 34.3383 112.841 35.8824 112.841 38.1324C112.841 40.3824 111.206 41.9265 109.306 41.9265ZM95.5908 31.8824C92.1289 31.8824 89.3005 34.5148 89.3005 38.1324C89.3005 41.75 92.1289 44.3824 95.5908 44.3824C99.0526 44.3824 101.881 41.7353 101.881 38.1324C101.881 34.5295 99.0526 31.8824 95.5908 31.8824ZM95.5908 41.9265C93.6904 41.9265 92.0552 40.3677 92.0552 38.1324C92.0552 35.8971 93.6904 34.3383 95.5908 34.3383C97.4911 34.3383 99.1263 35.8824 99.1263 38.1324C99.1263 40.3824 97.4911 41.9265 95.5908 41.9265ZM79.2684 33.8089V36.4412H85.6324C85.4408 37.9412 84.94 39.0295 84.1887 39.7795C83.2606 40.7059 81.8169 41.7206 79.2831 41.7206C75.3646 41.7206 72.3005 38.5736 72.3005 34.6618C72.3005 30.7501 75.3646 27.603 79.2831 27.603C81.3897 27.603 82.9365 28.4265 84.0708 29.5001L85.9417 27.6324C84.3507 26.1177 82.2441 24.956 79.2684 24.956C73.9062 24.956 69.3984 29.3089 69.3984 34.6765C69.3984 40.0442 73.9062 44.3971 79.2684 44.3971C82.1705 44.3971 84.3507 43.4559 86.0596 41.6765C87.8126 39.9265 88.3577 37.4559 88.3577 35.4706C88.3577 34.853 88.3135 34.2795 88.2104 33.8089H79.2684ZM146.016 35.853C145.501 34.4559 143.91 31.8677 140.654 31.8677C137.398 31.8677 134.747 34.3971 134.747 38.1177C134.747 41.6177 137.398 44.3677 140.963 44.3677C143.836 44.3677 145.501 42.6177 146.178 41.603L144.042 40.1765C143.335 41.2206 142.363 41.9118 140.963 41.9118C139.564 41.9118 138.562 41.2647 137.929 40.0147L146.311 36.5589L146.031 35.853H146.016ZM137.472 37.9412C137.398 35.5295 139.343 34.2942 140.742 34.2942C141.833 34.2942 142.761 34.8383 143.07 35.6177L137.472 37.9412ZM130.666 44H133.421V25.6177H130.666V44ZM126.158 33.2648H126.07C125.451 32.5295 124.273 31.8677 122.77 31.8677C119.632 31.8677 116.76 34.6177 116.76 38.1471C116.76 41.6765 119.632 44.3824 122.77 44.3824C124.273 44.3824 125.451 43.7206 126.07 42.9559H126.158V43.853C126.158 46.25 124.877 47.5294 122.814 47.5294C121.135 47.5294 120.089 46.3236 119.662 45.3088L117.261 46.3088C117.953 47.9706 119.78 50 122.814 50C126.041 50 128.766 48.103 128.766 43.4853V32.2501H126.158V33.2648ZM123.006 41.9118C121.106 41.9118 119.515 40.3236 119.515 38.1471C119.515 35.9706 121.106 34.3383 123.006 34.3383C124.906 34.3383 126.35 35.9559 126.35 38.1471C126.35 40.3383 124.877 41.9118 123.006 41.9118ZM158.921 25.6177H152.336V44H155.091V37.0295H158.936C161.985 37.0295 164.976 34.8236 164.976 31.3236C164.976 27.8236 161.985 25.6177 158.936 25.6177H158.921ZM158.995 34.4854H155.091V28.1765H158.995C161.057 28.1765 162.221 29.8824 162.221 31.3236C162.221 32.7648 161.057 34.4706 158.995 34.4706V34.4854ZM175.966 31.8383C173.981 31.8425 171.927 32.7252 171.074 34.6471L173.52 35.6618C174.035 34.6471 175.008 34.3089 176.024 34.3089C177.438 34.3089 178.897 35.1618 178.911 36.6765V36.8677C178.411 36.5883 177.35 36.1618 176.039 36.1618C173.402 36.1618 170.736 37.603 170.736 40.2942C170.736 42.75 172.886 44.3383 175.302 44.3383C177.144 44.3383 178.175 43.5147 178.808 42.5442H178.897V43.9706H181.548V36.9265C181.548 33.6672 179.111 31.8443 175.966 31.8383ZM175.966 31.8383L175.95 31.8383H175.98L175.966 31.8383ZM175.641 41.9118C174.742 41.9118 173.49 41.4559 173.49 40.353C173.49 38.9412 175.052 38.3971 176.407 38.3971C177.615 38.3971 178.19 38.6618 178.911 39.0147C178.705 40.7206 177.232 41.9265 175.641 41.9265V41.9118ZM191.227 32.2354L188.074 40.2059H187.986L184.716 32.2354H181.755L186.66 43.3824L183.861 49.5735H186.734L194.291 32.2354H191.242H191.227ZM166.463 44H169.218V25.6177H166.463V44Z" fill="white"/>
<rect x="1.03311" y="0.5" width="222.758" height="59" rx="13.5" stroke="white"/>
</svg>
