<svg width="104" height="40" viewBox="0 0 104 40" fill="none" xmlns="http://www.w3.org/2000/svg">
<path fill-rule="evenodd" clip-rule="evenodd" d="M86.5343 0.000198374L86.9214 0.000402675L87.3086 0.000198374C89.0656 -0.0012002 90.5786 -0.00240437 91.9302 0.266447C97.4227 1.35898 101.716 5.65254 102.809 11.1451C103.078 12.4966 103.076 14.0096 103.075 15.7666V15.7667V15.7667L103.075 16.1539V23.846L103.075 24.2332V24.2332V24.2333C103.076 25.9903 103.078 27.5033 102.809 28.8549C101.716 34.3474 97.4227 38.6409 91.9302 39.7335C90.5786 40.0023 89.0656 40.0011 87.3085 39.9997L86.9214 39.9995L86.5343 39.9997C84.7773 40.0011 83.2642 40.0023 81.9126 39.7335C76.4201 38.6409 72.1265 34.3474 71.034 28.8549C70.7652 27.5033 70.7664 25.9903 70.7678 24.2333V24.2332V24.2332L70.768 23.846V16.1539L70.7678 15.7667V15.7667V15.7666C70.7664 14.0096 70.7652 12.4966 71.034 11.1451C72.1265 5.65254 76.4201 1.35898 81.9126 0.266447C83.2642 -0.00240437 84.7772 -0.0012002 86.5343 0.000198374ZM86.9214 9.23097C84.5557 9.23097 84.0468 9.25332 83.7134 9.31965C81.8826 9.68382 80.4514 11.115 80.0872 12.9459C80.0209 13.2793 79.9985 13.7882 79.9985 16.1539V23.846C79.9985 26.2118 80.0209 26.7206 80.0872 27.0541C80.4514 28.8849 81.8826 30.3161 83.7134 30.6803C84.0468 30.7466 84.5557 30.7689 86.9214 30.7689C89.2871 30.7689 89.796 30.7466 90.1294 30.6803C91.9603 30.3161 93.3915 28.8849 93.7556 27.0541C93.822 26.7206 93.8443 26.2118 93.8443 23.846V16.1539C93.8443 13.7882 93.822 13.2793 93.7556 12.9459C93.3915 11.115 91.9603 9.68382 90.1294 9.31965C89.796 9.25332 89.2871 9.23097 86.9214 9.23097ZM19.6149 9.23207H2.88961e-05V0.0015024H19.6149C26.6245 0.0015024 32.3069 5.68392 32.3069 12.6935C32.3069 19.7031 26.6245 25.3856 19.6149 25.3856H12.3074C10.7846 25.3856 9.95113 25.39 9.355 25.444L9.34722 25.4447L9.29478 25.4498C9.29285 25.4688 9.29092 25.4889 9.28901 25.51C9.23498 26.1061 9.23056 26.9396 9.23056 28.4624V40.0006H2.88961e-05V28.4624L1.44239e-05 28.2983C-0.000157069 27.0028 -0.000324035 25.7414 0.0961597 24.6768C0.202463 23.5039 0.454373 22.1253 1.23669 20.7703C2.04683 19.367 3.21208 18.2018 4.6153 17.3916C5.9703 16.6093 7.34892 16.3574 8.52182 16.2511C9.58637 16.1546 10.8478 16.1548 12.1433 16.155L12.3074 16.155H19.6149C21.5266 16.155 23.0764 14.6052 23.0764 12.6935C23.0764 10.7818 21.5266 9.23207 19.6149 9.23207ZM54.9979 9.23056H35.383V1.37459e-10H54.9979C62.0075 1.37459e-10 67.6899 5.68241 67.6899 12.692C67.6899 19.0521 63.0118 24.3196 56.9088 25.2412L64.2636 34.8944L67.5153 39.9995H56.7464L45.4265 25.3841H39.9983V16.1535H54.9979C56.9096 16.1535 58.4594 14.6037 58.4594 12.692C58.4594 10.7803 56.9096 9.23056 54.9979 9.23056Z" fill="url(#paint0_linear_4282_66314)"/>
<defs>
<linearGradient id="paint0_linear_4282_66314" x1="102.046" y1="20.0003" x2="2.9843" y2="5.44884" gradientUnits="userSpaceOnUse">
<stop stop-color="#FFB801"/>
<stop offset="1" stop-color="#FC0202"/>
</linearGradient>
</defs>
</svg>
