<svg width="173" height="40" viewBox="0 0 173 40" fill="none" xmlns="http://www.w3.org/2000/svg">
<path fill-rule="evenodd" clip-rule="evenodd" d="M138.461 1.00526e-05L135.186 4.91747e-06C132.48 -9.70521e-05 130.145 -0.00018545 128.23 0.173436C126.204 0.357035 124.198 0.763537 122.307 1.85504C120.203 3.07029 118.455 4.8182 117.239 6.92307C116.148 8.81361 115.741 10.8195 115.558 12.8452C115.384 14.7609 115.384 17.0953 115.384 19.8017V20.1983C115.384 22.9047 115.384 25.2391 115.558 27.1547C115.741 29.1805 116.148 31.1863 117.239 33.0769C118.455 35.1817 120.203 36.9296 122.307 38.1449C124.198 39.2364 126.204 39.6429 128.23 39.8265C130.145 40.0001 132.48 40 135.186 39.9999L138.461 39.9999V30.7692H135.384C132.424 30.7692 130.512 30.7648 129.063 30.6334C127.677 30.5079 127.174 30.296 126.923 30.1508C126.221 29.7457 125.639 29.1631 125.233 28.4615C125.088 28.21 124.876 27.707 124.751 26.3215C124.62 24.8726 124.615 22.9606 124.615 20C124.615 17.0393 124.62 15.1274 124.751 13.6784C124.876 12.2929 125.088 11.7899 125.233 11.5384C125.639 10.8368 126.221 10.2542 126.923 9.8491C127.174 9.70392 127.677 9.49208 129.063 9.3665C130.512 9.23518 132.424 9.23076 135.384 9.23076H138.461V1.00526e-05ZM172.307 9.23075H161.538V39.9999H152.307V9.23075H141.538V0H172.307V9.23075ZM112.307 1.00526e-05L109.032 4.91746e-06C106.326 -9.70526e-05 103.991 -0.000184998 102.076 0.173436C100.05 0.357035 98.0442 0.763537 96.1536 1.85504C94.0488 3.07029 92.3009 4.8182 91.0856 6.92307C89.9941 8.81361 89.5876 10.8195 89.404 12.8452C89.2304 14.7609 89.2305 17.0953 89.2306 19.8017V20.1983C89.2305 22.9047 89.2304 25.2391 89.404 27.1547C89.5876 29.1805 89.9941 31.1863 91.0856 33.0769C92.3009 35.1817 94.0488 36.9296 96.1536 38.1449C98.0442 39.2364 100.05 39.6429 102.076 39.8265C103.991 40.0001 106.326 40 109.032 39.9999L112.307 39.9999V30.7692H109.231C106.27 30.7692 104.358 30.7648 102.909 30.6334C101.523 30.5079 101.02 30.296 100.769 30.1508C100.067 29.7457 99.4848 29.1631 99.0797 28.4615C98.9345 28.21 98.7227 27.707 98.5971 26.3215C98.5514 25.8171 98.521 25.2565 98.5009 24.6151H112.308V15.3844H98.5009C98.521 14.7432 98.5514 14.1828 98.5971 13.6784C98.7227 12.2929 98.9345 11.7899 99.0797 11.5384C99.4848 10.8368 100.067 10.2542 100.769 9.8491C101.02 9.70392 101.523 9.49208 102.909 9.3665C104.358 9.23518 106.27 9.23076 109.231 9.23076H112.307V1.00526e-05ZM56.7247 4.91746e-06L59.9999 1.00526e-05V9.23076H56.923C53.9623 9.23076 52.0504 9.23518 50.6014 9.3665C49.2159 9.49208 48.7129 9.70392 48.4614 9.8491C47.7598 10.2542 47.1772 10.8368 46.7721 11.5384C46.6269 11.7899 46.4151 12.2929 46.2895 13.6784C46.2438 14.1828 46.2135 14.7432 46.1933 15.3844H60.0003V24.6151H46.1933C46.2134 25.2565 46.2438 25.8171 46.2895 26.3215C46.4151 27.707 46.6269 28.21 46.7721 28.4615C47.1772 29.1631 47.7598 29.7457 48.4614 30.1508C48.7129 30.296 49.2159 30.5079 50.6014 30.6334C52.0504 30.7648 53.9623 30.7692 56.923 30.7692H59.9999V39.9999L56.7246 39.9999C54.0183 40 51.6839 40.0001 49.7682 39.8265C47.7425 39.6429 45.7366 39.2364 43.8461 38.1449C41.7412 36.9296 39.9933 35.1817 38.778 33.0769C37.6865 31.1863 37.28 29.1805 37.0964 27.1547C36.9228 25.2391 36.9229 22.9047 36.923 20.1984V20.1983V19.8016V19.8015C36.9229 17.0952 36.9228 14.7608 37.0964 12.8452C37.28 10.8195 37.6865 8.81361 38.778 6.92307C39.9933 4.8182 41.7412 3.07029 43.8461 1.85504C45.7366 0.763537 47.7425 0.357035 49.7682 0.173436C51.6839 -0.000184998 54.0183 -9.70526e-05 56.7247 4.91746e-06ZM22.0201 9.26894C21.8713 9.24539 21.6059 9.23106 20.0003 9.23106H12.1914C10.5564 9.23106 9.23106 10.5565 9.23106 12.1914C9.23106 12.8546 9.68239 13.4326 10.3257 13.5934L25.7597 17.4519C30.5123 18.6401 33.8464 22.9103 33.8464 27.8091C33.8464 34.5421 28.3883 40.0002 21.6553 40.0002H13.8464L13.5696 40.0004C12.4219 40.0014 11.3522 40.0023 10.3826 39.8487C5.11628 39.0146 0.985948 34.8843 0.151839 29.6179C-0.00173305 28.6483 -0.000822659 27.5787 0.000154121 26.4309L0.000310744 26.1541H9.23106C9.23106 27.7597 9.24538 28.0252 9.26894 28.1739C9.47747 29.4905 10.5101 30.5231 11.8266 30.7316C11.9754 30.7552 12.2408 30.7695 13.8464 30.7695H21.6553C23.2903 30.7695 24.6156 29.4441 24.6156 27.8091C24.6156 27.146 24.1643 26.5679 23.521 26.4071L8.08696 22.5486C3.33438 21.3604 0.000310744 17.0902 0.000310744 12.1914C0.000310744 5.45845 5.45845 0.000310744 12.1914 0.000310744H20.0003L20.2771 0.000154121C21.4248 -0.000822659 22.4945 -0.00173305 23.4641 0.151839C28.7304 0.985948 32.8608 5.11628 33.6949 10.3826C33.8484 11.3522 33.8475 12.4219 33.8465 13.5696L33.8464 13.8464H24.6156C24.6156 12.2408 24.6013 11.9754 24.5778 11.8266C24.3692 10.5101 23.3367 9.47747 22.0201 9.26894ZM63.0768 0V16.923L63.0768 17.2269V17.2269C63.0766 21.3184 63.0764 24.8436 63.4559 27.6667C63.8627 30.6921 64.78 33.5922 67.1322 35.9445C69.4845 38.2968 72.3846 39.214 75.41 39.6208C78.2331 40.0004 81.7584 40.0002 85.8499 39.9999L86.9229 39.9999V30.7692H86.1537C81.6718 30.7692 78.7747 30.7594 76.64 30.4724C74.6382 30.2032 74.0107 29.7687 73.6594 29.4174C73.308 29.066 72.8735 28.4386 72.6044 26.4367C72.3174 24.3021 72.3076 21.4049 72.3076 16.923V0H63.0768Z" fill="url(#paint0_linear_4282_66343)"/>
<defs>
<linearGradient id="paint0_linear_4282_66343" x1="136.154" y1="22.3077" x2="32.3076" y2="22.3077" gradientUnits="userSpaceOnUse">
<stop stop-color="#23E5FF"/>
<stop offset="1" stop-color="#593FFD"/>
</linearGradient>
</defs>
</svg>
