<svg width="952" height="80" viewBox="0 0 952 80" fill="none" xmlns="http://www.w3.org/2000/svg">
<path d="M479.863 39.8369C479.863 50.2606 479.933 66.3712 480.331 80H480.416C480.813 66.3712 480.898 49.5373 480.898 39.1562C480.898 35.3129 480.884 15.827 480.416 0H480.331C480.019 10.9059 479.863 25.0594 479.863 39.8369Z" fill="white"/>
<path d="M409.081 34.4336C395.239 34.4336 373.825 34.5045 355.714 34.9016V34.9867C373.825 35.3838 396.189 35.4689 409.988 35.4689C415.094 35.4689 440.99 35.4547 462.008 34.9867V34.9016C447.528 34.5896 428.723 34.4336 409.081 34.4336Z" fill="white"/>
<path d="M456.122 4.52442H416.81C416.101 4.52442 415.108 4.51024 414.059 5.5597C413.066 6.55243 413.364 7.54517 411.719 7.54517H405.989C404.344 7.54517 404.642 6.56662 403.649 5.5597C402.6 4.51024 401.607 4.52442 400.898 4.52442H361.571C360.224 4.52442 359.629 5.7157 360.281 6.77934L360.99 7.95644C361.373 8.60881 361.869 8.70808 362.238 8.77899C362.578 8.8499 362.777 8.89244 363.046 9.34626L363.67 10.4383C364.153 11.3317 364.734 11.4452 365.159 11.5161C365.5 11.587 365.798 11.6012 366.223 12.367C366.677 13.1896 367.287 14.2248 368.719 14.6645C368.719 14.6645 383.397 18.9474 383.412 18.9474C384.943 19.4438 385.326 19.9969 385.78 20.6492C386.021 20.9896 386.744 22.2092 388.73 22.7481L402.699 26.5205C404.004 26.8751 404.925 26.3787 405.564 25.8114L408.102 23.4147C408.755 22.8049 409.024 22.8049 409.676 23.4147L412.215 25.8114C412.853 26.3787 413.761 26.8751 415.08 26.5205L429.049 22.7481C431.034 22.2092 431.758 20.9896 431.999 20.6492C432.452 19.9969 432.835 19.4438 434.367 18.9474L449.059 14.6645C450.492 14.239 451.102 13.2037 451.555 12.367C451.967 11.6012 452.279 11.5728 452.619 11.5161C453.045 11.431 453.626 11.3317 454.108 10.4383L454.732 9.34626C454.988 8.89244 455.2 8.8499 455.541 8.77899C455.909 8.70808 456.406 8.60881 456.789 7.95644L457.498 6.77934C458.065 5.7157 457.469 4.52442 456.122 4.52442ZM361.6 6.96371L361.174 6.25462C361.047 6.04189 360.962 5.5597 361.571 5.5597H400.898C401.692 5.5597 402.585 5.54552 403.451 7.0488C403.564 7.24735 403.692 7.47426 403.862 7.68698H364.011C362.394 7.70117 362.082 7.70117 361.6 6.96371ZM387.099 8.49535H430.609V15.3168H387.099V8.49535ZM364.72 10.1688C364.351 9.80008 364.11 9.03426 363.784 8.58044L386.333 8.48117V9.4739L367.258 10.5801C365.755 10.6935 365.145 10.6085 364.72 10.1688ZM367.67 12.7641C367.457 12.4946 367.287 12.1826 367.117 11.8848C367.031 11.7288 366.946 11.6012 366.861 11.4877C367.131 11.4735 367.187 11.4594 367.698 11.431L386.305 10.2823V11.3459L371.598 12.9201C369.627 13.1328 368.279 13.4306 367.67 12.7641ZM372.704 14.7637C371.626 14.4517 370.69 14.1823 370.024 13.9837C371.811 13.771 386.305 12.1543 386.305 12.1543V13.3314L376.888 14.8488C375.796 15.0332 374.491 15.2459 372.704 14.7637ZM379.242 16.6783C378.292 16.4088 377.271 16.111 376.264 15.8132C376.533 15.7707 376.718 15.7423 377.03 15.6998C377.98 15.5437 386.319 14.1539 386.319 14.1539V15.4303C386.319 15.4303 382.83 16.423 382.816 16.423C382.788 16.4088 380.632 17.0612 379.242 16.6783ZM383.681 17.9689C383.539 17.9263 382.901 17.7419 381.965 17.4725C382.575 17.359 382.958 17.2314 383.043 17.203C383.1 17.1888 386.844 16.0968 386.844 16.0968H391.098L387.17 17.9263C385.908 18.4085 384.801 18.2667 383.681 17.9689ZM387.595 21.1314C387.127 20.8052 386.872 20.4507 386.602 20.0678C386.376 19.7416 386.149 19.4154 385.78 19.075C385.865 19.075 386.262 19.0467 386.702 18.9332C387.17 18.8198 388.191 18.3801 388.191 18.3801L392.913 16.0827H396.062L389.864 20.4649C388.928 21.103 388.177 21.33 387.595 21.1314ZM392.275 22.6489L389.24 21.8263C389.652 21.6561 390.049 21.4292 390.375 21.2165C390.687 21.0038 390.332 21.2732 397.508 16.0827H400.146L395.296 21.0463C394.431 21.9256 393.495 22.89 392.275 22.6489ZM397.055 23.9536L394.204 23.1878C394.984 22.734 395.679 21.9681 395.948 21.6987L401.337 16.111H403.692L399.395 22.8191C398.7 23.8685 397.891 24.0954 397.055 23.9536ZM402.047 25.3009L399.012 24.4783C399.153 24.3791 399.692 24.0529 400.203 23.2303L404.699 16.0827H406.741C406.741 16.0827 404.103 23.826 403.919 24.2089C403.394 25.3576 402.784 25.4427 402.047 25.3009ZM412.867 25.0598L410.357 22.6772C409.308 21.6845 408.414 21.6845 407.351 22.6772L404.84 25.0598C404.642 25.23 404.457 25.3576 404.259 25.4569C404.727 24.8754 404.996 24.0671 405.167 23.5423L407.663 16.0968H410.045L412.541 23.5423C412.725 24.0954 412.995 24.8896 413.449 25.4569C413.25 25.3576 413.066 25.23 412.867 25.0598ZM415.647 25.3009C414.909 25.4427 414.3 25.3576 413.775 24.2231C413.591 23.826 410.953 16.0968 410.953 16.0968H412.995L417.491 23.2445C418.001 24.0529 418.526 24.3932 418.682 24.4925L415.647 25.3009ZM420.653 23.9536C419.816 24.1096 419.008 23.8685 418.299 22.8049L414.002 16.0968H416.37L421.759 21.6845C422.029 21.9681 422.71 22.7198 423.504 23.1736L420.653 23.9536ZM425.432 22.6489C424.199 22.89 423.263 21.9114 422.412 21.0463L417.562 16.0827H420.199C420.199 16.0827 427.021 21.0038 427.333 21.2165C427.659 21.4292 428.042 21.6561 428.467 21.8263L425.432 22.6489ZM431.091 20.082C430.822 20.4649 430.58 20.8194 430.098 21.1456C429.531 21.33 428.765 21.103 427.815 20.4932C427.546 20.323 421.618 16.111 421.618 16.111H424.766C424.766 16.111 428.411 17.9121 429.488 18.4085C430.098 18.6921 430.878 19.0467 431.899 19.1034C431.545 19.4154 431.318 19.7558 431.091 20.082ZM434.027 17.9689C432.906 18.2667 431.8 18.4085 430.538 17.9263C430.084 17.7561 426.61 16.0968 426.61 16.0968H430.864C430.864 16.0968 434.608 17.1888 434.665 17.203C434.764 17.2314 435.133 17.3448 435.743 17.4725C434.807 17.7419 434.169 17.9263 434.027 17.9689ZM438.466 16.6783C437.076 17.0612 434.892 16.4088 434.892 16.4088C434.878 16.4088 431.389 15.4161 431.389 15.4161V14.1397C431.389 14.1397 439.742 15.5296 440.678 15.6856C440.99 15.7423 441.16 15.7707 441.444 15.799C440.423 16.0968 439.416 16.3947 438.466 16.6783ZM445.003 14.7637C443.231 15.2317 441.912 15.019 440.82 14.8488C439.884 14.6928 431.389 13.3314 431.389 13.3314V12.1543L447.67 13.9837C447.017 14.1823 446.067 14.4517 445.003 14.7637ZM450.591 11.899C450.435 12.1968 450.251 12.4946 450.038 12.7783C449.428 13.4448 448.081 13.147 446.095 12.9343L431.389 11.3601V10.2823C431.389 10.2823 449.769 11.4168 449.995 11.431C450.506 11.4594 450.563 11.4735 450.832 11.4877C450.747 11.6154 450.662 11.743 450.591 11.899ZM452.704 10.2965C451.981 10.7503 451.173 10.6226 448.747 10.4808L431.389 9.4739V8.48117L453.924 8.58044C453.47 9.23281 453.342 9.89936 452.704 10.2965ZM456.533 6.25462L456.108 6.96371C455.626 7.70117 455.314 7.70117 453.697 7.70117H413.846C414.016 7.48844 414.144 7.26153 414.257 7.06298C415.122 5.5597 416.016 5.57388 416.81 5.57388H456.136C456.746 5.5597 456.661 6.04189 456.533 6.25462ZM412.13 13.9412C412.031 12.7074 411.96 11.9841 411.903 11.4877C411.236 12.6932 410.953 13.2605 410.683 13.8845H410.414C409.747 12.5372 409.676 12.3812 409.492 12.0266C409.435 11.9132 409.35 11.7714 409.223 11.5161C409.166 11.9983 409.067 12.9626 408.996 13.9412H408.315C408.513 12.523 408.825 10.1121 408.854 9.91354H409.265C409.265 9.91354 410.244 11.8565 410.669 12.5939C411.165 11.6863 411.477 11.0481 412.116 9.91354H412.484C412.555 10.495 412.768 12.3386 412.967 13.9412H412.13ZM424.553 9.91354H423.759V13.9412H424.553V9.91354ZM422.156 13.9412V10.5092C422.752 10.5234 423.064 10.5517 423.362 10.5943V9.91354H420.114V10.5943C420.455 10.5517 420.795 10.5234 421.362 10.5092V13.9412H422.156ZM396.998 13.9412V10.5092C397.593 10.5234 397.905 10.5517 398.203 10.5943V9.91354H394.956V10.5943C395.296 10.5517 395.636 10.5234 396.204 10.5092V13.9412H396.998ZM406.315 13.9412V9.91354H405.691V12.5088L403.295 9.91354H402.841V13.9412H403.479V11.2183L405.918 13.9412H406.315ZM392.289 12.8066V13.7001C392.545 13.8561 392.857 14.0405 393.381 14.0405C394.246 14.0405 395.027 13.5583 395.027 12.7216C395.027 12.4521 394.941 11.9699 394.332 11.7005C393.821 11.4735 393.495 11.4168 393.268 11.2325C392.871 10.8921 393.197 10.3532 393.736 10.3532C393.906 10.3532 394.303 10.3957 394.417 10.7928H394.715V10.0554C394.431 9.92772 394.076 9.80009 393.708 9.80009C393.381 9.80009 393.069 9.89936 392.814 10.0837C392.204 10.5375 392.034 11.4452 392.899 11.9699C393.452 12.2961 394.19 12.2677 394.218 12.8634C394.232 13.303 393.807 13.4732 393.495 13.4732C392.857 13.4732 392.658 12.9201 392.616 12.8066H392.289ZM392.275 13.9412L390.502 9.82845H390.162L388.333 13.9412H389.084C389.184 13.615 389.254 13.3597 389.481 12.8066H390.928C391.112 13.2463 391.24 13.6434 391.353 13.9412H392.275ZM389.708 12.2819C389.793 12.0834 389.808 12.0408 390.205 11.1048C390.588 11.9983 390.616 12.055 390.701 12.2819H389.708ZM402.316 11.9274C402.316 10.5092 401.252 9.77172 400.217 9.77172C399.182 9.77172 398.118 10.495 398.118 11.9274C398.118 13.3456 399.182 14.083 400.217 14.083C401.267 14.083 402.316 13.3597 402.316 11.9274ZM400.231 13.5441C399.593 13.5441 399.026 12.9485 399.026 11.9274C399.026 10.8637 399.636 10.3106 400.231 10.3106C400.827 10.3106 401.437 10.8637 401.437 11.9274C401.437 12.991 400.827 13.5441 400.231 13.5441ZM417.25 13.9412H418.044V12.2819H418.242L419.59 13.9412H420.582L419.079 12.1685C419.292 12.0834 419.476 11.9699 419.618 11.8281C420.029 11.4168 420.086 10.7077 419.618 10.2397C419.377 9.99863 419.107 9.871 418.427 9.871C418.427 9.871 417.505 9.88518 417.264 9.89936L417.25 13.9412ZM418.044 10.3957C418.143 10.3815 418.228 10.3815 418.313 10.3815C419.136 10.3815 419.164 10.9914 419.164 11.0765C419.164 11.5019 418.795 11.8848 418.044 11.7572V10.3957ZM417.037 13.9412L415.264 9.82845H414.924L413.094 13.9412H413.846C413.945 13.615 414.016 13.3597 414.243 12.8066H415.675C415.86 13.2463 415.987 13.6434 416.101 13.9412H417.037ZM414.484 12.2819C414.569 12.0834 414.583 12.0408 414.98 11.1048C415.363 11.9983 415.392 12.055 415.477 12.2819H414.484ZM428.85 13.9412V9.91354H428.226V12.5088L425.815 9.91354H425.362V13.9412H426V11.2183L428.439 13.9412H428.85Z" fill="white"/>
<path d="M401.508 68.9669H400.997L397.948 75.8168H399.111C399.224 75.4055 399.366 74.9375 399.777 73.9022H402.273C402.571 74.6397 402.812 75.3204 402.997 75.8168H404.457L401.508 68.9669ZM401.025 70.9524C401.763 72.6542 401.777 72.6542 401.947 73.108H400.104C400.302 72.6684 400.316 72.6542 401.025 70.9524Z" fill="white"/>
<path d="M448.01 68.9669H447.514L444.465 75.8168H445.627C445.741 75.4055 445.883 74.9375 446.294 73.9022H448.79C449.088 74.6397 449.329 75.3204 449.513 75.8168H450.974L448.01 68.9669ZM447.542 70.9524C448.279 72.6542 448.294 72.6542 448.464 73.108H446.62C446.819 72.6684 446.819 72.6542 447.542 70.9524Z" fill="white"/>
<path d="M383.993 75.8164C383.823 73.6891 383.695 72.4128 383.596 71.5619C382.447 73.6324 381.951 74.6393 381.483 75.7172H381.1C379.937 73.3346 379.809 73.1077 379.54 72.6113C379.426 72.3986 379.299 72.1575 379.015 71.6044C378.958 72.0299 378.76 73.9019 378.618 75.8164H377.569C377.909 73.4055 378.434 69.3353 378.462 69.1084H379.086C379.185 69.2928 379.27 69.4771 379.356 69.6615C380.121 71.1931 380.731 72.4128 381.469 73.675L381.483 73.6891L381.497 73.675C381.823 73.0651 382.135 72.4979 382.419 71.9448C382.873 71.0939 383.341 70.2146 383.965 69.1084H384.518C384.546 69.3211 384.929 72.6397 385.312 75.8164H383.993Z" fill="white"/>
<path d="M457.866 75.8164C457.696 73.6891 457.569 72.4128 457.469 71.5619C456.321 73.6324 455.824 74.6393 455.356 75.7172H454.973C453.81 73.3346 453.683 73.1077 453.413 72.6113C453.3 72.3986 453.172 72.1575 452.889 71.6044C452.846 72.0299 452.633 73.9019 452.491 75.8164H451.442C451.782 73.4055 452.307 69.3353 452.335 69.1084H452.959C453.059 69.2928 453.144 69.4771 453.229 69.6615C453.995 71.1931 454.605 72.4128 455.342 73.675L455.356 73.6891L455.37 73.675C455.697 73.0651 456.009 72.4979 456.292 71.9448C456.746 71.0939 457.214 70.2146 457.838 69.1084H458.391C458.42 69.3211 458.802 72.6397 459.185 75.8164H457.866Z" fill="white"/>
<path d="M366.875 76.0579C365.471 76.0579 364.649 75.3204 364.45 75.1219C363.883 74.583 363.387 73.7179 363.387 72.4699C363.387 71.2218 363.883 70.3567 364.45 69.8178C364.649 69.6335 365.471 68.8818 366.875 68.8818C367.726 68.8818 369.357 69.2364 370.066 70.9382C370.265 71.392 370.35 71.9168 370.35 72.4699C370.35 73.7179 369.854 74.583 369.286 75.1219C369.088 75.3062 368.265 76.0579 366.875 76.0579ZM366.875 75.2495C367.911 75.2495 368.974 74.2851 368.974 72.4557C368.974 70.6262 367.925 69.6618 366.875 69.6618C365.84 69.6618 364.777 70.6262 364.777 72.4557C364.777 74.2851 365.826 75.2495 366.875 75.2495Z" fill="white"/>
<path d="M411.222 76.0579C409.818 76.0579 408.996 75.3204 408.797 75.1219C408.23 74.583 407.733 73.7179 407.733 72.4699C407.733 71.2218 408.23 70.3567 408.797 69.8178C408.996 69.6335 409.818 68.8818 411.222 68.8818C412.073 68.8818 413.704 69.2364 414.413 70.9382C414.612 71.392 414.697 71.9168 414.697 72.4699C414.697 73.7179 414.2 74.583 413.633 75.1219C413.449 75.3062 412.626 76.0579 411.222 76.0579ZM411.222 75.2495C412.257 75.2495 413.321 74.2851 413.321 72.4557C413.321 70.6262 412.272 69.6618 411.222 69.6618C410.187 69.6618 409.123 70.6262 409.123 72.4557C409.123 74.2851 410.187 75.2495 411.222 75.2495Z" fill="white"/>
<path d="M371.555 69.0943C371.924 69.0659 373.442 69.0518 373.47 69.0518C374.619 69.0518 375.073 69.2787 375.455 69.6616C375.824 70.0303 376.009 70.4983 375.994 70.9947C375.98 71.4627 375.782 71.9307 375.455 72.2569C375.101 72.6114 374.661 72.7816 374.505 72.8383L377.03 75.8023H375.498L373.229 72.9943H372.818V75.8023H371.57L371.555 69.0943ZM373.3 69.8034C373.144 69.8034 372.974 69.8176 372.803 69.8459H372.789V72.2143H372.803C372.988 72.2427 373.158 72.2569 373.314 72.2569C374.321 72.2569 374.775 71.6187 374.775 71.0089C374.775 70.9238 374.761 70.5125 374.434 70.1863C374.179 69.931 373.796 69.8034 373.3 69.8034Z" fill="white"/>
<path d="M393.665 75.8164V69.1084H394.913V74.9372H397.693V75.8164H393.665Z" fill="white"/>
<path d="M428.368 69.3779H427.858V69.1084H429.219V69.3779H428.694V70.8528H428.368V69.3779Z" fill="white"/>
<path d="M430.992 70.144C430.978 69.9171 430.963 69.6477 430.963 69.4066H430.949C430.893 69.6193 430.822 69.8604 430.737 70.0731L430.495 70.8389H430.226L429.985 70.0873C429.914 69.8604 429.857 69.6193 429.801 69.4066C429.786 69.6335 429.786 69.9171 429.772 70.1582L429.73 70.8673H429.418L429.531 69.1229H429.971L430.212 69.832C430.283 70.0306 430.325 70.2433 430.382 70.4418H430.396C430.439 70.2575 430.51 70.0306 430.581 69.832L430.836 69.1371H431.275L431.375 70.8815H431.049L430.992 70.144Z" fill="white"/>
<path d="M421.079 75.8164C420.795 75.4619 418.795 73.2495 416.881 71.1364V75.8164H415.916V69.1084H416.597L420.724 73.5899V69.1084H421.688V75.8164H421.079Z" fill="white"/>
<path d="M435.757 75.8168V70.0164C434.707 70.0306 434.055 70.1015 433.644 70.1441V69.0946H439.033V70.1441C438.721 70.1015 438.111 70.0164 437.005 70.0022V75.8026L435.757 75.8168Z" fill="white"/>
<path d="M424.44 74.923V72.7532H426.836V71.9306H424.44V69.9452C425.007 69.9452 425.801 69.9452 427.177 70.0303V69.0801H423.192V75.7881H427.29V74.7954C426.383 74.8805 425.347 74.923 424.44 74.923Z" fill="white"/>
<path d="M441.16 74.923V72.7532H443.557V71.9306H441.16V69.9452C441.727 69.9452 442.522 69.9452 443.897 70.0303V69.0801H439.912V75.7881H444.011V74.7954C443.103 74.8805 442.054 74.923 441.16 74.923Z" fill="white"/>
<path d="M391.084 69.1084C391.126 71.6895 391.112 72.7106 391.112 72.7106C391.112 73.5473 391.056 75.0648 389.439 75.0648C388.857 75.0648 387.709 74.9655 387.709 73.051C387.709 71.3208 387.751 69.1793 387.751 69.1084H386.446C386.446 69.1935 386.446 71.1506 386.446 73.051C386.446 75.8022 388.659 75.9157 389.212 75.9157C390.8 75.9157 392.048 75.1924 392.077 72.9942L392.091 69.1084H391.084Z" fill="white"/>
<path d="M362.607 70.0586V69.1084H358.522V75.8306H359.77V72.9517H362.295V72.0724H359.77V69.9877C361.018 69.9735 361.756 70.0019 362.607 70.0586Z" fill="white"/>
<path d="M461.639 42.5173C461.639 43.2406 461.043 43.8362 460.32 43.8362C459.597 43.8362 459.001 43.2406 459.001 42.5173C459.001 41.794 459.597 41.1984 460.32 41.1984C461.043 41.1984 461.639 41.794 461.639 42.5173ZM461.454 42.5173C461.454 41.8933 460.944 41.3685 460.32 41.3685C459.696 41.3685 459.185 41.8791 459.185 42.5173C459.185 43.1413 459.696 43.666 460.32 43.666C460.944 43.666 461.454 43.1555 461.454 42.5173ZM460.561 42.6307L460.958 43.2406H460.646L460.292 42.6591H460.093V43.2406H459.838V41.7798H460.391C460.632 41.7798 460.845 41.9642 460.845 42.2195C460.83 42.4322 460.731 42.574 460.561 42.6307ZM460.093 42.4464H460.362C460.49 42.4464 460.589 42.3613 460.589 42.2336C460.589 42.106 460.49 42.0351 460.362 42.0351H460.093V42.4464ZM412.144 45.4955H414.13V57.4083H412.144V45.4955ZM404.883 45.226C403.564 45.226 402.359 45.694 401.408 46.474V45.4955H399.423V57.4083H401.408V50.7002C401.408 48.7857 402.968 47.2257 404.883 47.2257C406.797 47.2257 408.357 48.7857 408.357 50.7002V57.4083H410.343V50.7002C410.343 47.6653 407.889 45.226 404.883 45.226ZM395.452 45.4813H397.437V56.9403C397.437 60.3723 394.445 63.1519 391.226 63.1519C388.262 63.1519 386.078 61.3366 385.312 58.8406H387.439C388.092 60.2163 389.382 61.1665 391.226 61.1665C393.339 61.1665 395.452 59.2661 395.452 56.9403V55.9759C394.346 57.0112 392.857 57.6352 391.226 57.6352C387.794 57.6352 385.014 54.8555 385.014 51.4235C385.014 47.9915 387.794 45.2118 391.226 45.2118C392.857 45.2118 394.346 45.8358 395.452 46.8711V45.4813ZM395.452 51.4377C395.452 49.0977 393.552 47.2115 391.226 47.2115C388.886 47.2115 387 49.1119 387 51.4377C387 53.7777 388.9 55.6639 391.226 55.6639C393.552 55.6639 395.452 53.7777 395.452 51.4377ZM364.734 47.2115C366.436 47.2115 367.897 48.2042 368.563 49.6508H370.676C369.91 47.098 367.528 45.226 364.72 45.226C361.288 45.226 358.508 48.0057 358.508 51.4377C358.508 54.8697 361.288 57.6493 364.72 57.6493C367.528 57.6493 369.896 55.7773 370.676 53.2246H368.563C367.882 54.6712 366.422 55.6639 364.734 55.6639C362.394 55.6639 360.508 53.7635 360.508 51.4377C360.508 49.0977 362.394 47.2115 364.734 47.2115ZM384.05 51.4377C384.05 54.8697 381.27 57.6493 377.838 57.6493C374.406 57.6493 371.626 54.8697 371.626 51.4377C371.626 48.0057 374.406 45.226 377.838 45.226C381.27 45.226 384.05 48.0057 384.05 51.4377ZM382.064 51.4377C382.064 49.0977 380.164 47.2115 377.838 47.2115C375.498 47.2115 373.612 49.1119 373.612 51.4377C373.612 53.7777 375.512 55.6639 377.838 55.6639C380.178 55.6639 382.064 53.7777 382.064 51.4377ZM446.989 45.226C445.67 45.226 444.465 45.694 443.514 46.474V45.4955H441.529V57.3941H443.514V50.686C443.514 48.7715 445.074 47.2115 446.989 47.2115C448.903 47.2115 450.463 48.7715 450.463 50.686V57.3941H452.449V50.686C452.449 47.6653 450.01 45.226 446.989 45.226ZM437.558 45.4955H439.543V57.3941H437.558V55.9901C436.452 57.0253 434.963 57.6493 433.332 57.6493C429.9 57.6493 427.12 54.8697 427.12 51.4377C427.12 48.0057 429.9 45.226 433.332 45.226C434.963 45.226 436.452 45.8642 437.558 46.8853V45.4955ZM437.558 51.4377C437.558 49.0977 435.658 47.2115 433.332 47.2115C430.992 47.2115 429.106 49.1119 429.106 51.4377C429.106 53.7777 431.006 55.6639 433.332 55.6639C435.672 55.6639 437.558 53.7777 437.558 51.4377ZM459.086 47.4809V45.4955H456.108V42.2478H454.122V45.4955V47.4809V53.4373C454.122 55.6355 455.895 57.4083 458.093 57.4083H459.086V55.4228H458.093C457.001 55.4228 456.108 54.5293 456.108 53.4373V47.4809H459.086ZM413.137 41.1984C412.413 41.1984 411.818 41.794 411.818 42.5173C411.818 43.2406 412.413 43.8362 413.137 43.8362C413.86 43.8362 414.456 43.2406 414.456 42.5173C414.456 41.7798 413.874 41.1984 413.137 41.1984ZM426.056 45.4955H416.129V47.4809H423.475L416.129 55.4228V57.4083H426.056V55.4228H418.696L426.042 47.4809L426.056 45.4955Z" fill="white"/>
<path d="M591.275 32.0087C586.822 32.0087 583.192 35.6392 583.192 40.0923C583.192 44.5455 586.822 48.1902 591.275 48.1902C595.728 48.1902 599.317 44.5596 599.317 40.0923C599.317 35.6392 595.728 32.0087 591.275 32.0087ZM591.275 44.5029C588.822 44.5029 586.865 42.5033 586.865 40.0923C586.865 37.6814 588.822 35.7243 591.275 35.7243C593.686 35.7243 595.643 37.6814 595.643 40.0923C595.643 42.5033 593.686 44.5029 591.275 44.5029Z" fill="white"/>
<path d="M561.664 31.8241C559.891 31.8241 558.076 32.1928 556.615 32.7743C555.438 32.0936 554.303 31.8241 552.658 31.8241C550.616 31.8241 548.531 32.0936 546.248 32.8736L545.837 33.0154V47.878H549.879V35.6958C550.701 35.4263 551.339 35.327 552.148 35.327C554.147 35.327 554.743 35.9652 554.743 38.0499V47.8638H558.827V37.7805C558.827 36.8728 558.785 36.2772 558.643 35.7383C559.465 35.4688 560.104 35.327 560.827 35.327C562.741 35.327 563.607 36.1921 563.607 38.0499V47.8638H567.648V37.7238C567.648 35.7241 567.322 34.547 566.415 33.5401C565.422 32.4623 563.748 31.8241 561.664 31.8241Z" fill="white"/>
<path d="M577.873 44.6733C575.179 44.6733 573.633 42.9998 573.633 40.0784C573.633 37.086 575.193 35.37 577.916 35.37C578.483 35.37 578.951 35.4267 579.405 35.5685C579.405 35.5685 580.242 35.8096 580.979 36.3769L582.695 33.4413C581.759 32.6612 580.667 32.3209 580.299 32.2358C579.249 31.9238 577.703 31.8671 577.703 31.8671C572.839 31.8671 569.577 35.2424 569.577 40.2486C569.577 45.0704 572.669 48.1762 577.476 48.1762C577.476 48.1762 580.696 48.318 582.851 46.3184L580.838 43.7373C579.731 44.4322 578.965 44.6733 577.873 44.6733Z" fill="white"/>
<path d="M525.145 31.9659C519.373 31.9659 516.693 34.5045 516.693 39.922V47.878H520.834V40.2482V39.8794C520.834 37.1565 522.38 35.4689 524.791 35.4689C525.798 35.4689 526.563 35.6532 527.102 35.7809L528.053 32.1929C526.45 31.9659 525.145 31.9659 525.145 31.9659Z" fill="white"/>
<path d="M543.482 39.4681V47.878H537.937C534.122 47.878 532.435 47.6085 530.435 46.2896C528.705 45.1125 527.755 42.886 527.755 39.9787C527.755 35.9794 530.393 31.9376 536.207 31.9376C540.93 31.9234 543.482 34.5612 543.482 39.4681ZM539.441 39.922C539.441 36.8729 538.264 35.3838 535.895 35.3838C533.484 35.3838 531.938 37.1565 531.938 39.8369C531.938 43.0703 533.484 44.4743 536.93 44.4743H539.426V39.922H539.441Z" fill="white"/>
<path d="M514.438 39.4681V47.878H508.935C505.12 47.878 503.433 47.6085 501.433 46.2896C499.703 45.1125 498.753 42.886 498.753 39.9787C498.753 35.9794 501.391 31.9376 507.205 31.9376C511.942 31.9234 514.438 34.5612 514.438 39.4681ZM510.254 39.922C510.254 36.8303 509.162 35.3838 506.751 35.3838C504.34 35.3838 502.795 37.1565 502.795 39.8369C502.795 43.0703 504.34 44.4743 507.787 44.4743H510.24L510.254 39.922Z" fill="white"/>
<path fill-rule="evenodd" clip-rule="evenodd" d="M738.957 53.7298C734.249 61.6625 725.532 67.0672 715.681 67.0672C708.359 67.0672 701.734 64.1034 696.852 59.396H704.436C704.436 59.396 726.229 21.0399 726.316 20.8655C726.404 20.6912 726.404 20.604 726.229 20.604H717.25C717.076 20.604 717.076 20.6912 716.989 20.6912C716.902 20.7783 704.697 42.0486 704.697 42.0486H688.745C688.658 41.3512 688.658 40.741 688.658 40.0436C688.658 25.137 700.775 13.0199 715.681 13.0199C723.265 13.0199 730.152 16.1582 735.121 21.3014C733.029 24.8755 723.44 41.1768 722.132 43.5305C721.348 41.787 717.948 42.1357 716.204 42.1357C715.42 43.4433 711.846 50.2428 711.846 50.2428H715.681C717.425 50.2428 717.599 52.0735 716.902 53.2067C716.204 54.34 713.328 59.396 713.328 59.396H722.481C722.481 59.396 733.726 39.6949 740.177 28.5367C741.049 30.3674 741.746 32.3724 742.182 34.3773C744.361 32.8954 746.977 32.0237 749.853 32.0237C746.105 16.5068 732.244 5 715.681 5C696.329 5 680.638 20.6912 680.638 40.0436C680.638 40.741 680.638 41.4384 680.725 42.0486H676.105C675.843 42.0486 675.756 42.2229 675.582 42.3973C675.494 42.5716 671.484 49.7198 671.31 49.8941C671.31 50.0685 671.31 50.1557 671.484 50.1557H682.12C686.478 64.5392 699.816 75 715.681 75C728.321 75 739.305 68.3748 745.495 58.3499C742.879 57.5654 740.613 55.9091 738.957 53.7298ZM690.575 50.1557H699.903L695.37 57.9141C693.452 55.6476 691.796 53.0324 690.575 50.1557Z" fill="#DA291C"/>
<path d="M749.679 35.249C747.064 35.249 742.182 38.3001 742.182 43.5305C742.182 46.0585 744.187 47.1917 745.931 47.1917C747.674 47.1917 749.853 46.32 751.597 44.6637L751.684 44.5765H749.156C748.633 44.5765 748.284 44.2279 748.371 43.7048V43.4433C748.459 42.9203 748.982 42.6587 749.505 42.6587H754.386C754.909 42.6587 755.258 43.0946 755.171 43.6176L754.299 48.4993C754.212 49.0224 753.863 49.4582 753.253 49.4582H753.079C752.556 49.4582 752.207 49.0224 752.294 48.4993C752.381 47.9763 752.73 46.2328 752.73 46.2328C750.376 48.4122 747.5 49.6326 745.059 49.6326C743.49 49.6326 739.741 48.9352 739.741 44.315C739.741 43.3561 739.916 42.3972 740.351 41.3511V41.4383C740.264 41.6127 740.177 41.8742 740.09 42.0485C740.003 42.2229 740.003 42.31 739.916 42.4844C739.828 42.6587 739.828 42.9203 739.741 43.0946C739.741 43.2689 739.654 43.3561 739.654 43.5305C739.567 43.792 739.567 43.9663 739.567 44.2279C739.567 44.315 739.567 44.4894 739.48 44.5765C739.48 44.9252 739.393 45.2739 739.393 45.7098C739.393 46.0585 739.393 46.4072 739.48 46.7559C739.828 49.8941 741.485 52.5965 743.926 54.2528C744.71 54.7758 745.669 55.2117 746.628 55.5604C747.587 55.8219 748.633 55.9962 749.679 55.9962C751.423 55.9962 753.079 55.5604 754.561 54.7758C756.304 53.8169 757.786 52.4221 758.658 50.6787C759.442 49.1967 759.878 47.5404 759.878 45.797C759.965 39.8692 755.345 35.249 749.679 35.249Z" fill="#DA291C"/>
<path d="M765.109 39.1718H765.632C766.939 39.1718 767.55 38.5616 767.811 37.0797L770.601 21.3014L773.303 31.8493C773.565 32.8954 773.739 33.5928 775.744 33.5928C777.487 33.5928 777.836 32.9826 778.446 32.0237L785.071 21.127L782.282 36.9053C782.02 38.3873 782.718 39.1718 783.938 39.1718H784.461C785.769 39.1718 786.379 38.4745 786.641 37.0797L790.127 17.5529C790.389 15.9838 789.692 14.9377 788.035 14.9377H786.641C785.246 14.9377 784.723 15.3736 783.764 16.8555L776.267 28.9726L773.129 16.9427C772.78 15.5479 772.344 14.9377 770.775 14.9377H769.555C768.073 14.9377 767.027 15.8095 766.765 17.4657L763.278 36.9925C763.191 38.3873 763.801 39.1718 765.109 39.1718ZM798.409 39.1718C804.773 39.1718 808.347 34.1158 808.172 28.5367C807.998 23.8294 804.773 20.3425 799.368 20.3425C793.179 20.3425 789.43 25.3985 789.604 30.8904C789.779 35.9464 793.266 39.1718 798.409 39.1718ZM799.368 23.7422C802.07 23.7422 804.162 25.8344 804.25 28.7111C804.337 32.6339 801.896 35.6849 798.409 35.6849C795.532 35.6849 793.702 33.5928 793.527 30.7161C793.44 27.0548 795.881 23.7422 799.368 23.7422ZM810.526 39.1718H811.049C812.357 39.1718 812.88 38.6488 813.141 37.0797L814.798 27.5778C816.018 25.4857 817.326 24.4396 819.418 24.4396C821.51 24.4396 822.73 25.66 822.73 27.7522C822.73 28.2752 822.643 28.9726 822.556 29.7572L821.248 37.0797C820.987 38.736 821.946 39.1718 823.079 39.1718H823.602C824.91 39.1718 825.433 38.6488 825.694 37.0797L827.089 28.9726C827.263 28.1009 827.351 27.2291 827.351 26.5317C827.263 23.0448 824.997 20.6912 821.161 20.6912C818.546 20.6912 816.541 21.9987 815.233 24.0909C815.321 21.6501 814.013 20.9527 812.618 20.9527C812.008 20.9527 811.485 21.127 811.398 21.2142L808.608 37.0797C808.434 38.6488 809.393 39.1718 810.526 39.1718ZM889.418 39.1718H889.941C891.074 39.1718 891.597 38.6488 891.859 37.0797L892.818 31.7621C893.515 27.665 895.084 24.7011 897.525 24.7011C898.745 24.7011 899.443 25.2242 900.053 25.7472C900.14 25.8344 901.971 25.137 901.884 22.8705C901.797 21.4757 900.489 20.604 898.745 20.604C896.653 20.604 895.084 21.8244 893.951 24.0037C894.125 21.5629 892.731 20.8655 891.423 20.8655C890.726 20.8655 890.29 21.0398 890.203 21.127L887.413 36.9925C887.151 38.6488 888.198 39.1718 889.418 39.1718ZM908.073 39.1718C910.863 39.1718 912.955 38.0386 914.35 35.6849C914.175 38.0386 914.611 38.8232 916.355 38.8232C917.924 38.8232 918.359 38.3001 918.534 36.5567C918.708 33.4184 919.841 28.2752 921.062 21.127C921.062 21.0398 920.364 20.604 919.493 20.604C917.749 20.604 916.79 21.4757 916.267 23.655C915.134 21.5629 912.868 20.3425 910.252 20.3425C904.673 20.3425 900.75 25.3113 900.75 31.0648C900.663 35.6849 903.54 39.1718 908.073 39.1718ZM910.775 23.655C913.914 23.655 915.308 26.0087 915.308 28.5367C915.308 31.7621 913.129 35.6849 909.119 35.6849C906.417 35.6849 904.76 33.9415 904.76 30.8904C904.76 27.2291 906.853 23.655 910.775 23.655ZM922.893 39.1718H923.416C924.549 39.1718 925.246 38.736 925.508 37.0797L927.251 27.2291C928.559 25.3113 929.692 24.4396 931.61 24.4396C933.44 24.4396 934.574 25.8344 934.574 27.9265C934.574 28.2752 934.574 28.6239 934.487 28.9726L933.092 37.0797C932.83 38.736 933.789 39.1718 934.922 39.1718H935.358C936.492 39.1718 937.189 38.6488 937.538 37.0797L939.281 27.2291C940.589 25.3113 941.809 24.4396 943.64 24.4396C945.383 24.4396 946.691 25.4857 946.691 27.7522C946.691 28.2752 946.604 28.9726 946.429 29.7572L945.122 37.0797C944.86 38.736 945.732 39.1718 946.952 39.1718H947.475C948.783 39.1718 949.306 38.6488 949.568 37.0797L950.962 28.9726C951.137 28.1009 951.224 27.2291 951.224 26.5317C951.224 22.9577 948.783 20.6912 945.383 20.6912C942.332 20.6912 940.24 22.2603 938.845 24.6139C938.148 22.1731 936.056 20.6912 933.353 20.6912C931 20.6912 928.995 21.8244 927.6 23.9166C927.687 21.6501 926.379 21.0398 924.985 21.0398C924.374 21.0398 923.851 21.2142 923.764 21.3014L920.975 37.1669C920.713 38.6488 921.672 39.1718 922.893 39.1718ZM837.288 39.1718C842.606 39.1718 845.657 36.8182 845.657 34.9004C845.657 33.5928 844.785 33.1569 843.739 33.0697C842.344 34.9004 840.427 35.7721 837.724 35.7721C835.37 35.7721 832.581 34.9004 832.407 30.7161H844.524C845.831 30.7161 846.79 29.9315 846.79 28.3624C846.79 25.9215 846.267 24.2652 845.134 22.8705C843.913 21.3014 841.647 20.3425 839.119 20.3425C831.186 20.3425 828.397 26.1831 828.397 31.2391C828.484 35.9464 831.971 39.1718 837.288 39.1718ZM838.945 23.4807C840.339 23.4807 841.473 23.9166 842.17 24.7011C842.78 25.3985 843.042 26.4446 842.955 27.665H832.842C833.801 25.137 836.068 23.4807 838.945 23.4807ZM848.708 46.0585H849.58C851.236 46.0585 851.759 45.0996 852.544 43.7048L863.876 24.6139C863.527 25.9215 863.353 27.4035 863.44 28.7982C863.615 35.2491 867.973 39.0847 874.337 39.0847C877.388 39.0847 879.742 37.9514 881.049 36.208C880.962 38.0386 881.921 38.8232 883.316 38.8232C884.1 38.8232 884.623 38.5616 884.623 38.4745L886.454 28.188C886.716 26.6189 886.105 25.8344 884.623 25.8344H877.388C876.516 25.8344 876.08 26.0087 875.819 26.2702C875.383 26.7061 875.209 27.7522 875.209 28.2752C875.209 29.0598 875.906 29.4956 877.039 29.4956H882.183C881.485 33.0697 879.219 35.5977 875.296 35.5977C871.199 35.5977 868.409 32.9826 868.235 28.5367C868.06 22.9577 871.722 18.3375 877.039 18.3375C880.09 18.3375 882.531 19.9938 883.49 22.1731C883.577 22.3474 886.454 22.3474 886.367 19.9066C886.367 19.0349 885.844 17.9888 884.885 17.1171C883.403 15.6351 880.526 14.3275 876.778 14.3275C871.46 14.3275 867.363 17.2042 865.184 21.4757C864.748 20.9527 864.05 20.604 863.353 20.604C862.133 20.604 861.435 20.9527 860.302 22.9577L854.723 32.8082L852.631 22.9577C852.195 21.127 851.585 20.604 850.364 20.604C848.969 20.604 847.836 21.5629 847.923 21.8244L851.933 37.6899L847.749 44.4894C847.139 45.0996 847.052 46.0585 848.708 46.0585ZM777.749 58.0012H765.022V52.0735H763.365V65.6725H765.022V59.3088H777.749V65.6725H779.405V52.0735H777.749V58.0012ZM788.907 52.0735L780.887 65.6725H782.805L784.548 62.6214H795.445L797.276 65.6725H799.193L791.086 52.0735H788.907ZM785.42 61.2266L790.04 53.2067L794.748 61.2266H785.42ZM808.87 52.0735L800.85 65.6725H802.768L804.511 62.6214H815.408L817.238 65.6725H819.156L811.136 52.0735H808.87ZM805.383 61.2266L810.003 53.2067L814.71 61.2266H805.383ZM832.232 58.2628C831.36 58.1756 830.663 58.0884 830.227 58.0884H824.038C823.166 58.0884 822.469 57.9141 822.033 57.6525C821.597 57.391 821.336 56.7808 821.336 55.9091C821.336 55.4732 821.423 55.0374 821.51 54.6887C821.597 54.34 821.946 54.0784 822.382 53.9041C822.817 53.7298 823.515 53.5554 824.474 53.4682C825.433 53.3811 826.392 53.3811 827.263 53.3811H827.874C829.094 53.3811 830.053 53.4682 830.75 53.5554C831.535 53.6426 832.058 53.7298 832.319 53.9041C832.581 54.0784 832.842 54.2528 832.93 54.6015C833.104 54.9502 833.104 55.386 833.104 56.0834H834.76C834.76 54.863 834.499 53.9041 833.976 53.2939C833.453 52.6837 832.668 52.335 831.709 52.2478C830.75 52.1606 829.966 52.0735 829.53 52.0735H827.351C826.13 52.0735 825.084 52.0735 824.125 52.1606C823.166 52.2478 822.294 52.4222 821.597 52.6837C820.9 52.9452 820.377 53.3811 820.115 53.9913C819.854 54.6015 819.679 55.386 819.679 56.3449C819.679 57.4782 820.028 58.3499 820.725 58.873C821.423 59.396 822.382 59.5704 823.689 59.5704L827.351 59.6575H830.489C831.535 59.6575 832.319 59.8319 832.842 60.0934C833.278 60.3549 833.54 60.9651 833.54 62.0112C833.54 62.7958 833.365 63.3188 833.017 63.6675C832.668 64.0162 831.971 64.2777 831.012 64.3649C830.053 64.452 828.832 64.5392 827.438 64.5392C826.566 64.5392 825.694 64.5392 824.822 64.452C823.951 64.3649 823.166 64.2777 822.643 64.1034C822.12 63.929 821.771 63.6675 821.684 63.3188C821.597 62.9701 821.51 62.4471 821.51 61.6625V61.401H819.854C819.854 62.8829 820.115 63.929 820.551 64.5392C820.987 65.1494 821.771 65.4981 822.817 65.6725C823.864 65.8468 824.648 65.934 825.171 65.934H828.484C829.53 65.934 830.489 65.934 831.36 65.8468C832.232 65.7596 833.017 65.5853 833.627 65.3238C834.237 65.0623 834.673 64.6264 834.935 64.1034C835.196 63.5803 835.283 62.8829 835.283 62.0112C835.283 60.7908 835.022 59.8319 834.499 59.3088C833.801 58.6114 833.104 58.3499 832.232 58.2628ZM845.744 65.6725H847.4V59.396H858.21V58.0012H847.4V53.4682H858.733V52.0735H845.744V65.6725ZM877.65 53.4682H884.536V65.6725H886.193V53.4682H893.079V52.0735H877.65V53.4682ZM896.217 59.3088H907.637V58.0012H896.217V53.4682H908.073V52.0735H894.561V65.6725H908.247V64.2777H896.217V59.3088ZM917.749 52.0735L909.729 65.6725H911.647L913.391 62.6214H924.287L926.118 65.6725H928.036L920.016 52.0735H917.749ZM914.262 61.2266L918.883 53.2067L923.59 61.2266H914.262ZM940.414 63.7547L932.307 52.0735H929.605V65.6725H931.261V53.4682L939.717 65.6725H941.112L949.568 53.4682V65.6725H951.224V52.0735H948.609L940.414 63.7547ZM865.358 52.0735L861.61 54.7758L862.481 56.1706L865.358 53.9913V65.6725H867.014V52.0735H865.358ZM869.978 52.4222C869.891 52.335 869.804 52.335 869.717 52.2478C869.63 52.2478 869.542 52.1606 869.368 52.1606C869.194 52.1606 869.107 52.1606 869.019 52.2478C868.932 52.2478 868.845 52.335 868.758 52.4222C868.671 52.5093 868.584 52.5965 868.584 52.6837C868.496 52.7709 868.496 52.858 868.496 53.0324C868.496 53.1195 868.496 53.2939 868.584 53.3811C868.671 53.4682 868.671 53.5554 868.758 53.6426C868.845 53.7298 868.932 53.8169 869.019 53.8169C869.107 53.8169 869.194 53.9041 869.368 53.9041C869.542 53.9041 869.63 53.9041 869.717 53.8169C869.804 53.8169 869.891 53.7298 869.978 53.6426C870.065 53.5554 870.153 53.4682 870.153 53.3811C870.24 53.2939 870.24 53.2067 870.24 53.0324C870.24 52.9452 870.24 52.7709 870.153 52.6837C870.065 52.5965 870.065 52.5093 869.978 52.4222ZM869.978 53.2939C869.978 53.3811 869.891 53.4682 869.804 53.5554C869.717 53.6426 869.63 53.6426 869.63 53.7298C869.542 53.7298 869.455 53.8169 869.368 53.8169C869.281 53.8169 869.194 53.8169 869.107 53.7298C869.019 53.7298 868.932 53.6426 868.932 53.5554C868.845 53.4682 868.845 53.3811 868.758 53.2939C868.758 53.2067 868.671 53.1195 868.671 53.0324C868.671 52.9452 868.671 52.858 868.758 52.7708C868.758 52.6837 868.845 52.5965 868.932 52.5093C869.019 52.4222 869.107 52.4222 869.107 52.335C869.194 52.335 869.281 52.2478 869.368 52.2478C869.455 52.2478 869.542 52.2478 869.63 52.335C869.717 52.335 869.804 52.4222 869.804 52.5093C869.891 52.5965 869.891 52.6837 869.978 52.7708C869.978 52.858 870.065 52.9452 870.065 53.0324C870.065 53.1195 870.065 53.2067 869.978 53.2939Z" fill="white"/>
<path d="M869.717 52.9456C869.804 52.9456 869.804 52.8585 869.804 52.7713C869.804 52.6841 869.804 52.5969 869.717 52.5969C869.63 52.5098 869.542 52.5098 869.455 52.5098H869.107V53.4687H869.281V53.0328H869.455L869.717 53.4687H869.891L869.63 53.0328C869.542 53.0328 869.63 53.0328 869.717 52.9456ZM869.368 52.9456H869.194V52.6841H869.542L869.63 52.7713V52.9456L869.542 53.0328H869.455C869.455 52.9456 869.368 52.9456 869.368 52.9456Z" fill="black"/>
<path d="M853.938 44.9253L853.241 46.0585H950.614L951.224 44.9253H853.938ZM763.365 46.0585H844.872L845.483 44.9253H764.063L763.365 46.0585Z" fill="#DA291C"/>
<g clip-path="url(#clip0_1884_56151)">
<path d="M78.9525 39.8029C78.9525 61.2994 61.5565 78.6954 40.0601 78.6954C18.5636 78.6954 1.16757 61.2994 1.16757 39.8029C1.16757 18.3064 18.5636 0.9104 40.0601 0.9104C61.5565 0.9104 78.9525 18.3064 78.9525 39.8029ZM40.0601 3.27129C19.8061 3.27129 3.52846 19.549 3.52846 39.8029C3.52846 60.0568 19.9304 76.3345 40.0601 76.3345C60.314 76.3345 76.5917 59.9325 76.5917 39.8029C76.5917 19.549 60.314 3.27129 40.0601 3.27129Z" fill="url(#paint0_linear_1884_56151)"/>
<path d="M40.0611 3.27112C19.8072 3.27112 3.52948 19.5488 3.52948 39.8027C3.52948 60.0566 19.9314 76.3343 40.0611 76.3343C60.315 76.3343 76.5927 59.9324 76.5927 39.8027C76.5927 19.5488 60.315 3.27112 40.0611 3.27112ZM40.0611 73.9734C21.174 73.9734 5.89037 58.6898 5.89037 39.8027C5.89037 20.9156 21.174 5.632 40.0611 5.632C58.9482 5.632 74.2318 20.9156 74.2318 39.8027C74.2318 58.6898 58.9482 73.9734 40.0611 73.9734Z" fill="url(#paint1_linear_1884_56151)"/>
<path d="M40.0606 78.6954C61.5571 78.6954 78.9531 61.2994 78.9531 39.8029C78.9531 18.3065 61.5571 0.910449 40.0606 0.910449C18.5641 0.910449 1.16811 18.3065 1.16811 39.8029C1.16811 61.2994 18.5641 78.6954 40.0606 78.6954ZM40.0606 0.0406494C61.9299 0.0406494 79.8229 17.9337 79.8229 39.8029C79.8229 61.6722 61.9299 79.5652 40.0606 79.5652C18.1913 79.5652 0.298309 61.6722 0.298309 39.8029C0.298309 17.9337 18.1913 0.0406494 40.0606 0.0406494Z" fill="url(#paint2_linear_1884_56151)"/>
<path d="M3.03137 39.9266C3.03137 19.5484 19.5576 2.77368 40.06 2.77368C60.5624 2.77368 77.0886 19.4241 77.0886 39.9266C77.0886 60.3047 60.5624 76.8309 40.06 76.8309C19.5576 76.8309 3.03137 60.3047 3.03137 39.9266ZM14.5873 14.3296C8.00166 20.9152 3.90117 29.986 3.90117 39.9266C3.90117 49.8671 8.00166 58.9379 14.463 65.3993C21.0487 71.8607 30.1194 75.9611 40.06 75.9611C50.0006 75.9611 59.0713 71.9849 65.5327 65.3993C72.1183 58.9379 76.0946 49.8671 76.0946 39.9266C76.0946 29.986 71.9941 20.9152 65.5327 14.3296C59.0713 7.74397 50.0006 3.64348 40.06 3.64348C30.1194 3.64348 21.0487 7.74397 14.5873 14.3296Z" fill="white"/>
<path d="M40.0606 74.0978C30.8656 74.0978 22.2918 70.4943 15.8305 64.0329C9.36908 57.5716 5.76562 48.9978 5.76562 39.8028C5.76562 30.6078 9.36908 22.034 15.8305 15.5726C22.2918 9.11127 30.8656 5.50781 40.0606 5.50781C49.2556 5.50781 57.8294 9.11127 64.2907 15.5726C70.7521 22.034 74.3556 30.6078 74.3556 39.8028C74.3556 48.9978 70.7521 57.5716 64.2907 64.0329C57.8294 70.4943 49.2556 74.0978 40.0606 74.0978ZM40.0606 73.1037C48.8829 73.1037 57.3323 69.6245 63.5452 63.4116C69.8823 57.0745 73.2373 48.7493 73.2373 39.927C73.2373 31.1048 69.7581 22.6553 63.5452 16.4424C57.2081 10.1053 48.8829 6.75038 40.0606 6.75038C31.2383 6.75038 22.7889 10.2296 16.576 16.4424C10.2389 22.531 6.75968 30.9805 6.75968 39.8028C6.75968 48.625 10.2389 57.0745 16.4517 63.2874C22.7889 69.6245 31.2383 73.1037 40.0606 73.1037Z" fill="url(#paint3_linear_1884_56151)"/>
<path d="M70.2553 55.9558C69.634 55.4587 45.6524 36.4474 45.6524 36.4474L40.0608 4.51331C39.6881 4.63756 39.191 5.01033 38.9425 5.50736L34.9663 36.5716L10.2391 55.583C10.2391 55.583 9.7421 56.2043 9.49358 56.577C9.36932 56.8256 9.36932 57.1983 9.36932 57.5711L39.9366 45.0211L70.5038 57.5711C70.7524 56.9498 70.5038 56.3285 70.2553 55.9558Z" fill="white"/>
<path d="M40.3098 40.7971L40.0612 46.5129L68.1434 57.8203C69.1374 58.3173 69.883 58.0688 70.6285 57.5718L40.6825 40.6728C40.5583 40.5486 40.3098 40.6728 40.3098 40.7971Z" fill="#565F64"/>
<path d="M40.3096 40.7971C40.3096 40.7971 41.9249 43.655 43.7888 45.6431C46.3982 48.501 49.8774 50.4891 49.8774 50.4891L68.1432 57.8203C69.1372 58.3173 69.8828 58.0688 70.6283 57.5718L40.6824 40.6728C40.5581 40.5486 40.3096 40.6728 40.3096 40.7971Z" fill="url(#paint4_linear_1884_56151)"/>
<path d="M70.5034 56.453C70.5034 56.3287 70.3792 56.2045 70.2549 55.9559L44.6579 37.1931L41.1787 39.4297C41.1787 39.4297 41.4272 39.554 41.5515 39.4297C41.9243 39.3055 42.6698 39.1812 43.4154 39.4297C44.0366 39.6783 70.5034 56.5772 70.5034 56.5772V56.453Z" fill="#A4AAAE" fill-opacity="0.6"/>
<path d="M69.6338 55.3352L45.7764 36.4481L44.6581 37.1937L70.2551 56.0807C70.1308 55.8322 69.8823 55.5837 69.6338 55.3352Z" fill="#333E46"/>
<path d="M40.6826 38.9332L40.5584 39.0574C40.5584 39.0574 40.5584 39.3059 40.8069 39.1817C40.9312 39.0574 44.5346 37.1936 45.7772 36.448L41.4282 6.6263C41.3039 5.50798 40.8069 5.01096 39.9371 4.63818L40.4341 39.1817L40.6826 38.9332Z" fill="#565F64"/>
<path d="M38.5692 6.62623V8.24157L35.8355 35.7024C35.8355 36.0752 35.9598 36.4479 36.3326 36.6965L37.9479 37.939L39.0662 7.62029L39.1905 5.2594C38.8177 5.50791 38.6935 6.00494 38.5692 6.62623Z" fill="#A4AAAE" fill-opacity="0.6"/>
<path d="M37.0786 38.4357L35.5875 37.1931L10.3633 55.4589C10.3633 55.4589 9.61773 55.9559 9.49347 56.453L10.3633 55.9559L36.83 39.3055C37.3271 39.057 37.4513 38.8085 37.0786 38.4357Z" fill="#A4AAAE" fill-opacity="0.6"/>
<path d="M39.6881 40.7971C39.6881 40.6728 39.5638 40.5486 39.4396 40.6728L9.36932 57.696C10.1149 58.1931 10.8604 58.3173 11.8545 57.9445L39.9366 46.6371L39.6881 40.7971Z" fill="#565F64"/>
<path d="M40.5579 39.0572C40.5579 39.0572 40.5579 39.1815 40.6822 39.1815H40.8064C40.9307 39.0572 44.5341 37.1934 45.7767 36.4478L45.2797 32.8444L41.4277 6.62613C41.4277 6.1291 41.3035 5.75633 41.0549 5.50781C41.0549 5.50781 42.9188 30.6078 42.9188 33.3414C42.9188 36.9449 40.5579 39.0572 40.5579 39.0572Z" fill="url(#paint5_linear_1884_56151)"/>
<path d="M39.6881 40.7971C39.6881 40.6728 39.5638 40.5486 39.4396 40.6728L9.36932 57.696C10.1149 58.1931 10.8604 58.3173 11.8545 57.9445L39.9366 46.6371L39.6881 40.7971Z" fill="url(#paint6_linear_1884_56151)"/>
<path d="M11.855 57.8204L39.9371 46.513L39.6886 41.0457C39.1916 42.5367 38.3218 44.1521 35.9609 45.3947C34.2213 46.3887 17.5708 54.5897 11.6065 57.4476C11.2337 57.6961 10.7367 57.8204 10.4882 57.9446C10.9852 58.1931 11.358 58.0689 11.855 57.8204Z" fill="url(#paint7_linear_1884_56151)"/>
<path d="M40.6826 38.9332L40.5584 39.0574C40.5584 39.0574 40.5584 39.3059 40.8069 39.1817C40.9312 39.0574 44.5346 37.1936 45.7772 36.448L41.4282 6.6263C41.3039 5.50798 40.8069 5.01096 39.9371 4.63818L40.4341 39.1817L40.6826 38.9332Z" fill="url(#paint8_linear_1884_56151)"/>
<path d="M40.6826 38.9332L40.5584 39.0574C40.5584 39.0574 40.5584 39.3059 40.8069 39.1817C40.9312 39.0574 44.5346 37.1936 45.7772 36.448L41.4282 6.6263C41.3039 5.50798 40.8069 5.01096 39.9371 4.63818L40.4341 39.1817L40.6826 38.9332Z" fill="url(#paint9_linear_1884_56151)"/>
<path d="M6.63489 55.2107C5.76509 53.2226 0.794801 43.5305 6.26212 24.892H4.14974C3.03143 28.6197 2.16163 30.8563 1.6646 34.2113C1.6646 34.2113 1.41609 35.4538 1.29183 36.8207C1.16757 38.1875 1.16757 38.933 1.16757 39.8028C1.16757 47.2583 3.03143 51.6073 3.03143 51.6073C5.01954 57.8201 8.49874 63.4117 13.2205 67.6364C17.321 71.2399 23.6581 73.9735 28.8769 74.9676C28.0071 74.8433 13.0963 68.5062 6.63489 55.2107Z" fill="url(#paint10_linear_1884_56151)"/>
<path d="M40.5574 40.5481H39.4391C39.5633 40.5481 39.6876 40.5481 39.6876 40.6723L39.9361 46.3881H40.0603L40.3089 40.6723C40.3089 40.5481 40.4331 40.4238 40.5574 40.5481Z" fill="url(#paint11_linear_1884_56151)"/>
<path d="M52.487 2.89844C65.534 7.86872 77.8354 21.537 77.8354 38.8088C77.8354 59.6839 61.185 76.7072 40.0613 76.7072V78.6953C61.185 78.6953 78.9538 61.2993 78.9538 39.8028C78.9538 22.6553 68.0191 8.24149 52.487 2.89844Z" fill="url(#paint12_linear_1884_56151)"/>
<path d="M73.3621 25.1402C64.6641 5.13478 45.0315 4.01647 43.9132 3.89221H43.7889C58.8241 6.62587 68.3919 16.4422 71.7468 26.7555V26.8798C73.2379 30.856 73.9834 35.0808 74.1077 39.6783C74.2319 44.0273 73.2379 48.8733 71.374 53.3466C71.2498 53.9678 71.1255 54.7134 71.0013 54.7134H72.9894C78.9537 43.5302 76.3443 32.2228 73.3621 25.1402Z" fill="url(#paint13_linear_1884_56151)"/>
<path d="M3.03137 39.9266C3.03137 19.5484 19.5576 2.77368 40.06 2.77368C60.5624 2.77368 77.0886 19.4241 77.0886 39.9266C77.0886 60.3047 60.5624 76.8309 40.06 76.8309C19.5576 76.8309 3.03137 60.3047 3.03137 39.9266ZM14.5873 14.3296C8.00166 20.9152 3.90117 29.986 3.90117 39.9266C3.90117 49.8671 8.00166 58.9379 14.463 65.3993C21.0487 71.8607 30.1194 75.9611 40.06 75.9611C50.0006 75.9611 59.0713 71.9849 65.5327 65.3993C72.1183 58.9379 76.0946 49.8671 76.0946 39.9266C76.0946 29.986 71.9941 20.9152 65.5327 14.3296C59.0713 7.74397 50.0006 3.64348 40.06 3.64348C30.1194 3.64348 21.0487 7.74397 14.5873 14.3296Z" fill="#FBFBFB"/>
<path d="M10.1143 55.7077L35.4627 37.4419C36.8296 38.1874 39.0662 39.1815 39.3147 39.1815C39.5632 39.3058 39.5632 39.0572 39.5632 39.0572L36.4568 36.4478C36.084 36.1993 35.9598 35.8266 35.9598 35.4538L38.9419 5.50781C38.8177 5.63207 38.8177 5.88058 38.6934 6.00484C38.5692 6.25336 38.5692 6.37761 38.5692 6.62613L34.2202 36.5721L10.3628 55.3349C10.2385 55.4592 10.1143 55.5834 10.1143 55.7077Z" fill="#333F47"/>
<path fill-rule="evenodd" clip-rule="evenodd" d="M228.615 28.7925H254.079C254.493 28.7925 254.836 28.4497 254.836 28.0354V21.6782C254.836 21.264 254.493 20.9211 254.079 20.9211H241.565C241.15 20.9211 240.807 21.264 240.807 21.6782V22.8282C240.807 23.2425 241.15 23.5854 241.565 23.5854H249.786C249.922 23.5854 250.036 23.6997 250.036 23.8354V25.064C250.036 25.1997 249.922 25.314 249.786 25.314H233.422C233.007 25.314 232.665 24.9711 232.665 24.5568V19.8425C232.665 19.4282 233.007 19.0854 233.422 19.0854H254.086C254.5 19.0854 254.843 18.7425 254.843 18.3282V16.5997C254.843 16.1854 254.5 15.8425 254.086 15.8425H228.622C228.207 15.8425 227.865 16.1854 227.865 16.5997V28.0282C227.857 28.4497 228.2 28.7925 228.615 28.7925ZM221.486 28.7925H224.772C225.186 28.7925 225.529 28.4497 225.529 28.0354V16.6068C225.529 16.1925 225.186 15.8497 224.772 15.8497H221.079C220.929 15.8497 220.793 15.8854 220.665 15.9711L211.657 21.8497C211.4 22.014 211.086 22.014 210.829 21.8497L201.822 15.9711C201.693 15.8854 201.565 15.8497 201.407 15.8497H197.715C197.3 15.8497 196.957 16.1925 196.957 16.6068V28.0354C196.957 28.4497 197.3 28.7925 197.715 28.7925H201C201.415 28.7925 201.757 28.4497 201.757 28.0354V21.1497C201.757 21.0211 201.822 20.9068 201.936 20.8425C202.05 20.7782 202.186 20.7854 202.293 20.8497L209.265 25.2211C209.393 25.2997 209.515 25.3354 209.665 25.3354H212.793C212.943 25.3354 213.072 25.2997 213.193 25.2211L220.165 20.8497C220.279 20.7782 220.407 20.7782 220.522 20.8425C220.636 20.9068 220.707 21.0211 220.707 21.1497V28.0354C220.729 28.4497 221.072 28.7925 221.486 28.7925ZM193.879 28.7925H190.593C190.179 28.7925 189.836 28.4497 189.836 28.0354V26.0211C189.836 25.8854 189.722 25.7711 189.586 25.7711H172.307C172.065 25.7711 171.857 25.8711 171.707 26.064L169.9 28.3997C169.7 28.6568 169.422 28.7925 169.1 28.7925H164.586C164.45 28.7925 164.329 28.7211 164.272 28.5925C164.207 28.4711 164.222 28.3282 164.307 28.2211L173.643 16.1425C173.793 15.9497 174 15.8497 174.243 15.8497H193.879C194.293 15.8497 194.636 16.1925 194.636 16.6068V28.0354C194.636 28.4497 194.3 28.7925 193.879 28.7925ZM189.836 22.1854V19.3497C189.836 19.214 189.722 19.0997 189.586 19.0997H177.343C177.179 19.0997 177.043 19.1711 176.943 19.2925L174.765 22.114C174.715 22.1782 174.707 22.2568 174.743 22.3282C174.779 22.3997 174.843 22.4425 174.922 22.4425H189.586C189.722 22.4354 189.836 22.3211 189.836 22.1854ZM133.129 28.7925H122.293C122.157 28.7925 122.036 28.7211 121.979 28.5925C121.915 28.4711 121.929 28.3282 122.015 28.2211L131.35 16.1425C131.5 15.9497 131.707 15.8497 131.95 15.8497H142.679C142.836 15.8497 142.972 15.9354 143.043 16.0782C143.115 16.2211 143.093 16.3782 143 16.5068L133.729 28.4997C133.579 28.6925 133.372 28.7925 133.129 28.7925ZM141.007 28.7925H135.879C135.743 28.7925 135.622 28.7211 135.565 28.5925C135.5 28.4711 135.515 28.3282 135.6 28.2211L144.936 16.1425C145.086 15.9497 145.293 15.8497 145.536 15.8497H150.565C150.722 15.8497 150.857 15.9354 150.929 16.0782C151 16.2211 150.979 16.3782 150.886 16.5068L141.615 28.4997C141.457 28.6925 141.25 28.7925 141.007 28.7925ZM148.072 28.7925H144.107C143.972 28.7925 143.85 28.7211 143.793 28.5925C143.729 28.4711 143.743 28.3282 143.829 28.2211L153.165 16.1425C153.315 15.9497 153.522 15.8497 153.765 15.8497H157.622C157.779 15.8497 157.915 15.9354 157.986 16.0782C158.057 16.2211 158.043 16.3782 157.943 16.5068L148.672 28.4997C148.522 28.6925 148.315 28.7925 148.072 28.7925ZM154.45 28.7925H151.686C151.55 28.7925 151.429 28.7211 151.372 28.5925C151.307 28.4711 151.322 28.3282 151.407 28.2211L160.743 16.1425C160.893 15.9497 161.1 15.8497 161.343 15.8497H164.007C164.165 15.8497 164.3 15.9354 164.372 16.0782C164.443 16.2211 164.422 16.3782 164.329 16.5068L155.057 28.4997C154.9 28.6925 154.693 28.7925 154.45 28.7925ZM160.565 28.7925H158.529C158.393 28.7925 158.272 28.7211 158.215 28.5925C158.15 28.4711 158.165 28.3282 158.25 28.2211L167.586 16.1425C167.736 15.9497 167.943 15.8497 168.186 15.8497H170.115C170.272 15.8497 170.407 15.9354 170.479 16.0782C170.55 16.2211 170.529 16.3782 170.436 16.5068L161.165 28.4997C161.015 28.6925 160.807 28.7925 160.565 28.7925Z" fill="white"/>
<path d="M113.372 35.9362C112.636 35.4791 111.193 35.2648 108.965 35.2648H99.2718V48.3005H101.336V43.3005H108.965C111.2 43.3005 112.643 43.0862 113.372 42.6362C114.122 42.1791 114.5 41.3291 114.5 40.1219V38.4576C114.507 37.2505 114.129 36.4005 113.372 35.9362ZM112.322 38.9505V39.5576C112.322 40.3648 112.143 40.8933 111.8 41.1219C111.429 41.3719 110.643 41.5005 109.457 41.5005H101.343V37.0076H109.457C110.643 37.0076 111.436 37.1362 111.8 37.3862C112.143 37.6219 112.322 38.1505 112.322 38.9505Z" fill="#00C8C0"/>
<path d="M120.815 37.0433H132.622V35.2648H118.786V48.3005H132.622V46.5219H120.815V42.4291H132.129V40.6505H120.815V37.0433Z" fill="#00C8C0"/>
<path d="M135.607 37.0433H142.385V48.3005H144.45V37.0433H151.221V35.2648H135.607V37.0433Z" fill="#00C8C0"/>
<path d="M169.436 35.9284C168.693 35.4784 167.25 35.257 165.014 35.257H155.064V48.2927H157.128V43.3212H165.243C166.964 43.3212 167.614 43.5427 167.857 43.7355C168.2 43.9998 168.371 44.5212 168.371 45.2855V48.2927H170.436V44.9712C170.436 44.1927 170.228 43.5641 169.814 43.1141C169.557 42.8355 169.221 42.6212 168.814 42.4855C169.343 42.3141 169.736 42.0927 170 41.8212C170.386 41.4212 170.578 40.7998 170.578 39.9712V38.457C170.586 37.2427 170.2 36.3927 169.436 35.9284ZM168.428 38.9498V39.557C168.428 40.3427 168.25 40.8712 167.907 41.1141C167.536 41.3712 166.75 41.4998 165.571 41.4998H157.136V37.007H165.571C166.75 37.007 167.536 37.1355 167.907 37.3998C168.25 37.6498 168.428 38.1712 168.428 38.9498Z" fill="#00C8C0"/>
<path d="M191.143 36.0289C190.686 35.6931 190.086 35.4574 189.343 35.3146C188.621 35.1789 187.521 35.1074 186.079 35.1074H181.507C180.064 35.1074 178.964 35.1789 178.243 35.3146C177.507 35.4574 176.9 35.6931 176.443 36.0289C175.929 36.4074 175.557 36.9289 175.329 37.586C175.107 38.2289 175 39.0931 175 40.1646V43.6217C175 44.6003 175.114 45.4074 175.336 46.0146C175.564 46.636 175.943 47.1431 176.464 47.5289C176.929 47.8646 177.529 48.1074 178.25 48.2431C178.957 48.3789 180.064 48.4431 181.529 48.4431H186.079C187.557 48.4431 188.664 48.3717 189.371 48.2431C190.093 48.1074 190.686 47.8646 191.143 47.5289C191.643 47.1646 192.014 46.6503 192.243 46.0074C192.471 45.3789 192.586 44.5503 192.586 43.5431V40.0146C192.586 39.0146 192.471 38.1931 192.243 37.5574C192.014 36.9074 191.643 36.3931 191.143 36.0289ZM186.886 46.6217H180.7C179.836 46.6217 179.171 46.5503 178.707 46.4146C178.264 46.286 177.921 46.0646 177.679 45.7646C177.5 45.5503 177.371 45.286 177.3 44.9931C177.221 44.6789 177.186 44.1431 177.186 43.4074V40.0788C177.186 39.3431 177.221 38.8074 177.3 38.4931C177.371 38.1931 177.5 37.936 177.679 37.7217C177.921 37.4217 178.271 37.2074 178.707 37.0789C179.164 36.9431 179.836 36.8717 180.7 36.8717H186.886C187.75 36.8717 188.414 36.9431 188.871 37.0789C189.307 37.2074 189.657 37.4289 189.9 37.7217C190.064 37.9289 190.186 38.1789 190.257 38.4574C190.336 38.7574 190.371 39.236 190.371 39.886V43.6074C190.371 44.2503 190.336 44.7289 190.257 45.0289C190.186 45.3146 190.064 45.5646 189.9 45.7717C189.657 46.0717 189.307 46.286 188.871 46.4217C188.414 46.5503 187.75 46.6217 186.886 46.6217Z" fill="#00C8C0"/>
<path d="M214.428 35.2648H212.371V46.2576L200.257 35.2648H197.328V48.3005H199.4V37.1362L211.693 48.3005H214.428V35.2648Z" fill="#00C8C0"/>
<path d="M225.808 35.2648L217.637 48.3005H220.008L221.751 45.5076H232.43L234.222 48.3005H236.458L228.265 35.2648H225.808ZM222.815 43.8076L227.058 37.0505L231.372 43.8076H222.815Z" fill="#00C8C0"/>
<path d="M254.822 42.4066C254.608 41.9138 254.243 41.5209 253.736 41.2495C253.393 41.0566 252.936 40.9209 252.372 40.8352C251.822 40.7566 251.001 40.7138 249.922 40.7138H245.008C243.529 40.7138 242.558 40.5709 242.108 40.2852C241.679 40.0138 241.472 39.5138 241.472 38.7566C241.472 38.0138 241.686 37.5209 242.122 37.2566C242.586 36.9781 243.522 36.8352 244.901 36.8352H249.565C250.915 36.8352 251.808 36.9709 252.208 37.2423C252.586 37.4995 252.772 38.0138 252.772 38.7781V39.1566H254.772V38.6066C254.772 37.9709 254.693 37.4352 254.536 37.0138C254.379 36.5781 254.122 36.2209 253.779 35.9495C253.372 35.6352 252.808 35.4138 252.101 35.2923C251.415 35.1709 250.201 35.1138 248.501 35.1138H245.393C243.093 35.1138 241.551 35.3781 240.672 35.9281C239.779 36.4852 239.322 37.4638 239.322 38.8281C239.322 40.1638 239.722 41.1209 240.508 41.6781C241.286 42.2281 242.579 42.4995 244.458 42.4995H250.236C251.408 42.4995 252.186 42.6352 252.543 42.9066C252.886 43.1638 253.058 43.6709 253.058 44.4066C253.058 45.3066 252.808 45.8923 252.301 46.1995C251.765 46.5209 250.579 46.6852 248.765 46.6852H245.193C243.686 46.6852 242.658 46.5352 242.122 46.2423C241.615 45.9638 241.372 45.4709 241.372 44.7423C241.372 44.6566 241.379 44.4923 241.393 44.2495L241.429 43.8066H239.436L239.408 43.9566C239.401 43.9995 239.393 44.0566 239.393 44.1281C239.372 44.5138 239.365 44.7852 239.365 44.9423C239.365 46.1923 239.786 47.1066 240.622 47.6495C241.443 48.1852 242.758 48.4495 244.651 48.4495H249.293C251.479 48.4495 252.965 48.1638 253.822 47.5852C254.686 46.9923 255.129 45.9566 255.129 44.4923C255.136 43.5923 255.029 42.8923 254.822 42.4066Z" fill="#00C8C0"/>
<path d="M126.251 59.0936V59.8008H122.386V64.3508H121.579V54.8722H126.536V55.5793H122.386V59.0865H126.251V59.0936Z" fill="white"/>
<path d="M136.25 59.6001C136.25 62.4858 134.714 64.5001 132.543 64.5001C130.314 64.5001 128.807 62.4929 128.807 59.5429C128.807 56.7286 130.371 54.7144 132.529 54.7144C134.714 54.7144 136.25 56.7358 136.25 59.6001ZM129.679 59.5572C129.679 62.0429 130.843 63.7786 132.521 63.7786C134.186 63.7786 135.364 62.0429 135.364 59.6001C135.364 57.1715 134.186 55.4358 132.521 55.4358C130.879 55.4358 129.679 57.1715 129.679 59.5572Z" fill="white"/>
<path d="M140.664 54.8722C142.129 54.8722 142.557 54.915 143.179 55.1293C144.157 55.4436 144.772 56.3365 144.772 57.4722C144.772 58.7222 144.093 59.5722 142.729 60.0293L145.329 64.3508H144.336L141.793 60.1436H140.029V64.3508H139.222V54.8722H140.664ZM140.693 59.4293C141.943 59.4293 142.257 59.4008 142.736 59.2293C143.472 58.9722 143.886 58.3365 143.886 57.4508C143.886 56.6436 143.514 56.0436 142.893 55.7865C142.436 55.615 142.057 55.5722 140.707 55.5722H140.029V59.4222H140.693V59.4293Z" fill="white"/>
<path d="M149.287 54.8722L152.144 63.4436L155.001 54.8722H156.308V64.3508H155.501V55.6151L152.558 64.3508H151.751L148.794 55.6151V64.3508H147.987V54.8722H149.287Z" fill="white"/>
<path d="M160.393 54.8722V60.5008C160.407 62.2079 160.436 62.4651 160.75 62.9008C161.122 63.4579 161.886 63.7793 162.793 63.7793C163.815 63.7793 164.629 63.3793 164.965 62.7151C165.179 62.3008 165.193 62.0651 165.207 60.5008V54.8722H166.015V60.5151C166.015 62.0651 166 62.2508 165.829 62.7293C165.429 63.8508 164.307 64.5079 162.786 64.5079C161.422 64.5079 160.386 63.9793 159.9 63.0579C159.657 62.5865 159.572 62.1222 159.572 61.2079V54.8722H160.393Z" fill="white"/>
<path d="M170.121 54.8715V63.6358H174.157V64.343H169.286V54.8644H170.121V54.8715Z" fill="white"/>
<path d="M180.179 54.8005L183.465 64.3505H182.615L181.693 61.6648H178.058L177.122 64.3505H176.286L179.572 54.8005H180.179ZM179.865 55.9505L178.272 60.9505H181.443L179.865 55.9505Z" fill="white"/>
<path d="M197.451 59.6001C197.451 62.4858 195.915 64.5001 193.744 64.5001C191.515 64.5001 190.008 62.4929 190.008 59.5429C190.008 56.7286 191.573 54.7144 193.73 54.7144C195.915 54.7144 197.451 56.7358 197.451 59.6001ZM190.887 59.5572C190.887 62.0429 192.051 63.7786 193.73 63.7786C195.394 63.7786 196.573 62.0429 196.573 59.6001C196.573 57.1715 195.394 55.4358 193.73 55.4358C192.08 55.4358 190.887 57.1715 190.887 59.5572Z" fill="white"/>
<path d="M201.307 54.8722L206.079 63.1722V54.8722H206.829V64.3508H205.893L201.179 56.0793V64.3508H200.414V54.8722H201.307Z" fill="white"/>
<path d="M214.916 59.0929V59.8001H211.051V63.6358H215.258V64.343H210.244V54.8644H215.201V55.5715H211.051V59.0787H214.916V59.0929Z" fill="white"/>
<path d="M227.401 54.8722V55.5793H224.958V64.3436H224.151V55.5793H221.694V54.8722H227.401Z" fill="white"/>
<path d="M234.586 59.0929V59.8001H230.722V63.6358H234.929V64.343H229.915V54.8644H234.872V55.5715H230.722V59.0787H234.586V59.0929Z" fill="white"/>
<path d="M240.793 54.8003L244.079 64.3503H243.229L242.307 61.6646H238.672L237.736 64.3503H236.9L240.186 54.8003H240.793ZM240.479 55.9503L238.886 60.9503H242.057L240.479 55.9503Z" fill="white"/>
<path d="M247.893 54.8722L250.75 63.4436L253.607 54.8722H254.915V64.3508H254.107V55.6151L251.165 64.3508H250.357L247.4 55.6151V64.3508H246.593V54.8722H247.893Z" fill="white"/>
</g>
<defs>
<linearGradient id="paint0_linear_1884_56151" x1="10.2383" y1="14.8272" x2="69.8818" y2="64.7786" gradientUnits="userSpaceOnUse">
<stop stop-color="white"/>
<stop offset="0.1" stop-color="#CDD0D0"/>
<stop offset="0.2" stop-color="#A5ACAF"/>
<stop offset="0.3" stop-color="#98A0A4"/>
<stop offset="0.4" stop-color="#828A8F"/>
<stop offset="0.5" stop-color="#667075"/>
<stop offset="0.6" stop-color="#535C63"/>
<stop offset="0.7" stop-color="#475158"/>
<stop offset="0.8" stop-color="#434D54"/>
<stop offset="1" stop-color="#475157"/>
</linearGradient>
<linearGradient id="paint1_linear_1884_56151" x1="12.1032" y1="16.3181" x2="68.0189" y2="63.2873" gradientUnits="userSpaceOnUse">
<stop stop-color="#0B1F2A"/>
<stop offset="0.2" stop-color="#333F47"/>
<stop offset="0.5" stop-color="#81898D"/>
<stop offset="0.7" stop-color="#B3B8B8"/>
<stop offset="0.8" stop-color="#DEE0DD"/>
<stop offset="1" stop-color="#FBFBFB"/>
</linearGradient>
<linearGradient id="paint2_linear_1884_56151" x1="53.6953" y1="77.213" x2="26.483" y2="2.41023" gradientUnits="userSpaceOnUse">
<stop stop-color="#E1E3E1" stop-opacity="0.4"/>
<stop offset="0.1" stop-color="#C1C5C4" stop-opacity="0.4"/>
<stop offset="0.3" stop-color="#9BA1A2" stop-opacity="0.4"/>
<stop offset="0.5" stop-color="#7D8487" stop-opacity="0.4"/>
<stop offset="0.7" stop-color="#687074" stop-opacity="0"/>
<stop offset="0.8" stop-color="#5B6469" stop-opacity="0"/>
<stop offset="1" stop-color="#576065" stop-opacity="0"/>
</linearGradient>
<linearGradient id="paint3_linear_1884_56151" x1="22.9131" y1="10.1053" x2="57.2081" y2="69.5002" gradientUnits="userSpaceOnUse">
<stop stop-color="#E1E3E1" stop-opacity="0.4"/>
<stop offset="0.1" stop-color="#C1C5C4" stop-opacity="0.4"/>
<stop offset="0.3" stop-color="#9BA1A2" stop-opacity="0.4"/>
<stop offset="0.5" stop-color="#7D8487" stop-opacity="0.4"/>
<stop offset="0.7" stop-color="#687074" stop-opacity="0"/>
<stop offset="0.8" stop-color="#5B6469" stop-opacity="0"/>
<stop offset="1" stop-color="#576065" stop-opacity="0"/>
</linearGradient>
<linearGradient id="paint4_linear_1884_56151" x1="55.5932" y1="48.998" x2="53.4808" y2="52.4772" gradientUnits="userSpaceOnUse">
<stop stop-color="#27343C"/>
<stop offset="1" stop-color="#00111E" stop-opacity="0"/>
</linearGradient>
<linearGradient id="paint5_linear_1884_56151" x1="49.5044" y1="36.1993" x2="46.0252" y2="30.6078" gradientUnits="userSpaceOnUse">
<stop stop-color="#02131F"/>
<stop offset="0.1" stop-color="#02131F"/>
<stop offset="0.9" stop-color="#02131F" stop-opacity="0"/>
<stop offset="1" stop-color="#02131F" stop-opacity="0"/>
</linearGradient>
<linearGradient id="paint6_linear_1884_56151" x1="40.0608" y1="45.2703" x2="34.842" y2="46.7614" gradientUnits="userSpaceOnUse">
<stop stop-color="#02131F" stop-opacity="0.8"/>
<stop offset="0.2" stop-color="#02131F" stop-opacity="0.8"/>
<stop offset="0.9" stop-color="#02131F" stop-opacity="0"/>
<stop offset="1" stop-color="#02131F" stop-opacity="0"/>
</linearGradient>
<linearGradient id="paint7_linear_1884_56151" x1="26.1446" y1="52.1045" x2="25.399" y2="50.2407" gradientUnits="userSpaceOnUse">
<stop stop-color="#02131F" stop-opacity="0.8"/>
<stop offset="0.1" stop-color="#02131F" stop-opacity="0.8"/>
<stop offset="1" stop-color="#02131F" stop-opacity="0"/>
</linearGradient>
<linearGradient id="paint8_linear_1884_56151" x1="44.5346" y1="21.4129" x2="40.3099" y2="21.9099" gradientUnits="userSpaceOnUse">
<stop stop-color="#02131F"/>
<stop offset="0.3" stop-color="#02131F"/>
<stop offset="0.8" stop-color="#02131F" stop-opacity="0"/>
<stop offset="1" stop-color="#02131F" stop-opacity="0"/>
</linearGradient>
<linearGradient id="paint9_linear_1884_56151" x1="44.6589" y1="21.2886" x2="41.801" y2="21.6614" gradientUnits="userSpaceOnUse">
<stop stop-color="#27343C"/>
<stop offset="0.4" stop-color="#27343C"/>
<stop offset="1" stop-color="#3B474E" stop-opacity="0"/>
</linearGradient>
<linearGradient id="paint10_linear_1884_56151" x1="-0.199256" y1="40.9211" x2="34.4685" y2="60.9265" gradientUnits="userSpaceOnUse">
<stop stop-color="#25323B" stop-opacity="0"/>
<stop offset="0.1" stop-color="#27343C"/>
<stop offset="1" stop-color="#27343C"/>
</linearGradient>
<linearGradient id="paint11_linear_1884_56151" x1="40.0603" y1="46.5124" x2="40.0603" y2="40.5481" gradientUnits="userSpaceOnUse">
<stop stop-color="#A5ABAF"/>
<stop offset="0.3" stop-color="#A5ABAF"/>
<stop offset="1" stop-color="#A5ABAF" stop-opacity="0"/>
</linearGradient>
<linearGradient id="paint12_linear_1884_56151" x1="59.5696" y1="2.89844" x2="59.5696" y2="78.6953" gradientUnits="userSpaceOnUse">
<stop stop-color="#6B7378"/>
<stop offset="0.2" stop-color="#333F47"/>
<stop offset="0.5" stop-color="#27343C"/>
<stop offset="0.8" stop-color="#333F47"/>
<stop offset="1" stop-color="#434D54"/>
</linearGradient>
<linearGradient id="paint13_linear_1884_56151" x1="71.4983" y1="10.1051" x2="54.7236" y2="34.708" gradientUnits="userSpaceOnUse">
<stop stop-color="#27343C"/>
<stop offset="0.7" stop-color="#49545B"/>
<stop offset="0.8" stop-color="white" stop-opacity="0"/>
<stop offset="1" stop-color="white" stop-opacity="0"/>
</linearGradient>
<clipPath id="clip0_1884_56151">
<rect width="255.714" height="80" fill="white"/>
</clipPath>
</defs>
</svg>
